<svg width="100" height="100" viewBox="0 0 100 100" fill="none" xmlns="http://www.w3.org/2000/svg">
<path d="M10 89.5833V85.2583C12.1583 84.9917 13.8389 84.2833 15.0417 83.1333C16.2472 81.9861 18.525 81.4125 21.875 81.4125C25.3833 81.4125 27.8611 82.1069 29.3083 83.4958C30.7528 84.8847 32.8847 85.5792 35.7042 85.5792C38.5569 85.5792 40.7056 84.8847 42.15 83.4958C43.5944 82.1069 46.0722 81.4125 49.5833 81.4125C53.0611 81.4125 55.5389 82.1069 57.0167 83.4958C58.4917 84.8847 60.6403 85.5792 63.4625 85.5792C66.3153 85.5792 68.4556 84.8847 69.8833 83.4958C71.3139 82.1069 73.7833 81.4125 77.2917 81.4125C80.6417 81.4125 82.9194 81.9875 84.125 83.1375C85.3278 84.2847 87.0083 84.9931 89.1667 85.2625V89.5875C86.65 89.2653 84.6528 88.5167 83.175 87.3417C81.7 86.1667 79.7389 85.5792 77.2917 85.5792C74.525 85.5792 72.4056 86.2736 70.9333 87.6625C69.4611 89.0514 66.9708 89.7458 63.4625 89.7458C59.9847 89.7458 57.5069 89.0514 56.0292 87.6625C54.5514 86.2736 52.4028 85.5806 49.5833 85.5833C46.7306 85.5833 44.5819 86.2778 43.1375 87.6667C41.6931 89.0556 39.2153 89.75 35.7042 89.75C32.1958 89.75 29.7139 89.0556 28.2583 87.6667C26.8028 86.2778 24.675 85.5833 21.875 85.5833C19.3417 85.5833 17.3931 86.1708 16.0292 87.3458C14.6653 88.5208 12.6556 89.2694 10 89.5917M10 73.8833V69.5583C12.1583 69.2917 13.8389 68.5833 15.0417 67.4333C16.2472 66.2861 18.525 65.7125 21.875 65.7125C25.3528 65.7125 27.8222 66.4069 29.2833 67.7958C30.7444 69.1847 32.8847 69.8792 35.7042 69.8792C38.5569 69.8792 40.7056 69.1847 42.15 67.7958C43.5944 66.4069 46.0722 65.7111 49.5833 65.7083C53.0611 65.7083 55.5333 66.4028 57 67.7917C58.4722 69.1806 60.6111 69.875 63.4167 69.875C66.2667 69.875 68.4139 69.1806 69.8583 67.7917C71.3028 66.4028 73.7806 65.7083 77.2917 65.7083C80.6083 65.7083 82.8861 66.2819 84.125 67.4292C85.3611 68.5792 87.0417 69.2875 89.1667 69.5542V73.8833C86.6194 73.5611 84.6153 72.8125 83.1542 71.6375C81.693 70.4625 79.7389 69.875 77.2917 69.875C74.525 69.875 72.4056 70.5694 70.9333 71.9583C69.4611 73.3472 66.9708 74.0417 63.4625 74.0417C59.9847 74.0417 57.5069 73.3472 56.0292 71.9583C54.5514 70.5694 52.4028 69.875 49.5833 69.875C46.7306 69.875 44.5903 70.5694 43.1625 71.9583C41.7319 73.3472 39.2625 74.0417 35.7542 74.0417C32.2431 74.0417 29.7431 73.3472 28.2542 71.9583C26.7681 70.5694 24.6417 69.875 21.875 69.875C19.375 69.875 17.4264 70.4625 16.0292 71.6375C14.6319 72.8125 12.6222 73.5611 10 73.8833ZM10 58.175V53.85C12.1583 53.5833 13.8389 52.875 15.0417 51.725C16.2472 50.5778 18.525 50.0042 21.875 50.0042C25.3528 50.0042 27.8222 50.6986 29.2833 52.0875C30.7444 53.4764 32.8847 54.1708 35.7042 54.1708C38.5569 54.1708 40.7056 53.4764 42.15 52.0875C43.5944 50.6986 46.0722 50.0028 49.5833 50C53.0611 50 55.5333 50.6944 57 52.0833C58.4722 53.4722 60.6111 54.1667 63.4167 54.1667C66.2667 54.1667 68.4139 53.4722 69.8583 52.0833C71.3028 50.6944 73.7806 50 77.2917 50C80.6083 50 82.8861 50.5736 84.125 51.7208C85.3611 52.8708 87.0417 53.5792 89.1667 53.8458V58.1708C86.6194 57.8514 84.6153 57.1042 83.1542 55.9292C81.693 54.7542 79.7389 54.1667 77.2917 54.1667C74.525 54.1667 72.4056 54.8611 70.9333 56.25C69.4611 57.6389 66.9708 58.3333 63.4625 58.3333C59.9847 58.3333 57.5069 57.6389 56.0292 56.25C54.5514 54.8611 52.4028 54.1667 49.5833 54.1667C46.7306 54.1667 44.5903 54.8611 43.1625 56.25C41.7319 57.6389 39.2625 58.3333 35.7542 58.3333C32.2431 58.3333 29.7431 57.6389 28.2542 56.25C26.7681 54.8611 24.6417 54.1667 21.875 54.1667C19.375 54.1667 17.4 54.7542 15.95 55.9292C14.5 57.1042 12.5167 57.8514 10 58.1708" fill="black"/>
<path d="M49.9402 8C50.1157 8.10741 50.1157 8.10741 50.2912 8.23434C50.2912 8.28589 50.2912 8.33745 50.2912 8.39057C50.3375 8.39057 50.3838 8.39057 50.4315 8.39057C50.5374 8.52177 50.5374 8.52177 50.6509 8.69325C50.6887 8.74944 50.7265 8.80563 50.7655 8.86352C50.8527 9.01547 50.8527 9.01547 50.8527 9.1717C50.899 9.1717 50.9454 9.1717 50.9931 9.1717C51.0989 9.3029 51.0989 9.3029 51.2125 9.47438C51.2503 9.53057 51.2881 9.58676 51.3271 9.64465C51.4143 9.7966 51.4143 9.7966 51.4143 9.95283C51.4606 9.95283 51.5069 9.95283 51.5546 9.95283C51.5546 10.0044 51.5546 10.0559 51.5546 10.1091C51.601 10.1091 51.6473 10.1091 51.695 10.1091C51.8009 10.2403 51.8009 10.2403 51.9144 10.4117C51.9522 10.4679 51.99 10.5241 52.029 10.582C52.1162 10.734 52.1162 10.734 52.1162 10.8902C52.1625 10.8902 52.2089 10.8902 52.2566 10.8902C52.5374 11.3129 52.5374 11.3129 52.5374 11.5151C52.5837 11.5151 52.63 11.5151 52.6778 11.5151C52.7798 11.6509 52.7798 11.6509 52.9059 11.852C52.9799 11.9681 52.9799 11.9681 53.0553 12.0866C53.0837 12.1313 53.1122 12.176 53.1415 12.2221C53.339 12.5294 53.5419 12.8322 53.7438 13.1359C53.8661 13.32 53.9883 13.5042 54.11 13.6887C54.183 13.7993 54.2563 13.9097 54.33 14.0197C54.573 14.3877 54.573 14.3877 54.573 14.5615C54.6193 14.5615 54.6657 14.5615 54.7134 14.5615C54.7597 14.7162 54.806 14.8708 54.8538 15.0302C54.9001 15.0302 54.9464 15.0302 54.9942 15.0302C55.0748 15.1376 55.0748 15.1376 55.1645 15.2903C55.2152 15.3756 55.2152 15.3756 55.2668 15.4627C55.3032 15.5252 55.3395 15.5877 55.3769 15.652C55.4147 15.7161 55.4524 15.7801 55.4913 15.8461C55.5716 15.9824 55.6516 16.1188 55.7314 16.2555C55.8521 16.4622 55.9735 16.6685 56.0951 16.8747C56.1731 17.0074 56.251 17.1401 56.3289 17.2729C56.3647 17.3338 56.4005 17.3947 56.4373 17.4574C58.035 20.1948 60.0174 23.6102 59.9999 26.9912C59.9996 27.069 59.9994 27.1468 59.9991 27.2269C59.9901 27.9203 59.9059 28.5721 59.7674 29.2468C59.7505 29.3315 59.7337 29.4163 59.7164 29.5037C59.668 29.7324 59.6141 29.958 59.5568 30.1841C59.54 30.2546 59.5231 30.3251 59.5058 30.3977C59.2516 31.3546 58.7777 32.4391 58.2231 33.2305C58.1768 33.2305 58.1304 33.2305 58.0827 33.2305C58.0624 33.2901 58.0422 33.3498 58.0213 33.4112C57.9423 33.6211 57.9423 33.6211 57.8019 33.8554C57.7556 33.8554 57.7093 33.8554 57.6615 33.8554C57.6355 33.9207 57.6355 33.9207 57.6089 33.9873C57.5051 34.201 57.3854 34.377 57.2404 34.5585C57.194 34.5585 57.1477 34.5585 57.1 34.5585C57.0855 34.602 57.071 34.6455 57.0561 34.6903C56.9191 34.9467 56.7531 35.0823 56.5384 35.2615C56.4921 35.2615 56.4458 35.2615 56.398 35.2615C56.398 35.313 56.398 35.3646 56.398 35.4177C56.3517 35.4177 56.3054 35.4177 56.2577 35.4177C56.2577 35.4693 56.2577 35.5208 56.2577 35.5739C56.0889 35.7149 55.9205 35.8457 55.7444 35.9743C55.6959 36.0108 55.6475 36.0474 55.5975 36.085C55.5507 36.1196 55.5039 36.1541 55.4556 36.1897C55.4126 36.2214 55.3696 36.2531 55.3253 36.2858C55.2047 36.3551 55.2047 36.3551 54.9942 36.3551C54.9942 36.4066 54.9942 36.4582 54.9942 36.5113C54.3531 36.8713 53.7109 37.1871 53.0287 37.4389C52.9684 37.4612 52.9082 37.4835 52.8461 37.5065C50.4098 38.3815 47.8026 38.0557 45.5179 36.8237C45.1269 36.5912 44.7587 36.3239 44.3948 36.0426C44.3545 36.012 44.3142 35.9814 44.2727 35.9499C43.8089 35.5968 43.8089 35.5968 43.6227 35.4177C43.6227 35.3661 43.6227 35.3146 43.6227 35.2615C43.5764 35.2615 43.53 35.2615 43.4823 35.2615C43.4823 35.2099 43.4823 35.1584 43.4823 35.1052C43.4221 35.0762 43.4221 35.0762 43.3606 35.0467C43.177 34.9339 43.0508 34.802 42.9032 34.6366C42.8536 34.5818 42.804 34.527 42.753 34.4706C42.64 34.3241 42.64 34.3241 42.64 34.1679C42.5937 34.1679 42.5473 34.1679 42.4996 34.1679C42.4996 34.1163 42.4996 34.0648 42.4996 34.0117C42.4533 34.0117 42.4069 34.0117 42.3592 34.0117C42.2684 33.9012 42.2684 33.9012 42.1656 33.7453C42.1278 33.6879 42.0899 33.6305 42.0509 33.5713C42.0108 33.5088 41.9706 33.4463 41.9293 33.3819C41.8882 33.318 41.8471 33.2541 41.8048 33.1883C40.4283 31.0115 39.7469 28.3119 40.0861 25.6511C40.4119 23.5713 41.3688 21.5528 42.3299 19.7585C42.4368 19.5607 42.4368 19.5607 42.4996 19.3264C42.5459 19.3264 42.5923 19.3264 42.64 19.3264C42.651 19.2618 42.651 19.2618 42.6622 19.1958C42.7691 18.7905 43.0052 18.4355 43.2015 18.0766C43.2266 18.0306 43.2517 17.9847 43.2776 17.9373C43.6495 17.259 44.0374 16.5922 44.4299 15.9285C44.4729 15.8551 44.5158 15.7818 44.5601 15.7062C44.6004 15.6386 44.6407 15.571 44.6822 15.5013C44.7361 15.4101 44.7361 15.4101 44.7912 15.3172C44.8225 15.274 44.8539 15.2309 44.8862 15.1864C44.9325 15.1864 44.9789 15.1864 45.0266 15.1864C45.0729 15.0317 45.1192 14.8771 45.167 14.7177C45.2133 14.7177 45.2596 14.7177 45.3074 14.7177C45.3276 14.6581 45.3479 14.5985 45.3688 14.5371C45.4478 14.3272 45.4478 14.3272 45.5881 14.0928C45.6345 14.0928 45.6808 14.0928 45.7285 14.0928C45.7465 14.0363 45.7645 13.9797 45.783 13.9215C45.8739 13.6895 45.9813 13.5183 46.1209 13.319C46.1702 13.248 46.2194 13.177 46.2702 13.1039C46.3216 13.0307 46.3731 12.9575 46.4261 12.8821C46.5278 12.7366 46.6293 12.5909 46.7307 12.4451C46.7758 12.3809 46.8208 12.3167 46.8672 12.2506C46.997 12.0618 46.997 12.0618 47.1049 11.8426C47.1371 11.7861 47.1694 11.7296 47.2026 11.6713C47.2489 11.6713 47.2953 11.6713 47.343 11.6713C47.343 11.6198 47.343 11.5682 47.343 11.5151C47.3893 11.5151 47.4357 11.5151 47.4834 11.5151C47.5037 11.4555 47.5239 11.3959 47.5448 11.3345C47.6238 11.1245 47.6238 11.1245 47.7642 10.8902C47.8105 10.8902 47.8568 10.8902 47.9046 10.8902C47.9306 10.8274 47.9306 10.8274 47.9572 10.7633C48.0665 10.5322 48.1877 10.3202 48.3257 10.1091C48.372 10.1091 48.4184 10.1091 48.4661 10.1091C48.4835 10.0672 48.5008 10.0253 48.5187 9.98212C48.628 9.75111 48.7493 9.53904 48.8873 9.32792C48.9336 9.32792 48.9799 9.32792 49.0277 9.32792C49.045 9.28603 49.0624 9.24415 49.0803 9.20099C49.1896 8.96998 49.3108 8.75791 49.4488 8.54679C49.4952 8.54679 49.5415 8.54679 49.5892 8.54679C49.5892 8.49524 49.5892 8.44368 49.5892 8.39057C49.6355 8.39057 49.6819 8.39057 49.7296 8.39057C49.7513 8.34062 49.773 8.29068 49.7954 8.23922C49.87 8.07811 49.87 8.07811 49.9402 8ZM48.8171 20.4981C48.8084 20.6419 48.8046 20.786 48.8027 20.93C48.8013 21.0223 48.7999 21.1146 48.7984 21.2096C48.7972 21.31 48.7961 21.4104 48.7949 21.5139C48.7934 21.6161 48.7919 21.7182 48.7904 21.8235C48.7866 22.0956 48.7831 22.3677 48.7797 22.6399C48.7762 22.9174 48.7723 23.1949 48.7684 23.4723C48.7608 24.0171 48.7538 24.562 48.7469 25.1068C48.0172 25.1454 48.0172 25.1454 47.2728 25.1849C47.3278 25.4776 47.3278 25.4776 47.4132 25.6536C47.4595 25.6536 47.5058 25.6536 47.5536 25.6536C47.5784 25.7357 47.5784 25.7357 47.6038 25.8196C47.711 26.0865 47.8502 26.2843 48.0142 26.5128C48.3403 26.974 48.6444 27.4482 48.941 27.9336C49.0733 28.1495 49.2066 28.3646 49.3398 28.5798C49.4398 28.7413 49.5396 28.9027 49.6394 29.0643C49.667 29.109 49.6946 29.1536 49.723 29.1997C49.7962 29.3189 49.8682 29.4391 49.9402 29.5592C49.9865 29.5592 50.0328 29.5592 50.0806 29.5592C50.1948 29.3842 50.3008 29.2092 50.4052 29.0271C50.4691 28.9181 50.5331 28.8091 50.5972 28.7003C50.6288 28.6465 50.6604 28.5928 50.693 28.5374C50.8509 28.273 51.0207 28.0187 51.19 27.7632C51.3849 27.466 51.575 27.1653 51.7652 26.8643C52.0886 26.353 52.4154 25.845 52.7479 25.3411C52.397 24.9505 51.7695 25.1358 51.2739 25.1068C51.2507 23.5859 51.2275 22.065 51.2037 20.4981C50.9608 20.408 50.7705 20.4099 50.5143 20.4096C50.4681 20.4095 50.4218 20.4095 50.3741 20.4094C50.2765 20.4093 50.1789 20.4095 50.0814 20.4098C49.9315 20.4102 49.7816 20.4098 49.6317 20.4093C49.5369 20.4094 49.4421 20.4095 49.3474 20.4096C49.2176 20.4097 49.2176 20.4097 49.0852 20.4099C48.8941 20.3948 48.8941 20.3948 48.8171 20.4981ZM42.5698 30.809C42.64 30.9653 42.64 30.9653 42.64 30.9653L42.5698 30.809ZM42.64 30.9653C42.8326 31.4062 42.8326 31.4062 43.0612 31.8245C43.1075 31.8245 43.1538 31.8245 43.2015 31.8245C43.2015 31.8761 43.2015 31.9276 43.2015 31.9807C43.2479 31.9807 43.2942 31.9807 43.3419 31.9807C43.3593 32.0254 43.3767 32.0701 43.3946 32.1162C43.4959 32.3205 43.6144 32.4609 43.7631 32.6252C43.8123 32.6803 43.8615 32.7355 43.9123 32.7924C44.0327 32.935 44.0327 32.935 44.1843 32.9181C44.1843 32.9696 44.1843 33.0212 44.1843 33.0743C44.2306 33.0743 44.2769 33.0743 44.3246 33.0743C44.3246 33.1259 44.3246 33.1774 44.3246 33.2305C44.5797 33.4619 44.5797 33.4619 44.8862 33.543C44.8862 33.5945 44.8862 33.6461 44.8862 33.6992C45.0595 33.8356 45.2321 33.9615 45.4127 34.0849C45.4615 34.1195 45.5104 34.1541 45.5607 34.1897C45.8471 34.3877 46.1263 34.541 46.4445 34.6645C46.6127 34.7313 46.7704 34.8176 46.9306 34.9051C47.9441 35.423 49.0081 35.6021 50.115 35.5943C50.2559 35.5935 50.3968 35.5943 50.5377 35.5953C52.0425 35.592 53.2519 35.0625 54.573 34.3241C54.573 34.2726 54.573 34.221 54.573 34.1679C54.712 34.1163 54.851 34.0648 54.9942 34.0117C54.9942 33.9601 54.9942 33.9086 54.9942 33.8554C55.0448 33.8361 55.0955 33.8168 55.1477 33.7969C55.3645 33.6896 55.5213 33.5646 55.6961 33.3868C55.6961 33.3352 55.6961 33.2837 55.6961 33.2305C55.7424 33.2305 55.7888 33.2305 55.8365 33.2305C55.8365 33.179 55.8365 33.1274 55.8365 33.0743C55.8828 33.0743 55.9291 33.0743 55.9769 33.0743C55.9769 33.0228 55.9769 32.9712 55.9769 32.9181C56.0232 32.9181 56.0695 32.9181 56.1173 32.9181C56.1173 32.8665 56.1173 32.815 56.1173 32.7619C56.1636 32.7619 56.2099 32.7619 56.2577 32.7619C56.2577 32.7103 56.2577 32.6587 56.2577 32.6056C56.304 32.6056 56.3503 32.6056 56.398 32.6056C56.398 32.5541 56.398 32.5025 56.398 32.4494C56.4444 32.4494 56.4907 32.4494 56.5384 32.4494C56.63 32.335 56.63 32.335 56.7186 32.1842C56.7526 32.1289 56.7867 32.0736 56.8218 32.0166C56.8572 31.958 56.8925 31.8995 56.9289 31.8391C56.9645 31.7815 57.0001 31.7239 57.0368 31.6645C57.2398 31.3329 57.2398 31.3329 57.3808 30.9653C56.8902 31.0944 56.4481 31.3187 56.0032 31.5755C55.0614 32.1064 54.1146 32.5221 53.0989 32.84C53.0478 32.8567 52.9968 32.8735 52.9441 32.8908C51.2459 33.4305 49.1809 33.3136 47.4834 32.84C47.4209 32.8228 47.3584 32.8057 47.294 32.788C46.4668 32.5552 45.6745 32.2456 44.8853 31.887C44.6808 31.7953 44.4741 31.7102 44.2676 31.6243C43.8731 31.4572 43.4945 31.2609 43.1157 31.054C42.9126 30.9455 42.9126 30.9455 42.64 30.9653Z" fill="#010101"/>
<path d="M77.4551 23C77.5868 23.0716 77.5868 23.0716 77.7184 23.1562C77.7184 23.1906 77.7184 23.225 77.7184 23.2604C77.7531 23.2604 77.7879 23.2604 77.8237 23.2604C77.903 23.3478 77.903 23.3478 77.9882 23.4622C78.0165 23.4996 78.0449 23.5371 78.0741 23.5757C78.1395 23.677 78.1395 23.677 78.1395 23.7811C78.1743 23.7811 78.209 23.7811 78.2448 23.7811C78.3242 23.8686 78.3242 23.8686 78.4093 23.9829C78.4377 24.0204 78.4661 24.0578 78.4953 24.0964C78.5607 24.1977 78.5607 24.1977 78.5607 24.3019C78.5954 24.3019 78.6302 24.3019 78.666 24.3019C78.666 24.3363 78.666 24.3706 78.666 24.406C78.7007 24.406 78.7355 24.406 78.7713 24.406C78.8507 24.4935 78.8507 24.4935 78.9358 24.6078C78.9642 24.6453 78.9925 24.6827 79.0218 24.7213C79.0872 24.8226 79.0872 24.8226 79.0872 24.9268C79.1219 24.9268 79.1566 24.9268 79.1924 24.9268C79.403 25.2086 79.403 25.2086 79.403 25.3434C79.4378 25.3434 79.4725 25.3434 79.5083 25.3434C79.5848 25.4339 79.5848 25.4339 79.6794 25.568C79.7349 25.6454 79.7349 25.6454 79.7915 25.7244C79.8128 25.7542 79.8341 25.784 79.8561 25.8147C80.0042 26.0196 80.1565 26.2215 80.3079 26.424C80.3996 26.5467 80.4912 26.6694 80.5825 26.7925C80.6372 26.8662 80.6922 26.9398 80.7475 27.0132C80.9297 27.2585 80.9297 27.2585 80.9297 27.3743C80.9645 27.3743 80.9992 27.3743 81.035 27.3743C81.0698 27.4774 81.1045 27.5806 81.1403 27.6868C81.1751 27.6868 81.2098 27.6868 81.2456 27.6868C81.3061 27.7584 81.3061 27.7584 81.3734 27.8602C81.4114 27.9171 81.4114 27.9171 81.4501 27.9751C81.4774 28.0168 81.5046 28.0584 81.5327 28.1014C81.561 28.144 81.5893 28.1867 81.6185 28.2307C81.6787 28.3216 81.7387 28.4126 81.7985 28.5036C81.8891 28.6415 81.9801 28.779 82.0713 28.9165C82.1298 29.0049 82.1883 29.0934 82.2467 29.1819C82.2735 29.2225 82.3004 29.2631 82.328 29.3049C83.5262 31.1299 85.013 33.4068 84.9999 35.6608C84.9997 35.7127 84.9995 35.7645 84.9994 35.8179C84.9926 36.2802 84.9294 36.7147 84.8255 37.1645C84.8129 37.221 84.8003 37.2776 84.7873 37.3358C84.751 37.4883 84.7106 37.6387 84.6676 37.7894C84.655 37.8364 84.6423 37.8834 84.6293 37.9318C84.4387 38.5697 84.0833 39.2928 83.6673 39.8204C83.6326 39.8204 83.5978 39.8204 83.562 39.8204C83.5468 39.8601 83.5316 39.8998 83.516 39.9408C83.4567 40.0807 83.4567 40.0807 83.3514 40.237C83.3167 40.237 83.282 40.237 83.2462 40.237C83.2266 40.2805 83.2266 40.2805 83.2067 40.3248C83.1288 40.4673 83.039 40.5846 82.9303 40.7056C82.8955 40.7056 82.8608 40.7056 82.825 40.7056C82.8141 40.7346 82.8033 40.7636 82.7921 40.7935C82.6893 40.9645 82.5648 41.0549 82.4038 41.1743C82.3691 41.1743 82.3343 41.1743 82.2985 41.1743C82.2985 41.2087 82.2985 41.2431 82.2985 41.2785C82.2638 41.2785 82.229 41.2785 82.1932 41.2785C82.1932 41.3128 82.1932 41.3472 82.1932 41.3826C82.0666 41.4766 81.9404 41.5638 81.8083 41.6495C81.7719 41.6739 81.7356 41.6982 81.6981 41.7233C81.663 41.7464 81.6279 41.7694 81.5917 41.7931C81.5595 41.8143 81.5272 41.8354 81.494 41.8572C81.4036 41.9034 81.4036 41.9034 81.2456 41.9034C81.2456 41.9377 81.2456 41.9721 81.2456 42.0075C80.7648 42.2475 80.2832 42.4581 79.7715 42.6259C79.7263 42.6408 79.6811 42.6557 79.6345 42.671C77.8073 43.2543 75.8519 43.0371 74.1385 42.2158C73.8451 42.0608 73.569 41.8826 73.2961 41.6951C73.2659 41.6747 73.2356 41.6543 73.2045 41.6333C72.8567 41.3979 72.8567 41.3979 72.717 41.2785C72.717 41.2441 72.717 41.2097 72.717 41.1743C72.6823 41.1743 72.6475 41.1743 72.6117 41.1743C72.6117 41.1399 72.6117 41.1056 72.6117 41.0702C72.5665 41.0508 72.5665 41.0508 72.5204 41.0311C72.3827 40.956 72.2881 40.868 72.1774 40.7577C72.1402 40.7212 72.103 40.6847 72.0647 40.6471C71.98 40.5494 71.98 40.5494 71.98 40.4453C71.9452 40.4453 71.9105 40.4453 71.8747 40.4453C71.8747 40.4109 71.8747 40.3765 71.8747 40.3411C71.84 40.3411 71.8052 40.3411 71.7694 40.3411C71.7013 40.2675 71.7013 40.2675 71.6242 40.1635C71.5958 40.1252 71.5674 40.087 71.5382 40.0475C71.5081 40.0059 71.478 39.9642 71.447 39.9213C71.4161 39.8787 71.3853 39.8361 71.3536 39.7922C70.3212 38.341 69.8102 36.5412 70.0646 34.7674C70.3089 33.3809 71.0266 32.0352 71.7474 30.839C71.8276 30.7071 71.8276 30.7071 71.8747 30.5509C71.9094 30.5509 71.9442 30.5509 71.98 30.5509C71.9882 30.5078 71.9882 30.5078 71.9966 30.4639C72.0768 30.1937 72.2539 29.957 72.4012 29.7177C72.42 29.6871 72.4388 29.6565 72.4582 29.6249C72.7371 29.1727 73.028 28.7281 73.3225 28.2857C73.3547 28.2368 73.3869 28.1879 73.42 28.1375C73.4503 28.0924 73.4805 28.0473 73.5116 28.0009C73.5521 27.9401 73.5521 27.9401 73.5934 27.8781C73.6169 27.8493 73.6404 27.8206 73.6647 27.7909C73.6994 27.7909 73.7341 27.7909 73.7699 27.7909C73.8047 27.6878 73.8394 27.5847 73.8752 27.4785C73.91 27.4785 73.9447 27.4785 73.9805 27.4785C73.9957 27.4387 74.0109 27.399 74.0266 27.3581C74.0858 27.2181 74.0858 27.2181 74.1911 27.0619C74.2259 27.0619 74.2606 27.0619 74.2964 27.0619C74.3099 27.0242 74.3233 26.9865 74.3372 26.9477C74.4054 26.793 74.4859 26.6789 74.5907 26.546C74.6276 26.4987 74.6646 26.4514 74.7027 26.4026C74.7412 26.3538 74.7798 26.305 74.8196 26.2547C74.8958 26.1577 74.972 26.0606 75.048 25.9634C75.0818 25.9206 75.1156 25.8778 75.1504 25.8337C75.2478 25.7079 75.2478 25.7079 75.3287 25.5618C75.3528 25.5241 75.377 25.4864 75.402 25.4475C75.4367 25.4475 75.4714 25.4475 75.5072 25.4475C75.5072 25.4132 75.5072 25.3788 75.5072 25.3434C75.542 25.3434 75.5767 25.3434 75.6125 25.3434C75.6277 25.3037 75.6429 25.2639 75.6586 25.223C75.7178 25.083 75.7178 25.083 75.8231 24.9268C75.8579 24.9268 75.8926 24.9268 75.9284 24.9268C75.948 24.8849 75.948 24.8849 75.9679 24.8422C76.0498 24.6882 76.1408 24.5468 76.2443 24.406C76.279 24.406 76.3138 24.406 76.3496 24.406C76.3626 24.3781 76.3756 24.3502 76.3891 24.3214C76.471 24.1674 76.562 24.026 76.6655 23.8853C76.7002 23.8853 76.7349 23.8853 76.7707 23.8853C76.7838 23.8574 76.7968 23.8294 76.8102 23.8007C76.8922 23.6467 76.9831 23.5053 77.0866 23.3645C77.1214 23.3645 77.1561 23.3645 77.1919 23.3645C77.1919 23.3302 77.1919 23.2958 77.1919 23.2604C77.2267 23.2604 77.2614 23.2604 77.2972 23.2604C77.3135 23.2271 77.3298 23.1938 77.3466 23.1595C77.4025 23.0521 77.4025 23.0521 77.4551 23ZM76.6128 31.3321C76.6063 31.4279 76.6034 31.524 76.602 31.62C76.6009 31.6815 76.5999 31.743 76.5988 31.8064C76.5979 31.8733 76.5971 31.9403 76.5961 32.0092C76.5951 32.0774 76.594 32.1455 76.5928 32.2157C76.5899 32.3971 76.5873 32.5785 76.5848 32.7599C76.5821 32.9449 76.5792 33.1299 76.5763 33.3149C76.5706 33.6781 76.5653 34.0413 76.5602 34.4045C76.0129 34.4303 76.0129 34.4303 75.4546 34.4566C75.4958 34.6517 75.4958 34.6517 75.5599 34.769C75.5946 34.769 75.6294 34.769 75.6652 34.769C75.6838 34.8238 75.6838 34.8238 75.7028 34.8797C75.7832 35.0577 75.8877 35.1895 76.0107 35.3419C76.2553 35.6494 76.4833 35.9655 76.7058 36.2891C76.8049 36.433 76.905 36.5764 77.0049 36.7199C77.0798 36.8275 77.1547 36.9352 77.2295 37.0429C77.2502 37.0726 77.2709 37.1024 77.2923 37.1331C77.3471 37.2126 77.4011 37.2927 77.4551 37.3728C77.4899 37.3728 77.5246 37.3728 77.5604 37.3728C77.6461 37.2561 77.7256 37.1394 77.8039 37.018C77.8518 36.9454 77.8998 36.8727 77.9479 36.8002C77.9716 36.7643 77.9953 36.7285 78.0197 36.6916C78.1382 36.5153 78.2655 36.3458 78.3925 36.1755C78.5387 35.9774 78.6813 35.7768 78.8239 35.5762C79.0664 35.2354 79.3116 34.8967 79.561 34.5607C79.2977 34.3004 78.8271 34.4239 78.4554 34.4045C78.438 33.3906 78.4207 32.3767 78.4028 31.3321C78.2206 31.272 78.0779 31.2732 77.8858 31.2731C77.8511 31.273 77.8163 31.273 77.7806 31.2729C77.7074 31.2729 77.6342 31.273 77.561 31.2732C77.4486 31.2735 77.3362 31.2732 77.2238 31.2729C77.1527 31.2729 77.0816 31.273 77.0105 31.2731C76.9132 31.2732 76.9132 31.2732 76.8139 31.2733C76.6706 31.2632 76.6706 31.2632 76.6128 31.3321ZM71.9273 38.206C71.98 38.3102 71.98 38.3102 71.98 38.3102L71.9273 38.206ZM71.98 38.3102C72.1244 38.6041 72.1244 38.6041 72.2959 38.883C72.3306 38.883 72.3654 38.883 72.4012 38.883C72.4012 38.9174 72.4012 38.9517 72.4012 38.9872C72.4359 38.9872 72.4706 38.9872 72.5064 38.9872C72.5195 39.017 72.5325 39.0468 72.5459 39.0775C72.6219 39.2137 72.7108 39.3073 72.8223 39.4168C72.8592 39.4536 72.8962 39.4903 72.9342 39.5282C73.0245 39.6234 73.0245 39.6234 73.1382 39.6121C73.1382 39.6464 73.1382 39.6808 73.1382 39.7162C73.1729 39.7162 73.2077 39.7162 73.2435 39.7162C73.2435 39.7506 73.2435 39.7849 73.2435 39.8204C73.4348 39.9746 73.4348 39.9746 73.6647 40.0287C73.6647 40.063 73.6647 40.0974 73.6647 40.1328C73.7946 40.2238 73.9241 40.3076 74.0595 40.3899C74.0961 40.413 74.1328 40.436 74.1705 40.4598C74.3853 40.5918 74.5947 40.694 74.8334 40.7764C74.9596 40.8209 75.0778 40.8784 75.198 40.9367C75.9581 41.282 76.7561 41.4014 77.5863 41.3962C77.6919 41.3956 77.7976 41.3962 77.9032 41.3969C79.0319 41.3947 79.9389 41.0417 80.9297 40.5494C80.9297 40.515 80.9297 40.4807 80.9297 40.4453C81.034 40.4109 81.1382 40.3765 81.2456 40.3411C81.2456 40.3067 81.2456 40.2724 81.2456 40.237C81.2836 40.2241 81.3216 40.2112 81.3608 40.1979C81.5234 40.1264 81.641 40.0431 81.7721 39.9245C81.7721 39.8901 81.7721 39.8558 81.7721 39.8204C81.8068 39.8204 81.8416 39.8204 81.8774 39.8204C81.8774 39.786 81.8774 39.7516 81.8774 39.7162C81.9121 39.7162 81.9469 39.7162 81.9827 39.7162C81.9827 39.6818 81.9827 39.6475 81.9827 39.6121C82.0174 39.6121 82.0522 39.6121 82.088 39.6121C82.088 39.5777 82.088 39.5433 82.088 39.5079C82.1227 39.5079 82.1574 39.5079 82.1932 39.5079C82.1932 39.4735 82.1932 39.4392 82.1932 39.4038C82.228 39.4038 82.2627 39.4038 82.2985 39.4038C82.2985 39.3694 82.2985 39.335 82.2985 39.2996C82.3333 39.2996 82.368 39.2996 82.4038 39.2996C82.4725 39.2233 82.4725 39.2233 82.5389 39.1228C82.5645 39.0859 82.59 39.0491 82.6164 39.0111C82.6429 38.972 82.6694 38.933 82.6967 38.8928C82.7234 38.8543 82.7501 38.8159 82.7776 38.7763C82.9299 38.5552 82.9299 38.5552 83.0356 38.3102C82.6677 38.3962 82.3361 38.5458 82.0024 38.717C81.2961 39.0709 80.586 39.3481 79.8242 39.56C79.7859 39.5712 79.7476 39.5823 79.7081 39.5938C78.4344 39.9537 76.8856 39.8757 75.6125 39.56C75.5657 39.5485 75.5188 39.5371 75.4705 39.5253C74.8501 39.3701 74.2559 39.1638 73.664 38.9247C73.5106 38.8636 73.3556 38.8068 73.2007 38.7496C72.9049 38.6381 72.6209 38.5073 72.3368 38.3694C72.1844 38.297 72.1844 38.297 71.98 38.3102Z" fill="#010101"/>
<path d="M22.4551 23C22.5868 23.0716 22.5868 23.0716 22.7184 23.1562C22.7184 23.1906 22.7184 23.225 22.7184 23.2604C22.7531 23.2604 22.7879 23.2604 22.8237 23.2604C22.903 23.3478 22.903 23.3478 22.9882 23.4622C23.0165 23.4996 23.0449 23.5371 23.0741 23.5757C23.1395 23.677 23.1395 23.677 23.1395 23.7811C23.1743 23.7811 23.209 23.7811 23.2448 23.7811C23.3242 23.8686 23.3242 23.8686 23.4093 23.9829C23.4377 24.0204 23.4661 24.0578 23.4953 24.0964C23.5607 24.1977 23.5607 24.1977 23.5607 24.3019C23.5954 24.3019 23.6302 24.3019 23.666 24.3019C23.666 24.3363 23.666 24.3706 23.666 24.406C23.7007 24.406 23.7355 24.406 23.7713 24.406C23.8507 24.4935 23.8507 24.4935 23.9358 24.6078C23.9642 24.6453 23.9925 24.6827 24.0218 24.7213C24.0872 24.8226 24.0872 24.8226 24.0872 24.9268C24.1219 24.9268 24.1566 24.9268 24.1924 24.9268C24.403 25.2086 24.403 25.2086 24.403 25.3434C24.4378 25.3434 24.4725 25.3434 24.5083 25.3434C24.5848 25.4339 24.5848 25.4339 24.6794 25.568C24.7349 25.6454 24.7349 25.6454 24.7915 25.7244C24.8128 25.7542 24.8341 25.784 24.8561 25.8147C25.0042 26.0196 25.1565 26.2215 25.3079 26.424C25.3996 26.5467 25.4912 26.6694 25.5825 26.7925C25.6372 26.8662 25.6922 26.9398 25.7475 27.0132C25.9297 27.2585 25.9297 27.2585 25.9297 27.3743C25.9645 27.3743 25.9992 27.3743 26.035 27.3743C26.0698 27.4774 26.1045 27.5806 26.1403 27.6868C26.1751 27.6868 26.2098 27.6868 26.2456 27.6868C26.3061 27.7584 26.3061 27.7584 26.3734 27.8602C26.4114 27.9171 26.4114 27.9171 26.4501 27.9751C26.4774 28.0168 26.5046 28.0584 26.5327 28.1014C26.561 28.144 26.5893 28.1867 26.6185 28.2307C26.6787 28.3216 26.7387 28.4126 26.7985 28.5036C26.8891 28.6415 26.9801 28.779 27.0713 28.9165C27.1298 29.0049 27.1883 29.0934 27.2467 29.1819C27.2735 29.2225 27.3004 29.2631 27.328 29.3049C28.5262 31.1299 30.013 33.4068 29.9999 35.6608C29.9997 35.7127 29.9995 35.7645 29.9994 35.8179C29.9926 36.2802 29.9294 36.7147 29.8255 37.1645C29.8129 37.221 29.8003 37.2776 29.7873 37.3358C29.751 37.4883 29.7106 37.6387 29.6676 37.7894C29.655 37.8364 29.6423 37.8834 29.6293 37.9318C29.4387 38.5697 29.0833 39.2928 28.6673 39.8204C28.6326 39.8204 28.5978 39.8204 28.562 39.8204C28.5468 39.8601 28.5316 39.8998 28.516 39.9408C28.4567 40.0807 28.4567 40.0807 28.3514 40.237C28.3167 40.237 28.282 40.237 28.2462 40.237C28.2266 40.2805 28.2266 40.2805 28.2067 40.3248C28.1288 40.4673 28.039 40.5846 27.9303 40.7056C27.8955 40.7056 27.8608 40.7056 27.825 40.7056C27.8141 40.7346 27.8033 40.7636 27.7921 40.7935C27.6893 40.9645 27.5648 41.0549 27.4038 41.1743C27.3691 41.1743 27.3343 41.1743 27.2985 41.1743C27.2985 41.2087 27.2985 41.2431 27.2985 41.2785C27.2638 41.2785 27.229 41.2785 27.1932 41.2785C27.1932 41.3128 27.1932 41.3472 27.1932 41.3826C27.0666 41.4766 26.9404 41.5638 26.8083 41.6495C26.7719 41.6739 26.7356 41.6982 26.6981 41.7233C26.663 41.7464 26.6279 41.7694 26.5917 41.7931C26.5595 41.8143 26.5272 41.8354 26.494 41.8572C26.4036 41.9034 26.4036 41.9034 26.2456 41.9034C26.2456 41.9377 26.2456 41.9721 26.2456 42.0075C25.7648 42.2475 25.2832 42.4581 24.7715 42.6259C24.7263 42.6408 24.6811 42.6557 24.6345 42.671C22.8073 43.2543 20.8519 43.0371 19.1385 42.2158C18.8451 42.0608 18.569 41.8826 18.2961 41.6951C18.2659 41.6747 18.2356 41.6543 18.2045 41.6333C17.8567 41.3979 17.8567 41.3979 17.717 41.2785C17.717 41.2441 17.717 41.2097 17.717 41.1743C17.6823 41.1743 17.6475 41.1743 17.6117 41.1743C17.6117 41.1399 17.6117 41.1056 17.6117 41.0702C17.5665 41.0508 17.5665 41.0508 17.5204 41.0311C17.3827 40.956 17.2881 40.868 17.1774 40.7577C17.1402 40.7212 17.103 40.6847 17.0647 40.6471C16.98 40.5494 16.98 40.5494 16.98 40.4453C16.9452 40.4453 16.9105 40.4453 16.8747 40.4453C16.8747 40.4109 16.8747 40.3765 16.8747 40.3411C16.84 40.3411 16.8052 40.3411 16.7694 40.3411C16.7013 40.2675 16.7013 40.2675 16.6242 40.1635C16.5958 40.1252 16.5674 40.087 16.5382 40.0475C16.5081 40.0059 16.478 39.9642 16.447 39.9213C16.4161 39.8787 16.3853 39.8361 16.3536 39.7922C15.3212 38.341 14.8102 36.5412 15.0646 34.7674C15.3089 33.3809 16.0266 32.0352 16.7474 30.839C16.8276 30.7071 16.8276 30.7071 16.8747 30.5509C16.9094 30.5509 16.9442 30.5509 16.98 30.5509C16.9882 30.5078 16.9882 30.5078 16.9966 30.4639C17.0768 30.1937 17.2539 29.957 17.4012 29.7177C17.42 29.6871 17.4388 29.6565 17.4582 29.6249C17.7371 29.1727 18.028 28.7281 18.3225 28.2857C18.3547 28.2368 18.3869 28.1879 18.42 28.1375C18.4503 28.0924 18.4805 28.0473 18.5116 28.0009C18.5521 27.9401 18.5521 27.9401 18.5934 27.8781C18.6169 27.8493 18.6404 27.8206 18.6647 27.7909C18.6994 27.7909 18.7341 27.7909 18.7699 27.7909C18.8047 27.6878 18.8394 27.5847 18.8752 27.4785C18.91 27.4785 18.9447 27.4785 18.9805 27.4785C18.9957 27.4387 19.0109 27.399 19.0266 27.3581C19.0858 27.2181 19.0858 27.2181 19.1911 27.0619C19.2259 27.0619 19.2606 27.0619 19.2964 27.0619C19.3099 27.0242 19.3233 26.9865 19.3372 26.9477C19.4054 26.793 19.4859 26.6789 19.5907 26.546C19.6276 26.4987 19.6646 26.4514 19.7027 26.4026C19.7412 26.3538 19.7798 26.305 19.8196 26.2547C19.8958 26.1577 19.972 26.0606 20.048 25.9634C20.0818 25.9206 20.1156 25.8778 20.1504 25.8337C20.2478 25.7079 20.2478 25.7079 20.3287 25.5618C20.3528 25.5241 20.377 25.4864 20.402 25.4475C20.4367 25.4475 20.4714 25.4475 20.5072 25.4475C20.5072 25.4132 20.5072 25.3788 20.5072 25.3434C20.542 25.3434 20.5767 25.3434 20.6125 25.3434C20.6277 25.3037 20.6429 25.2639 20.6586 25.223C20.7178 25.083 20.7178 25.083 20.8231 24.9268C20.8579 24.9268 20.8926 24.9268 20.9284 24.9268C20.948 24.8849 20.948 24.8849 20.9679 24.8422C21.0498 24.6882 21.1408 24.5468 21.2443 24.406C21.279 24.406 21.3138 24.406 21.3496 24.406C21.3626 24.3781 21.3756 24.3502 21.3891 24.3214C21.471 24.1674 21.562 24.026 21.6655 23.8853C21.7002 23.8853 21.7349 23.8853 21.7707 23.8853C21.7838 23.8574 21.7968 23.8294 21.8102 23.8007C21.8922 23.6467 21.9831 23.5053 22.0866 23.3645C22.1214 23.3645 22.1561 23.3645 22.1919 23.3645C22.1919 23.3302 22.1919 23.2958 22.1919 23.2604C22.2267 23.2604 22.2614 23.2604 22.2972 23.2604C22.3135 23.2271 22.3298 23.1938 22.3466 23.1595C22.4025 23.0521 22.4025 23.0521 22.4551 23ZM21.6128 31.3321C21.6063 31.4279 21.6034 31.524 21.602 31.62C21.6009 31.6815 21.5999 31.743 21.5988 31.8064C21.5979 31.8733 21.5971 31.9403 21.5961 32.0092C21.5951 32.0774 21.594 32.1455 21.5928 32.2157C21.5899 32.3971 21.5873 32.5785 21.5848 32.7599C21.5821 32.9449 21.5792 33.1299 21.5763 33.3149C21.5706 33.6781 21.5653 34.0413 21.5602 34.4045C21.0129 34.4303 21.0129 34.4303 20.4546 34.4566C20.4958 34.6517 20.4958 34.6517 20.5599 34.769C20.5946 34.769 20.6294 34.769 20.6652 34.769C20.6838 34.8238 20.6838 34.8238 20.7028 34.8797C20.7832 35.0577 20.8877 35.1895 21.0107 35.3419C21.2553 35.6494 21.4833 35.9655 21.7058 36.2891C21.8049 36.433 21.905 36.5764 22.0049 36.7199C22.0798 36.8275 22.1547 36.9352 22.2295 37.0429C22.2502 37.0726 22.2709 37.1024 22.2923 37.1331C22.3471 37.2126 22.4011 37.2927 22.4551 37.3728C22.4899 37.3728 22.5246 37.3728 22.5604 37.3728C22.6461 37.2561 22.7256 37.1394 22.8039 37.018C22.8518 36.9454 22.8998 36.8727 22.9479 36.8002C22.9716 36.7643 22.9953 36.7285 23.0197 36.6916C23.1382 36.5153 23.2655 36.3458 23.3925 36.1755C23.5387 35.9774 23.6813 35.7768 23.8239 35.5762C24.0664 35.2354 24.3116 34.8967 24.561 34.5607C24.2977 34.3004 23.8271 34.4239 23.4554 34.4045C23.438 33.3906 23.4207 32.3767 23.4028 31.3321C23.2206 31.272 23.0779 31.2732 22.8858 31.2731C22.8511 31.273 22.8163 31.273 22.7806 31.2729C22.7074 31.2729 22.6342 31.273 22.561 31.2732C22.4486 31.2735 22.3362 31.2732 22.2238 31.2729C22.1527 31.2729 22.0816 31.273 22.0105 31.2731C21.9132 31.2732 21.9132 31.2732 21.8139 31.2733C21.6706 31.2632 21.6706 31.2632 21.6128 31.3321ZM16.9273 38.206C16.98 38.3102 16.98 38.3102 16.98 38.3102L16.9273 38.206ZM16.98 38.3102C17.1244 38.6041 17.1244 38.6041 17.2959 38.883C17.3306 38.883 17.3654 38.883 17.4012 38.883C17.4012 38.9174 17.4012 38.9517 17.4012 38.9872C17.4359 38.9872 17.4706 38.9872 17.5064 38.9872C17.5195 39.017 17.5325 39.0468 17.5459 39.0775C17.6219 39.2137 17.7108 39.3073 17.8223 39.4168C17.8592 39.4536 17.8962 39.4903 17.9342 39.5282C18.0245 39.6234 18.0245 39.6234 18.1382 39.6121C18.1382 39.6464 18.1382 39.6808 18.1382 39.7162C18.1729 39.7162 18.2077 39.7162 18.2435 39.7162C18.2435 39.7506 18.2435 39.7849 18.2435 39.8204C18.4348 39.9746 18.4348 39.9746 18.6647 40.0287C18.6647 40.063 18.6647 40.0974 18.6647 40.1328C18.7946 40.2238 18.9241 40.3076 19.0595 40.3899C19.0961 40.413 19.1328 40.436 19.1705 40.4598C19.3853 40.5918 19.5947 40.694 19.8334 40.7764C19.9596 40.8209 20.0778 40.8784 20.198 40.9367C20.9581 41.282 21.7561 41.4014 22.5863 41.3962C22.6919 41.3956 22.7976 41.3962 22.9032 41.3969C24.0319 41.3947 24.9389 41.0417 25.9297 40.5494C25.9297 40.515 25.9297 40.4807 25.9297 40.4453C26.034 40.4109 26.1382 40.3765 26.2456 40.3411C26.2456 40.3067 26.2456 40.2724 26.2456 40.237C26.2836 40.2241 26.3216 40.2112 26.3608 40.1979C26.5234 40.1264 26.641 40.0431 26.7721 39.9245C26.7721 39.8901 26.7721 39.8558 26.7721 39.8204C26.8068 39.8204 26.8416 39.8204 26.8774 39.8204C26.8774 39.786 26.8774 39.7516 26.8774 39.7162C26.9121 39.7162 26.9469 39.7162 26.9827 39.7162C26.9827 39.6818 26.9827 39.6475 26.9827 39.6121C27.0174 39.6121 27.0522 39.6121 27.088 39.6121C27.088 39.5777 27.088 39.5433 27.088 39.5079C27.1227 39.5079 27.1574 39.5079 27.1932 39.5079C27.1932 39.4735 27.1932 39.4392 27.1932 39.4038C27.228 39.4038 27.2627 39.4038 27.2985 39.4038C27.2985 39.3694 27.2985 39.335 27.2985 39.2996C27.3333 39.2996 27.368 39.2996 27.4038 39.2996C27.4725 39.2233 27.4725 39.2233 27.5389 39.1228C27.5645 39.0859 27.59 39.0491 27.6164 39.0111C27.6429 38.972 27.6694 38.933 27.6967 38.8928C27.7234 38.8543 27.7501 38.8159 27.7776 38.7763C27.9299 38.5552 27.9299 38.5552 28.0356 38.3102C27.6677 38.3962 27.3361 38.5458 27.0024 38.717C26.2961 39.0709 25.586 39.3481 24.8242 39.56C24.7859 39.5712 24.7476 39.5823 24.7081 39.5938C23.4344 39.9537 21.8856 39.8757 20.6125 39.56C20.5657 39.5485 20.5188 39.5371 20.4705 39.5253C19.8501 39.3701 19.2559 39.1638 18.664 38.9247C18.5106 38.8636 18.3556 38.8068 18.2007 38.7496C17.9049 38.6381 17.6209 38.5073 17.3368 38.3694C17.1844 38.297 17.1844 38.297 16.98 38.3102Z" fill="#010101"/>
</svg>
