<svg width="100" height="100" viewBox="0 0 100 100" fill="none" xmlns="http://www.w3.org/2000/svg">
<g clip-path="url(#clip0_320_2081)">
<path d="M99.3001 -0.0250244C98.8001 -2.44137e-05 98.8001 -2.44137e-05 98.6001 0.199976C98.6001 1.91598 98.6001 3.63198 98.6001 5.39998C85.9281 5.39998 73.2561 5.39998 60.2001 5.39998C60.2001 4.93798 60.2001 4.47598 60.2001 3.99998C59.9714 2.99852 59.5392 2.11907 58.8001 1.39998C57.2919 0.479502 56.0012 0.359168 54.2626 0.349976C54.0714 0.345851 53.8803 0.341726 53.6833 0.337476C51.8991 0.327746 50.4065 0.626644 49.0884 1.88357C48.281 2.76974 48.1734 3.47465 48.1868 4.64216C48.1897 4.96715 48.1897 4.96715 48.1926 5.29871C48.1951 5.46413 48.1976 5.62954 48.2001 5.79998C47.9374 5.79788 47.6746 5.79579 47.4039 5.79363C46.4075 5.78626 45.4111 5.78175 44.4147 5.778C43.9875 5.77602 43.5603 5.77331 43.1331 5.7698C39.5846 5.74141 35.9458 5.73606 32.4876 6.63748C32.3171 6.68034 32.1467 6.7232 31.971 6.76736C27.7186 7.87309 23.9216 9.56236 20.4001 12.2C20.2276 12.3276 20.0552 12.4552 19.8775 12.5867C12.7409 18.1421 8.67751 25.7236 7.40012 34.6C7.13707 36.9226 7.16554 39.2553 7.15905 41.5893C7.15713 42.0291 7.15513 42.4689 7.15305 42.9086C7.14767 44.0956 7.14346 45.2826 7.13945 46.4696C7.13506 47.7127 7.12959 48.9558 7.12424 50.1988C7.11485 52.4162 7.10626 54.6336 7.09811 56.851C7.0907 58.8632 7.08285 60.8754 7.07458 62.8876C7.07403 63.0202 7.07349 63.1527 7.07292 63.2893C7.07019 63.9542 7.06744 64.6192 7.0647 65.2842C7.04198 70.7895 7.0206 76.2947 7.00012 81.8C6.89649 81.8448 6.79288 81.8896 6.68611 81.9357C6.21192 82.1415 5.73844 82.3488 5.26496 82.5562C5.10195 82.6267 4.93894 82.6971 4.77099 82.7697C2.89065 83.5963 1.41993 84.73 0.200116 86.4C-0.175097 87.5256 -0.24313 88.7956 0.204803 89.9086C2.1038 92.9564 6.14416 94.3188 9.40012 95.4C9.64394 95.4815 9.64394 95.4815 9.89269 95.5646C20.8262 99.1452 32.9887 100.019 44.4298 100.041C44.7387 100.041 44.7387 100.041 45.0538 100.042C46.1483 100.045 47.2428 100.047 48.3373 100.048C49.2199 100.049 50.1024 100.052 50.985 100.056C55.6241 100.08 60.2437 100.043 64.8736 99.7258C65.0528 99.7135 65.2321 99.7012 65.4168 99.6885C93.1324 97.7394 93.1324 97.7394 99.2001 90.7625C100.015 89.6168 100.144 88.7361 100.13 87.325C99.9075 86.0823 99.1343 85.3931 98.2001 84.6C98.0447 84.4657 97.8892 84.3313 97.729 84.1929C85.8823 75.391 64.237 76.1112 50.205 76.1609C49.4224 76.163 48.6397 76.1629 47.857 76.1628C47.0921 76.1629 46.3271 76.164 45.5622 76.1654C45.2026 76.1661 44.843 76.1665 44.4835 76.1666C43.9828 76.167 43.4821 76.1688 42.9815 76.1709C42.8391 76.1708 42.6967 76.1707 42.5501 76.1706C41.2285 76.1787 39.9165 76.2888 38.6001 76.4C38.6076 72.3995 38.6196 68.3991 38.6369 64.3986C38.6448 62.541 38.6513 60.6833 38.6543 58.8257C38.6569 57.2057 38.6623 55.5858 38.671 53.9658C38.6755 53.1088 38.6787 52.2518 38.6785 51.3948C38.6783 50.5865 38.682 49.7782 38.6883 48.9699C38.69 48.6748 38.6904 48.3798 38.6893 48.0847C38.6803 45.3739 39.1754 43.0854 41.0001 41C43.0245 39.0067 45.4688 38.45 48.2001 38.2C48.1908 38.3737 48.1816 38.5475 48.172 38.7265C48.113 40.6084 48.113 40.6084 48.5126 41.4875C49.9089 42.9554 50.9861 43.5853 53.0556 43.6601C53.4329 43.663 53.8103 43.6638 54.1876 43.6625C54.3752 43.6657 54.5627 43.6689 54.756 43.6722C56.2344 43.6733 57.5069 43.4467 58.7626 42.6375C59.4526 41.9474 60.0797 41.1931 60.2001 40.2C60.2001 39.738 60.2001 39.276 60.2001 38.8C72.8721 38.8 85.5441 38.8 98.6001 38.8C98.6001 40.45 98.6001 42.1 98.6001 43.8C98.7981 43.998 98.7981 43.998 99.0001 44.2C99.5251 44.125 99.5251 44.125 100 44C100.005 38.2926 100.008 32.5853 100.01 26.8779C100.012 24.2281 100.013 21.5783 100.015 18.9284C100.017 16.6198 100.018 14.3111 100.019 12.0024C100.019 10.7792 100.02 9.55595 100.021 8.3327C100.023 7.18279 100.023 6.03289 100.023 4.88298C100.023 4.45961 100.023 4.03623 100.024 3.61286C100.025 3.03752 100.025 2.46219 100.024 1.88684C100.025 1.717 100.025 1.54716 100.026 1.37217C100.022 0.0110892 100.022 0.0110892 99.3001 -0.0250244ZM58.4001 3.39998C58.6374 4.11183 58.6265 4.67895 58.6282 5.43075C58.6288 5.57743 58.6294 5.7241 58.63 5.87522C58.6317 6.36806 58.632 6.86089 58.6323 7.35374C58.6333 7.70655 58.6343 8.05937 58.6354 8.41219C58.638 9.3717 58.6393 10.3312 58.6402 11.2907C58.6407 11.8901 58.6416 12.4894 58.6425 13.0887C58.6452 14.9635 58.6471 16.8382 58.6479 18.713C58.6488 20.8779 58.6523 23.0428 58.6581 25.2076C58.6624 26.8805 58.6644 28.5534 58.6647 30.2263C58.6649 31.2257 58.6661 32.225 58.6697 33.2244C58.673 34.1645 58.6734 35.1046 58.6716 36.0448C58.6715 36.3897 58.6724 36.7346 58.6743 37.0795C58.6769 37.5507 58.6757 38.0218 58.6736 38.493C58.6739 38.7566 58.6742 39.0202 58.6745 39.2918C58.5761 40.2289 58.3055 40.9143 57.6126 41.5625C56.5475 42.1757 55.3297 42.044 54.1376 42.05C53.9336 42.0541 53.7295 42.0582 53.5193 42.0625C52.3279 42.0686 51.43 42.0258 50.4001 41.4C49.7742 40.5929 49.7137 39.8786 49.7212 38.8907C49.72 38.7404 49.7188 38.5902 49.7175 38.4353C49.7142 37.9326 49.7152 37.4301 49.7161 36.9274C49.7147 36.5666 49.7129 36.2059 49.711 35.8451C49.7066 34.8658 49.706 33.8865 49.7063 32.9071C49.7064 32.0895 49.7047 31.2719 49.703 30.4543C49.6991 28.5254 49.6986 26.5966 49.6999 24.6678C49.7012 22.6779 49.6967 20.6881 49.6893 18.6983C49.6831 16.9897 49.6808 15.2812 49.6816 13.5726C49.682 12.5522 49.6809 11.5319 49.676 10.5115C49.6716 9.55195 49.672 8.59253 49.676 7.63298C49.6767 7.28098 49.6757 6.92897 49.6728 6.57698C49.6692 6.09605 49.6717 5.61554 49.6758 5.13462C49.6733 4.99561 49.6708 4.8566 49.6682 4.71338C49.6884 3.60519 50.0428 3.15084 50.8001 2.39998C51.8362 1.87207 52.9493 1.93349 54.0876 1.93748C54.2708 1.93425 54.454 1.93103 54.6427 1.92771C56.1632 1.92662 57.3893 2.15589 58.4001 3.39998ZM48.2001 7.59998C48.2194 7.97457 48.2245 8.34989 48.2242 8.72498C48.2244 8.96926 48.2247 9.21355 48.225 9.46524C48.2243 9.73842 48.2236 10.0116 48.2228 10.2848C48.2228 10.5705 48.2228 10.8563 48.2229 11.142C48.223 11.9201 48.2218 12.6981 48.2204 13.4762C48.2191 14.2885 48.219 15.1007 48.2188 15.913C48.2182 17.4521 48.2165 18.9913 48.2145 20.5305C48.2123 22.2823 48.2112 24.0342 48.2102 25.786C48.2081 29.3907 48.2046 32.9953 48.2001 36.6C47.9827 36.6248 47.7654 36.6496 47.5414 36.6752C47.2521 36.7094 46.9628 36.7437 46.6736 36.7781C46.5308 36.7942 46.388 36.8104 46.2409 36.827C43.6128 37.1433 41.0934 38.3233 39.4001 40.4C37.2914 43.2236 37.0817 45.8539 37.0909 49.2564C37.0892 49.6844 37.0871 50.1123 37.0847 50.5402C37.0791 51.6958 37.0784 52.8514 37.0786 54.007C37.078 55.217 37.0729 56.427 37.0682 57.6369C37.0601 59.9254 37.056 62.2139 37.0534 64.5024C37.0502 67.109 37.0426 69.7155 37.0345 72.322C37.018 77.6813 37.0072 83.0406 37.0001 88.4C37.4 88.4085 37.8002 88.4081 38.2001 88.4C38.528 88.0721 38.4334 87.6933 38.4412 87.2409C38.4452 87.0367 38.4492 86.8326 38.4533 86.6222C38.4583 86.289 38.4583 86.289 38.4634 85.9492C38.4676 85.7231 38.4717 85.497 38.476 85.264C38.4891 84.5385 38.5009 83.813 38.5126 83.0875C38.5212 82.597 38.53 82.1065 38.5388 81.616C38.5603 80.4107 38.5806 79.2053 38.6001 78C40.9018 77.8281 43.1902 77.7674 45.4978 77.7664C45.8486 77.7657 46.1994 77.7651 46.5503 77.7644C47.2833 77.7632 48.0163 77.7628 48.7493 77.7629C49.4847 77.7629 50.2201 77.7616 50.9555 77.7588C55.7854 77.741 60.5824 77.8455 65.4001 78.2C65.6067 78.2151 65.8133 78.2303 66.0262 78.2459C67.1732 78.3325 68.3181 78.4348 69.4626 78.55C69.7123 78.5747 69.7123 78.5747 69.9671 78.5999C85.0684 79.759 85.0684 79.759 97.9126 86.5C98.4446 87.1756 98.616 87.7262 98.6001 88.6C98.1175 90.1442 96.7787 91.0267 95.4193 91.7767C85.4203 96.9719 72.4897 97.8293 61.4001 98.4C61.2397 98.4085 61.0794 98.4169 60.9141 98.4257C57.3808 98.6078 53.8499 98.6405 50.3126 98.6375C50.1707 98.6374 50.0287 98.6374 49.8825 98.6373C24.7442 99.1429 24.7442 99.1429 2.26652 90.1023C1.6565 89.4684 1.41478 88.8474 1.36262 87.9883C1.47018 86.8745 2.45153 86.0643 3.26027 85.3758C5.12066 84.0638 5.12066 84.0638 7.20012 83.4C7.20513 83.5372 7.21014 83.6745 7.2153 83.8159C7.23846 84.4356 7.26302 85.0553 7.28762 85.675C7.29548 85.891 7.30334 86.1071 7.31144 86.3297C7.31982 86.5359 7.3282 86.7422 7.33683 86.9547C7.34417 87.1453 7.3515 87.3359 7.35905 87.5323C7.40012 88 7.40012 88 7.60012 88.4C7.93012 88.334 8.26012 88.268 8.60012 88.2C8.60031 88.0901 8.60051 87.9803 8.60071 87.8671C8.61239 81.3418 8.62716 74.8165 8.64591 68.2912C8.64816 67.506 8.65039 66.7208 8.65261 65.9356C8.65327 65.7011 8.65327 65.7011 8.65394 65.4619C8.661 62.938 8.66598 60.4141 8.67018 57.8902C8.67455 55.2963 8.68118 52.7025 8.68986 50.1086C8.69513 48.5108 8.69869 46.9131 8.69999 45.3152C8.70117 44.0856 8.70551 42.8561 8.71097 41.6265C8.71271 41.1253 8.71347 40.6241 8.71312 40.1229C8.7114 36.5933 8.86618 33.1518 9.95012 29.7625C10.0016 29.5975 10.0531 29.4326 10.1062 29.2626C12.7187 21.1311 18.4211 14.5367 25.9759 10.5898C31.3464 7.87883 36.9929 7.3619 42.9159 7.3739C43.557 7.37499 44.1981 7.3739 44.8392 7.37263C45.2459 7.37276 45.6527 7.37302 46.0595 7.37341C46.2515 7.37301 46.4436 7.3726 46.6415 7.37219C46.9051 7.37313 46.9051 7.37313 47.1741 7.3741C47.3293 7.37426 47.4844 7.37442 47.6443 7.37458C48.0051 7.36129 48.0051 7.36129 48.2001 7.59998Z" fill="#131313"/>
<path d="M32.0623 15.0375C28.3843 16.3006 25.4357 18.1259 22.5998 20.8C22.4667 20.9202 22.3337 21.0403 22.1966 21.1641C17.9221 25.178 15.3976 31.2818 15.181 37.1036C15.1736 37.6601 15.1721 38.2162 15.173 38.7727C15.1726 38.9847 15.1721 39.1967 15.1716 39.415C15.1704 40.1216 15.1705 40.8282 15.1707 41.5347C15.1701 42.0427 15.1694 42.5507 15.1687 43.0587C15.1671 44.2926 15.1665 45.5266 15.1663 46.7605C15.1662 47.763 15.1658 48.7654 15.1652 49.7678C15.1634 52.6106 15.1625 55.4533 15.1627 58.2961C15.1627 58.4491 15.1627 58.6021 15.1627 58.7597C15.1627 58.9129 15.1627 59.0661 15.1627 59.224C15.1628 61.7119 15.1609 64.1998 15.1581 66.6878C15.1552 69.243 15.1538 71.7982 15.154 74.3535C15.1541 75.7879 15.1535 77.2223 15.1514 78.6566C15.1493 80.0036 15.1494 81.3505 15.1509 82.6974C15.1511 83.1929 15.1506 83.6885 15.1494 84.184C15.1479 84.8577 15.1488 85.5314 15.1503 86.2051C15.1493 86.4035 15.1483 86.6019 15.1472 86.8062C15.1481 86.9857 15.149 87.1651 15.15 87.35C15.1499 87.5834 15.1499 87.5834 15.1498 87.8216C15.1998 88.2 15.1998 88.2 15.5998 88.6C16.1123 88.55 16.1123 88.55 16.5998 88.4C16.8332 87.9331 16.8249 87.6626 16.8253 87.1425C16.8259 86.9614 16.8265 86.7803 16.8271 86.5937C16.8267 86.3934 16.8264 86.1932 16.826 85.9868C16.8267 85.6692 16.8267 85.6692 16.8273 85.3451C16.8285 84.6306 16.8283 83.9161 16.8281 83.2016C16.8287 82.6911 16.8294 82.1806 16.8302 81.6702C16.8318 80.568 16.8328 79.4657 16.8335 78.3635C16.8346 76.6184 16.838 74.8733 16.8418 73.1281C16.843 72.5307 16.8443 71.9333 16.8456 71.3359C16.8459 71.1866 16.8462 71.0373 16.8465 70.8834C16.8501 69.1823 16.8533 67.4811 16.8563 65.7799C16.8566 65.6244 16.8569 65.4688 16.8572 65.3086C16.8616 62.7956 16.8637 60.2825 16.8652 57.7695C16.8668 55.1863 16.8715 52.603 16.8788 50.0198C16.8832 48.4287 16.8852 46.8377 16.8839 45.2466C16.8832 44.0228 16.8867 42.7991 16.8916 41.5753C16.893 41.0763 16.8931 40.5773 16.8916 40.0782C16.8753 33.8416 18.3305 28.4555 22.3998 23.6C22.4875 23.495 22.5752 23.39 22.6656 23.2818C26.7055 18.5104 32.3636 16.1281 38.4873 15.5875C38.7306 15.571 38.7306 15.571 38.9789 15.5541C40.12 15.464 40.12 15.464 40.5498 15.1192C40.7998 14.8 40.7998 14.8 40.7623 14.375C39.9392 12.4757 33.5203 14.5581 32.0623 15.0375Z" fill="#333333"/>
<path d="M40.5686 29.8672C38.0862 30.9677 36.1102 32.2923 34.1998 34.2C34.0366 34.3608 33.8734 34.5217 33.7053 34.6875C30.714 37.807 28.965 42.2879 28.9731 46.5892C28.9726 46.7672 28.9722 46.9452 28.9717 47.1285C28.9704 47.7236 28.9706 48.3187 28.9708 48.9138C28.9702 49.3409 28.9695 49.7681 28.9687 50.1952C28.967 51.3542 28.9665 52.5132 28.9664 53.6722C28.9662 54.639 28.9654 55.6058 28.9647 56.5726C28.9631 58.8521 28.9626 61.1315 28.9627 63.411C28.9629 65.7657 28.9607 68.1203 28.9576 70.4749C28.955 72.495 28.9539 74.515 28.954 76.5351C28.9541 77.7424 28.9535 78.9496 28.9514 80.1569C28.9495 81.2909 28.9494 82.4248 28.9509 83.5589C28.9511 83.976 28.9506 84.3932 28.9494 84.8103C28.9479 85.3777 28.9488 85.945 28.9504 86.5123C28.9493 86.6792 28.9483 86.8461 28.9472 87.018C28.9542 88.1543 28.9542 88.1543 29.3998 88.6C30.3109 88.4889 30.3109 88.4889 30.5998 88.2C30.6205 87.6554 30.6281 87.1159 30.6274 86.5712C30.628 86.3984 30.6285 86.2256 30.6291 86.0475C30.6308 85.4637 30.6311 84.8798 30.6313 84.296C30.6323 83.8791 30.6333 83.4623 30.6344 83.0455C30.6367 82.145 30.6384 81.2446 30.6397 80.3441C30.6418 78.9184 30.6458 77.4928 30.6503 76.0671C30.6627 72.0119 30.6734 67.9567 30.6801 63.9014C30.6838 61.6639 30.6896 59.4263 30.6977 57.1887C30.7019 56.0049 30.705 54.8212 30.7054 53.6374C30.7059 52.5215 30.7091 51.4056 30.7143 50.2896C30.7157 49.8819 30.7162 49.4742 30.7155 49.0666C30.7078 43.6236 31.8865 38.9817 35.7998 35C35.9839 34.812 35.9839 34.812 36.1717 34.6203C37.4578 33.4056 39.0427 32.6192 40.5916 31.7903C41.5792 31.2495 41.5792 31.2495 41.7873 30.75C41.7914 30.6345 41.7956 30.519 41.7998 30.4C41.1279 29.78 41.1279 29.78 40.5686 29.8672Z" fill="#343434"/>
<path d="M3.88739 62.3625C3.39989 62.4 3.39989 62.4 3.19989 62.6C3.18125 62.907 3.1764 63.2148 3.17719 63.5223C3.1772 63.7185 3.17722 63.9147 3.17723 64.1168C3.17826 64.3301 3.1793 64.5435 3.18036 64.7633C3.18064 64.9805 3.18092 65.1977 3.18122 65.4216C3.18234 66.1185 3.18485 66.8155 3.18739 67.5125C3.18839 67.9837 3.18931 68.4549 3.19012 68.9262C3.19234 70.0841 3.19569 71.242 3.19989 72.4C3.77489 72.525 3.77489 72.525 4.39989 72.6C4.8916 72.1083 4.85034 71.9737 4.85165 71.298C4.85291 71.1112 4.85417 70.9243 4.85547 70.7318C4.85466 70.5295 4.85385 70.3272 4.85302 70.1187C4.8534 69.9116 4.85378 69.7045 4.85417 69.4911C4.85445 69.0526 4.85371 68.6141 4.85204 68.1757C4.8499 67.5028 4.85202 66.8299 4.85458 66.157C4.85431 65.7318 4.8538 65.3065 4.85302 64.8812C4.85382 64.6789 4.85463 64.4766 4.85547 64.2682C4.85421 64.0814 4.85295 63.8945 4.85165 63.7019C4.85133 63.537 4.85101 63.3722 4.85068 63.2023C4.76799 62.5474 4.52491 62.4091 3.88739 62.3625Z" fill="#3C3C3C"/>
<path d="M24.4001 63.8C23.4251 63.975 23.4251 63.975 23.2001 64.2C23.1795 64.4864 23.1724 64.7738 23.1711 65.0609C23.1692 65.3352 23.1692 65.3352 23.1672 65.6151C23.167 65.814 23.1668 66.013 23.1665 66.218C23.1659 66.4209 23.1652 66.6239 23.1645 66.833C23.1635 67.2633 23.163 67.6935 23.1631 68.1238C23.1626 68.784 23.159 69.4441 23.1552 70.1043C23.1546 70.5213 23.1542 70.9384 23.154 71.3555C23.1526 71.554 23.1512 71.7526 23.1497 71.9571C23.1503 72.1406 23.1509 72.3241 23.1516 72.5132C23.1513 72.6752 23.151 72.8371 23.1507 73.004C23.2001 73.4 23.2001 73.4 23.6001 73.8C24.1126 73.75 24.1126 73.75 24.6001 73.6C24.8312 73.1379 24.8266 72.8705 24.8292 72.3563C24.8305 72.1821 24.8317 72.0079 24.8331 71.8284C24.8333 71.6398 24.8335 71.4513 24.8337 71.257C24.8344 71.0637 24.8351 70.8703 24.8357 70.6712C24.8368 70.2618 24.8372 69.8524 24.8372 69.443C24.8376 68.8157 24.8413 68.1886 24.8451 67.5613C24.8456 67.1641 24.846 66.7668 24.8462 66.3695C24.8477 66.1814 24.8491 65.9932 24.8506 65.7994C24.85 65.6246 24.8494 65.4497 24.8487 65.2696C24.8491 65.0389 24.8491 65.0389 24.8496 64.8035C24.8001 64.4 24.8001 64.4 24.4001 63.8Z" fill="#393939"/>
<path d="M24.4001 45C23.4251 45.175 23.4251 45.175 23.2001 45.4C23.1795 45.6864 23.1724 45.9738 23.1711 46.2609C23.1692 46.5352 23.1692 46.5352 23.1672 46.8151C23.167 47.014 23.1668 47.213 23.1665 47.418C23.1659 47.6209 23.1652 47.8239 23.1645 48.033C23.1635 48.4633 23.163 48.8935 23.1631 49.3238C23.1626 49.984 23.159 50.6441 23.1552 51.3043C23.1546 51.7214 23.1542 52.1384 23.154 52.5555C23.1526 52.754 23.1512 52.9526 23.1497 53.1571C23.1503 53.3406 23.1509 53.5242 23.1516 53.7132C23.1513 53.8752 23.151 54.0371 23.1507 54.204C23.2001 54.6 23.2001 54.6 23.6001 55C24.1126 54.95 24.1126 54.95 24.6001 54.8C24.8312 54.3379 24.8266 54.0705 24.8292 53.5563C24.8305 53.3821 24.8317 53.2079 24.8331 53.0284C24.8333 52.8398 24.8335 52.6513 24.8337 52.457C24.8344 52.2637 24.8351 52.0704 24.8357 51.8712C24.8368 51.4618 24.8372 51.0524 24.8372 50.643C24.8376 50.0158 24.8413 49.3886 24.8451 48.7613C24.8456 48.3641 24.846 47.9668 24.8462 47.5695C24.8477 47.3814 24.8491 47.1933 24.8506 46.9994C24.85 46.8246 24.8494 46.6497 24.8487 46.4696C24.8491 46.2389 24.8491 46.2389 24.8496 46.0035C24.8001 45.6 24.8001 45.6 24.4001 45Z" fill="#393939"/>
<path d="M87.1996 76C86.9996 76.2 86.9996 76.2 86.9871 76.7125C86.9912 76.8734 86.9954 77.0343 86.9996 77.2C88.012 77.7566 89.0333 78.0729 90.1371 78.3875C91.4345 78.7646 92.7078 79.1592 93.9613 79.6672C94.4634 79.8193 94.8778 79.8376 95.3996 79.8C95.5996 79.6 95.5996 79.6 95.6621 79.125C95.5996 78.6 95.5996 78.6 95.2727 78.295C94.7192 77.9499 94.1884 77.7576 93.5684 77.5547C93.3309 77.4763 93.0935 77.3979 92.8488 77.3172C92.6016 77.2373 92.3543 77.1573 92.0996 77.075C91.7287 76.9528 91.7287 76.9528 91.3504 76.8281C88.6571 75.945 88.6571 75.945 87.1996 76Z" fill="#404040"/>
<path d="M78.3674 82.0309C78.0216 82.3437 78.0216 82.3437 78 83.1452C78.0071 83.3968 78.0143 83.6484 78.0216 83.9076C79.7721 84.778 81.5381 85.2728 83.4467 85.7648C85.69 86.3545 87.8916 86.9716 90.0592 87.7661C90.9272 88.0041 91.6438 88.0326 92.5461 87.9738C92.8919 87.6611 92.8919 87.6611 93 86.9182C92.8919 86.0971 92.8919 86.0971 92.3266 85.6202C91.3697 85.0804 90.4517 84.7796 89.3797 84.4623C88.9691 84.3398 88.5585 84.2172 88.1355 84.0909C87.708 83.9659 87.2805 83.8409 86.8401 83.7121C86.1988 83.521 86.1988 83.521 85.5446 83.3261C80.8877 81.9449 80.8877 81.9449 78.3674 82.0309Z" fill="#404040"/>
<path d="M50.3608 80.2253C50.1192 80.6241 50.1192 80.6241 50.3283 81.3981C50.4073 81.6371 50.4863 81.8761 50.5677 82.1223C52.4942 82.4543 54.328 82.4219 56.2974 82.346C58.6156 82.2677 60.9018 82.2276 63.2061 82.3673C64.106 82.3463 64.8006 82.1682 65.6482 81.8531C65.8898 81.4543 65.8898 81.4543 65.7803 80.7117C65.4414 79.9561 65.4414 79.9561 64.763 79.6612C63.6915 79.4185 62.7259 79.3936 61.6079 79.397C61.1794 79.3973 60.7509 79.3976 60.3094 79.3979C59.864 79.4008 59.4187 79.4036 58.9598 79.4065C58.2906 79.4073 58.2906 79.4073 57.608 79.4081C52.7506 79.4202 52.7506 79.4202 50.3608 80.2253Z" fill="#404040"/>
<path d="M3.88704 56.5625C3.39954 56.6 3.39954 56.6 3.19954 56.8C3.18223 57.0831 3.17813 57.3671 3.18001 57.6508C3.18065 57.8216 3.18129 57.9924 3.18196 58.1684C3.18363 58.3479 3.18531 58.5275 3.18704 58.7125C3.18794 58.8928 3.18884 59.0732 3.18977 59.259C3.19214 59.706 3.19543 60.153 3.19954 60.6C3.77454 60.725 3.77454 60.725 4.39954 60.8C4.92498 60.2746 4.85177 59.8916 4.85422 59.1758C4.85268 59.0188 4.85113 58.8618 4.84954 58.7C4.85108 58.543 4.85263 58.386 4.85422 58.2242C4.84876 56.6329 4.84876 56.6329 3.88704 56.5625Z" fill="#434343"/>
<path d="M82.2 75.2C82.266 75.53 82.332 75.86 82.4 76.2C83.5055 76.6212 84.414 76.8757 85.6 76.8C85.732 76.536 85.864 76.272 86 76C85.3748 75.1475 84.6768 75.0046 83.6836 74.8344C83.0957 74.7926 82.7052 74.8969 82.2 75.2Z" fill="#3D3D3D"/>
<path d="M51.0536 47.0047C51.1999 47.0031 51.3462 47.0016 51.497 47C51.7314 47.0028 51.7314 47.0028 51.9706 47.0056C52.1328 47.0054 52.2949 47.0051 52.4619 47.0049C52.8042 47.0052 53.1465 47.0071 53.4887 47.0105C54.0122 47.0153 54.5352 47.0139 55.0587 47.0117C55.3916 47.0128 55.7244 47.0142 56.0573 47.0159C56.2917 47.0152 56.2917 47.0152 56.5309 47.0145C57.1156 47.0228 57.6172 47.0428 58.1544 47.2533C58.6794 47.7627 58.5938 48.3082 58.5804 48.957C58.5805 49.0971 58.5806 49.2372 58.5807 49.3816C58.5802 49.8452 58.5742 50.3085 58.5683 50.7721C58.5668 51.0933 58.5658 51.4145 58.565 51.7357C58.5621 52.5815 58.5546 53.4272 58.5462 54.273C58.5384 55.1359 58.5349 55.9988 58.531 56.8617C58.5229 58.5551 58.5098 60.2485 58.4938 61.9418C58.6616 61.9361 58.8295 61.9303 59.0024 61.9244C59.2238 61.9199 59.4452 61.9155 59.6733 61.9109C59.8923 61.9051 60.1112 61.8994 60.3368 61.8934C61.0326 61.9464 61.3809 62.0631 61.9252 62.4369C62.1289 63.2195 61.8997 63.6993 61.4419 64.3613C61.2209 64.6526 60.9966 64.9421 60.7695 65.2299C60.6504 65.3851 60.5313 65.5404 60.4086 65.7003C60.0273 66.1959 59.6419 66.689 59.2563 67.1821C59.0026 67.5111 58.7492 67.8404 58.496 68.1698C55.1527 72.5078 55.1527 72.5078 54.2999 73C53.6635 72.9767 53.293 72.9506 52.8296 72.559C52.7388 72.4337 52.648 72.3084 52.5544 72.1793C52.3867 71.9549 52.3867 71.9549 52.2156 71.726C52.0856 71.5473 51.9556 71.3686 51.8217 71.1845C51.6573 70.9681 51.4922 70.7522 51.3265 70.5366C50.8552 69.9232 50.3875 69.3078 49.9211 68.6916C49.6303 68.3076 49.3391 67.9239 49.0479 67.5402C48.5904 66.9372 48.1345 66.3334 47.6796 65.729C47.4568 65.4339 47.2326 65.1396 47.0081 64.8455C46.8268 64.6053 46.8268 64.6053 46.6419 64.3601C46.4883 64.1581 46.4883 64.1581 46.3315 63.952C45.9704 63.3842 45.9209 63.0666 46.1027 62.4369C46.848 61.9272 47.4219 61.8864 48.3546 61.9109C48.6867 61.9176 48.6867 61.9176 49.0255 61.9244C49.1934 61.9301 49.3612 61.9359 49.5341 61.9418C49.5324 61.7654 49.5307 61.5891 49.529 61.4074C49.5135 59.7462 49.5021 58.0851 49.4946 56.424C49.4906 55.5699 49.4852 54.7159 49.4766 53.8619C49.4683 53.0379 49.4638 52.2139 49.4618 51.3898C49.4604 51.0753 49.4576 50.7607 49.4535 50.4462C49.448 50.0059 49.4472 49.5659 49.4476 49.1256C49.4434 48.9301 49.4434 48.9301 49.4392 48.7306C49.4443 48.1534 49.4809 47.8121 49.8735 47.3366C50.3209 47.0732 50.5209 47.0048 51.0536 47.0047ZM52.0123 49.2331C52.0086 49.6664 52.0048 50.0996 52.0009 50.546C51.9881 51.9749 51.9733 53.4038 51.9575 54.8326C51.948 55.6992 51.9392 56.5658 51.9319 57.4325C51.9249 58.2683 51.9161 59.1041 51.9059 59.9398C51.9024 60.2593 51.8995 60.5787 51.8973 60.8981C51.8941 61.3443 51.8886 61.7905 51.8825 62.2367C51.8821 62.3698 51.8817 62.5028 51.8812 62.64C51.8652 63.5546 51.8652 63.5546 51.4404 63.9224C51.0279 63.9907 51.0279 63.9907 50.5588 64.0255C50.3251 64.044 50.3251 64.044 50.0867 64.0629C49.9672 64.071 49.8478 64.0791 49.7248 64.0874C50.0195 64.823 50.4764 65.4363 50.9773 66.0764C51.0613 66.1851 51.1454 66.2938 51.2321 66.4059C51.4993 66.7511 51.7677 67.0955 52.0362 67.44C52.2182 67.6747 52.4001 67.9095 52.582 68.1443C53.0266 68.7181 53.4723 69.2913 53.9186 69.8641C54.5002 69.2505 55.0325 68.6148 55.548 67.959C55.6273 67.8583 55.7066 67.7577 55.7883 67.654C55.9545 67.4429 56.1204 67.2317 56.2862 67.0203C56.5408 66.696 56.7968 66.3725 57.0529 66.049C57.2146 65.8433 57.3762 65.6375 57.5377 65.4317C57.6145 65.3349 57.6913 65.2381 57.7705 65.1383C58.1776 64.656 58.1776 64.656 58.3032 64.0874C58.124 64.0782 58.124 64.0782 57.9413 64.0687C57.7855 64.0579 57.6297 64.047 57.4692 64.0358C57.3143 64.0263 57.1595 64.0167 57 64.0068C56.5875 63.9224 56.5875 63.9224 56.2062 63.4272C56.1656 62.9689 56.1469 62.5266 56.1454 62.068C56.1435 61.9295 56.1416 61.791 56.1396 61.6483C56.1337 61.1902 56.1305 60.7321 56.1273 60.2739C56.1237 59.9564 56.12 59.6389 56.1161 59.3213C56.1063 58.4854 56.0988 57.6494 56.0917 56.8134C56.0841 55.9604 56.0743 55.1075 56.0647 54.2545C56.0463 52.5807 56.0304 50.9069 56.0156 49.2331C54.6945 49.2331 53.3734 49.2331 52.0123 49.2331Z" fill="black"/>
<path d="M68.7377 53.0036C68.8749 53.0024 69.0121 53.0012 69.1534 53C69.3732 53.0021 69.3732 53.0021 69.5975 53.0043C69.7495 53.0041 69.9015 53.004 70.0581 53.0038C70.3789 53.004 70.6998 53.0054 71.0207 53.0081C71.5114 53.0117 72.0018 53.0107 72.4925 53.009C72.8046 53.0098 73.1167 53.0109 73.4287 53.0123C73.6485 53.0117 73.6485 53.0117 73.8727 53.0111C74.4209 53.0176 74.8911 53.0329 75.3948 53.1949C75.8869 53.5867 75.8067 54.0063 75.7941 54.5054C75.7942 54.6132 75.7943 54.7209 75.7944 54.832C75.7939 55.1886 75.7884 55.545 75.7828 55.9016C75.7814 56.1487 75.7804 56.3958 75.7797 56.6429C75.777 57.2935 75.7699 57.944 75.762 58.5946C75.7547 59.2584 75.7515 59.9222 75.7478 60.586C75.7402 61.8886 75.728 63.1911 75.7129 64.4937C75.8703 64.4893 76.0276 64.4849 76.1898 64.4803C76.3973 64.4769 76.6049 64.4734 76.8188 64.4699C77.024 64.4655 77.2293 64.461 77.4408 64.4565C78.0931 64.4972 78.4196 64.587 78.9299 64.8746C79.1209 65.4766 78.906 65.8456 78.4768 66.3548C78.2696 66.5789 78.0593 66.8016 77.8464 67.023C77.7347 67.1424 77.6231 67.2618 77.5081 67.3849C77.1506 67.7661 76.7893 68.1453 76.4278 68.5247C76.19 68.7778 75.9524 69.0311 75.715 69.2844C72.5807 72.6214 72.5807 72.6214 71.7812 73C71.1845 72.982 70.8372 72.962 70.4027 72.6607C70.3176 72.5644 70.2325 72.468 70.1448 72.3687C69.9876 72.1961 69.9876 72.1961 69.8271 72.02C69.7053 71.8825 69.5834 71.7451 69.4578 71.6034C69.3037 71.437 69.1489 71.2709 68.9936 71.1051C68.5518 70.6332 68.1133 70.1598 67.676 69.6859C67.4034 69.3905 67.1304 69.0953 66.8574 68.8002C66.4285 68.3363 66.0011 67.8718 65.5746 67.4069C65.3658 67.1799 65.1556 66.9535 64.9451 66.7273C64.7751 66.5425 64.7751 66.5425 64.6018 66.3539C64.4577 66.1985 64.4577 66.1985 64.3108 66.04C63.9723 65.6032 63.9259 65.3589 64.0963 64.8746C64.795 64.4825 65.333 64.4511 66.2074 64.4699C66.5188 64.475 66.5188 64.475 66.8364 64.4803C66.9938 64.4847 67.1511 64.4891 67.3132 64.4937C67.3116 64.358 67.3101 64.2224 67.3084 64.0826C67.2939 62.8048 67.2832 61.527 67.2762 60.2492C67.2725 59.5922 67.2674 58.9353 67.2593 58.2784C67.2515 57.6445 67.2473 57.0107 67.2454 56.3768C67.2441 56.1348 67.2415 55.8929 67.2377 55.6509C67.2325 55.3123 67.2317 54.9737 67.2321 54.6351C67.2282 54.4847 67.2282 54.4847 67.2243 54.3312C67.229 53.8872 67.2634 53.6247 67.6314 53.259C68.0509 53.0563 68.2384 53.0037 68.7377 53.0036ZM69.6366 54.7178C69.633 55.0511 69.6295 55.3843 69.6258 55.7277C69.6139 56.8268 69.6 57.926 69.5852 59.0251C69.5762 59.6917 69.568 60.3583 69.5612 61.025C69.5546 61.6679 69.5463 62.3108 69.5368 62.9537C69.5335 63.1994 69.5308 63.4451 69.5287 63.6909C69.5257 64.0341 69.5205 64.3773 69.5148 64.7205C69.5144 64.8229 69.5141 64.9253 69.5137 65.0307C69.4986 65.7343 69.4986 65.7343 69.1004 66.0172C68.7137 66.0698 68.7137 66.0698 68.2738 66.0966C68.0548 66.1108 68.0548 66.1108 67.8312 66.1253C67.7193 66.1315 67.6073 66.1378 67.492 66.1442C67.7683 66.71 68.1966 67.1818 68.6662 67.6741C68.745 67.7578 68.8238 67.8414 68.9051 67.9276C69.1556 68.1931 69.4072 68.4581 69.6589 68.723C69.8295 68.9036 70.0001 69.0842 70.1706 69.2649C70.5875 69.7062 71.0053 70.1471 71.4237 70.5878C71.9689 70.1157 72.468 69.6267 72.9512 69.1223C73.0256 69.0449 73.0999 68.9675 73.1765 68.8877C73.3323 68.7253 73.4879 68.5628 73.6433 68.4002C73.882 68.1507 74.122 67.9019 74.3621 67.6531C74.5137 67.4948 74.6652 67.3365 74.8166 67.1782C74.8886 67.1037 74.9606 67.0293 75.0348 66.9526C75.4165 66.5816 75.4165 66.5816 75.5342 66.1442C75.3663 66.137 75.3663 66.137 75.1949 66.1298C75.0489 66.1214 74.9028 66.1131 74.7523 66.1045C74.6072 66.0971 74.4621 66.0898 74.3125 66.0822C73.9258 66.0172 73.9258 66.0172 73.5683 65.6363C73.5302 65.2838 73.5127 64.9436 73.5114 64.5908C73.5096 64.4843 73.5078 64.3777 73.5059 64.2679C73.5004 63.9155 73.4974 63.5631 73.4943 63.2107C73.491 62.9664 73.4875 62.7222 73.4838 62.4779C73.4747 61.8349 73.4676 61.1918 73.4609 60.5488C73.4538 59.8926 73.4447 59.2365 73.4357 58.5804C73.4184 57.2929 73.4035 56.0053 73.3896 54.7178C72.1511 54.7178 70.9126 54.7178 69.6366 54.7178Z" fill="black"/>
</g>
<defs>
<clipPath id="clip0_320_2081">
<rect width="100" height="100" fill="white" transform="matrix(-1 0 0 1 100 0)"/>
</clipPath>
</defs>
</svg>
