<svg width="100" height="100" viewBox="0 0 100 100" fill="none" xmlns="http://www.w3.org/2000/svg">
<g clip-path="url(#clip0_318_2025)">
<path d="M8.0692 0.12089C8.28445 0.119238 8.49969 0.117585 8.72145 0.115883C9.07578 0.117662 9.07578 0.117662 9.43727 0.119477C9.68597 0.11845 9.93467 0.117424 10.1909 0.116366C10.8733 0.113692 11.5556 0.114731 12.238 0.116588C12.9517 0.11807 13.6654 0.116696 14.3791 0.115776C15.5777 0.114709 16.7763 0.116116 17.9749 0.118905C19.3611 0.122094 20.7473 0.121061 22.1336 0.117835C23.3233 0.115177 24.5129 0.1148 25.7025 0.116334C26.4133 0.117248 27.1241 0.117368 27.8348 0.115434C28.627 0.113429 29.4192 0.116207 30.2114 0.119477C30.4476 0.118291 30.6838 0.117105 30.9272 0.115883C31.1424 0.117535 31.3577 0.119188 31.5794 0.12089C31.8605 0.121221 31.8605 0.121221 32.1472 0.121559C32.7251 0.212205 32.8589 0.313341 33.2032 0.781232C33.2772 1.32489 33.2772 1.32489 33.2784 2.00023C33.2802 2.25721 33.2821 2.51419 33.284 2.77895C33.2831 3.06586 33.2821 3.35276 33.2811 3.63966C33.2822 3.94309 33.2835 4.24651 33.285 4.54993C33.2886 5.38592 33.2884 6.22187 33.2877 7.05786C33.2876 7.95854 33.2909 8.85921 33.2937 9.75988C33.2982 11.3211 33.3005 12.8823 33.3013 14.4435C33.3026 16.7008 33.3071 18.958 33.3123 21.2153C33.3208 24.8773 33.3267 28.5393 33.3309 32.2013C33.335 35.7592 33.3403 39.3171 33.3473 42.875C33.3477 43.0942 33.3481 43.3134 33.3486 43.5393C33.3507 44.6389 33.3529 45.7386 33.3551 46.8382C33.3733 55.9651 33.3873 65.0919 33.3985 74.2187C33.6749 74.3457 33.9516 74.4716 34.2286 74.5972C34.3827 74.6674 34.5368 74.7376 34.6955 74.81C36.3545 75.4939 38.0563 75.3367 39.6958 74.6734C40.9859 74.0522 42.1352 73.2602 43.2374 72.3511C44.8999 71.0192 46.8007 70.2819 48.9137 70.2514C49.1672 70.2441 49.4207 70.2368 49.6819 70.2293C51.9119 70.3371 54.0033 71.446 55.9937 72.3755C59.833 74.1639 63.1361 75.0214 67.273 73.5596C68.8094 72.9869 70.2071 72.1751 71.6099 71.3334C74.37 69.685 77.3133 69.1373 80.4688 69.9219C83.0136 70.6809 85.4128 71.8983 87.777 73.0896C87.917 73.1601 88.057 73.2306 88.2012 73.3033C88.466 73.4373 88.7302 73.5722 88.9939 73.7082C90.3122 74.3802 91.4839 74.8184 92.9688 74.6094C93.7957 74.2125 94.2385 73.7069 94.7877 72.998C95.1655 72.5492 95.3754 72.3025 95.9443 72.1443C96.8983 72.1171 97.6469 72.3015 98.4376 72.8515C99.3958 73.8038 100.021 74.5062 100.03 75.8978C100.032 76.0821 100.034 76.2663 100.035 76.4561C100.036 76.7589 100.036 76.7589 100.038 77.0677C100.04 77.387 100.04 77.387 100.043 77.7127C100.047 78.4185 100.051 79.1243 100.054 79.8302C100.055 80.1917 100.055 80.1917 100.057 80.5605C100.061 81.7047 100.065 82.8489 100.068 83.9931C100.071 85.3115 100.077 86.6297 100.088 87.9481C100.096 89.0918 100.099 90.2354 100.1 91.3791C100.102 91.8647 100.105 92.3502 100.109 92.8357C100.115 93.5159 100.116 94.1959 100.114 94.8762C100.119 95.176 100.119 95.176 100.124 95.4818C100.111 96.9336 99.7517 97.9007 98.721 98.937C97.7497 99.7875 96.9577 99.8332 95.7206 99.8303C95.5606 99.8307 95.4007 99.8311 95.2359 99.8316C94.6954 99.8327 94.1549 99.8324 93.6144 99.8321C93.2248 99.8326 92.8352 99.8332 92.4456 99.8339C91.3714 99.8354 90.2972 99.8358 89.2229 99.8359C88.0658 99.8363 86.9087 99.8378 85.7516 99.8391C83.0877 99.8419 80.4239 99.843 77.7601 99.8439C76.4441 99.8444 75.1282 99.8451 73.8123 99.8458C69.3089 99.8483 64.8056 99.8504 60.3023 99.8511C60.0195 99.8511 59.7368 99.8512 59.454 99.8512C59.1706 99.8512 58.8871 99.8513 58.6037 99.8513C58.0351 99.8514 57.4664 99.8515 56.8978 99.8516C56.6863 99.8516 56.6863 99.8516 56.4705 99.8517C51.8977 99.8524 47.3249 99.8555 42.752 99.86C37.919 99.8648 33.086 99.8675 28.2529 99.8677C27.7226 99.8678 27.1923 99.8678 26.6619 99.8679C26.466 99.8679 26.466 99.8679 26.2662 99.8679C24.2932 99.8681 22.3202 99.8699 20.3473 99.8726C18.1037 99.8756 15.8601 99.8766 13.6166 99.875C12.4713 99.8742 11.326 99.8744 10.1807 99.8771C9.13289 99.8796 8.08515 99.8794 7.03737 99.877C6.65765 99.8766 6.27793 99.8773 5.89822 99.879C5.38322 99.8811 4.86835 99.8797 4.35336 99.8773C4.13074 99.8795 4.13074 99.8795 3.90362 99.8818C2.81609 99.871 2.01232 99.6329 1.20554 98.8899C1.06807 98.7203 1.06807 98.7203 0.927828 98.5473C0.834169 98.4348 0.740511 98.3223 0.644014 98.2063C0.151482 97.5165 -0.048696 96.9983 -0.050824 96.1464C-0.0528997 95.8687 -0.0528997 95.8687 -0.0550172 95.5855C-0.0542914 95.2829 -0.0542914 95.2829 -0.053551 94.9742C-0.0545492 94.7607 -0.0555474 94.5472 -0.0565759 94.3273C-0.0592936 93.6206 -0.0591028 92.914 -0.0586531 92.2073C-0.0594121 91.7164 -0.0602587 91.2255 -0.0611893 90.7346C-0.0626476 89.7052 -0.0626163 88.6757 -0.0615618 87.6463C-0.0603827 86.4578 -0.0627852 85.2694 -0.0669464 84.081C-0.0708068 82.9361 -0.0713975 81.7913 -0.0707096 80.6465C-0.0708099 80.1601 -0.0718341 79.6737 -0.0737979 79.1873C-0.0762073 78.5071 -0.0748891 77.8269 -0.0726244 77.1466C-0.0741174 76.9457 -0.0756103 76.7447 -0.0771484 76.5377C-0.0672352 75.1905 0.137631 74.3492 1.03769 73.3032C1.97209 72.4992 2.8071 72.1237 4.03986 72.155C4.90737 72.3671 5.44156 73.0196 6.05478 73.6328C6.18369 73.6972 6.31259 73.7617 6.44541 73.8281C6.44518 73.6738 6.44496 73.5194 6.44473 73.3604C6.43163 64.2205 6.42157 55.0807 6.41548 45.9408C6.41475 44.8443 6.41399 43.7478 6.41322 42.6513C6.41307 42.433 6.41291 42.2147 6.41275 41.9898C6.4102 38.4513 6.40558 34.9128 6.4002 31.3742C6.39473 27.7456 6.39147 24.117 6.39028 20.4884C6.38947 18.2478 6.38692 16.0073 6.38217 13.7668C6.37909 12.2321 6.37814 10.6974 6.3789 9.16268C6.37928 8.27614 6.37868 7.38964 6.37556 6.50311C6.37272 5.69242 6.37255 4.88178 6.37457 4.07109C6.37482 3.77692 6.37406 3.48276 6.37223 3.18861C6.3699 2.79045 6.37149 2.39228 6.37331 1.99413C6.37308 1.77245 6.37286 1.55078 6.37263 1.32238C6.44541 0.781232 6.44541 0.781232 6.7135 0.417065C7.17106 0.0978077 7.5144 0.121544 8.0692 0.12089ZM8.98447 2.73436C8.98447 7.56834 8.98447 12.4023 8.98447 17.3828C11.4737 17.4316 11.4737 17.4316 13.9629 17.4762C14.2744 17.483 14.5858 17.49 14.8972 17.4972C15.0597 17.4995 15.2222 17.5017 15.3896 17.504C16.5571 17.5335 16.5571 17.5335 16.9923 17.9687C17.1018 18.9982 17.1018 18.9982 16.7422 19.4657C16.1596 19.9181 15.4351 19.8209 14.7256 19.8265C14.5617 19.83 14.3978 19.8335 14.2289 19.8371C13.7055 19.8477 13.1822 19.8543 12.6588 19.8608C12.3039 19.8673 11.949 19.874 11.5941 19.881C10.7242 19.8981 9.8545 19.9098 8.98447 19.9219C8.98447 21.0176 8.98447 22.1133 8.98447 23.2422C9.40064 23.2565 9.40064 23.2565 9.82523 23.2712C10.1879 23.2858 10.5505 23.3006 10.9132 23.3154C11.0962 23.3215 11.2793 23.3275 11.4678 23.3337C11.6428 23.3413 11.8178 23.3488 11.9981 23.3566C12.2405 23.3658 12.2405 23.3658 12.4878 23.3752C12.8907 23.4375 12.8907 23.4375 13.2813 23.8281C13.3424 24.5117 13.3424 24.5117 13.2813 25.1953C12.6804 25.5959 12.5125 25.6392 11.8264 25.6668C11.6609 25.6743 11.4953 25.6819 11.3248 25.6897C11.1527 25.6957 10.9806 25.7018 10.8033 25.708C10.629 25.7155 10.4546 25.7231 10.275 25.7309C9.84488 25.7493 9.41468 25.7655 8.98447 25.7812C8.98447 26.8769 8.98447 27.9726 8.98447 29.1015C9.51344 29.1088 10.0424 29.1161 10.5874 29.1237C11.0994 29.1327 11.6113 29.1427 12.1232 29.1528C12.4792 29.1593 12.8352 29.1648 13.1912 29.1692C13.7027 29.1758 14.2141 29.186 14.7256 29.1969C14.8849 29.1982 15.0442 29.1994 15.2084 29.2007C16.3198 29.2296 16.3198 29.2296 16.7422 29.5577C17.1227 30.0523 17.0565 30.4511 16.9923 31.0547C16.3964 31.6505 15.6977 31.5152 14.8972 31.5262C14.6445 31.5318 14.6445 31.5318 14.3866 31.5376C13.8473 31.5493 13.308 31.5584 12.7686 31.5674C12.4035 31.5748 12.0383 31.5824 11.6731 31.5903C10.7769 31.6094 9.88074 31.6249 8.98447 31.6406C8.98447 32.7363 8.98447 33.832 8.98447 34.9609C9.3761 34.9753 9.3761 34.9753 9.77564 34.9899C10.1182 35.0046 10.4608 35.0193 10.8033 35.0342C10.9754 35.0402 11.1475 35.0462 11.3248 35.0525C11.5731 35.0638 11.5731 35.0638 11.8264 35.0754C11.9788 35.0815 12.1312 35.0876 12.2882 35.094C12.6954 35.1562 12.6954 35.1562 13.2813 35.5469C13.2813 36.1269 13.2813 36.707 13.2813 37.3047C11.8634 37.3691 10.4454 37.4336 8.98447 37.5C8.98447 38.5957 8.98447 39.6914 8.98447 40.8203C9.51344 40.8276 10.0424 40.8349 10.5874 40.8424C11.0994 40.8514 11.6113 40.8615 12.1232 40.8716C12.4792 40.8781 12.8352 40.8835 13.1912 40.888C13.7027 40.8945 14.2141 40.9047 14.7256 40.9157C14.8849 40.9169 15.0442 40.9182 15.2084 40.9194C16.3198 40.9484 16.3198 40.9484 16.7422 41.2765C17.1227 41.7711 17.0565 42.1698 16.9923 42.7734C16.3964 43.3693 15.6977 43.2339 14.8972 43.2449C14.6445 43.2506 14.6445 43.2506 14.3866 43.2564C13.8473 43.2681 13.308 43.2771 12.7686 43.2861C12.4035 43.2936 12.0383 43.3012 11.6731 43.309C10.7769 43.3281 9.88074 43.3436 8.98447 43.3594C8.98447 44.4551 8.98447 45.5508 8.98447 46.6797C9.3761 46.694 9.3761 46.694 9.77564 46.7087C10.1182 46.7233 10.4608 46.7381 10.8033 46.7529C10.9754 46.759 11.1475 46.765 11.3248 46.7712C11.5731 46.7826 11.5731 46.7826 11.8264 46.7941C11.9788 46.8002 12.1312 46.8064 12.2882 46.8127C12.6954 46.875 12.6954 46.875 13.2813 47.2656C13.2813 47.8457 13.2813 48.4258 13.2813 49.0234C11.8634 49.0879 10.4454 49.1523 8.98447 49.2187C8.98447 50.3144 8.98447 51.4101 8.98447 52.539C9.48071 52.5509 9.97695 52.5627 10.4882 52.5749C10.9705 52.587 11.4527 52.5994 11.9349 52.6118C12.2692 52.6202 12.6036 52.6283 12.938 52.6362C13.4194 52.6475 13.9008 52.6599 14.3823 52.6726C14.531 52.6758 14.6798 52.6791 14.8331 52.6825C15.5733 52.703 16.2717 52.7547 16.9923 52.9297C17.0304 54.1122 17.0304 54.1122 16.9923 54.4922C16.3964 55.088 15.6977 54.9527 14.8972 54.9637C14.6445 54.9693 14.6445 54.9693 14.3866 54.9751C13.8473 54.9868 13.308 54.9959 12.7686 55.0049C12.4035 55.0123 12.0383 55.0199 11.6731 55.0278C10.7769 55.0469 9.88074 55.0624 8.98447 55.0781C8.98447 56.1738 8.98447 57.2695 8.98447 58.3984C9.22919 58.408 9.47391 58.4176 9.72605 58.4274C10.0485 58.4421 10.371 58.4568 10.6935 58.4717C10.8546 58.4777 11.0157 58.4837 11.1817 58.49C11.3378 58.4975 11.4939 58.5051 11.6548 58.5129C11.798 58.519 11.9411 58.5251 12.0887 58.5315C12.5488 58.6011 12.8779 58.7571 13.2813 58.9844C13.3004 60.186 13.3004 60.186 13.2813 60.5469C12.9654 60.8628 12.6063 60.7857 12.1697 60.804C11.9853 60.8122 11.8009 60.8203 11.6109 60.8288C11.4169 60.8364 11.2229 60.8441 11.023 60.852C10.8283 60.8605 10.6336 60.8689 10.4329 60.8776C9.95013 60.8984 9.4673 60.918 8.98447 60.9375C8.98447 62.0332 8.98447 63.1289 8.98447 64.2578C9.48071 64.2696 9.97695 64.2815 10.4882 64.2937C10.9705 64.3057 11.4527 64.3181 11.9349 64.3305C12.2692 64.339 12.6036 64.3471 12.938 64.3549C13.4194 64.3663 13.9008 64.3787 14.3823 64.3913C14.531 64.3946 14.6798 64.3978 14.8331 64.4012C15.5733 64.4217 16.2717 64.4734 16.9923 64.6484C17.0304 65.831 17.0304 65.831 16.9923 66.2109C16.3964 66.8068 15.6977 66.6714 14.8972 66.6824C14.6445 66.6881 14.6445 66.6881 14.3866 66.6939C13.8473 66.7056 13.308 66.7146 12.7686 66.7236C12.4035 66.7311 12.0383 66.7387 11.6731 66.7465C10.7769 66.7656 9.88074 66.7811 8.98447 66.7969C8.98447 67.957 8.98447 69.1172 8.98447 70.3125C10.4024 70.3769 11.8204 70.4414 13.2813 70.5078C13.2813 71.0879 13.2813 71.668 13.2813 72.2656C12.6804 72.6662 12.5125 72.7095 11.8264 72.7371C11.6609 72.7447 11.4953 72.7522 11.3248 72.76C11.0667 72.7691 11.0667 72.7691 10.8033 72.7783C10.629 72.7859 10.4546 72.7934 10.275 72.8012C9.84488 72.8196 9.41468 72.8358 8.98447 72.8515C8.98447 73.4961 8.98447 74.1406 8.98447 74.8047C12.0074 75.0035 13.9042 73.6176 16.1981 71.8155C18.9975 69.6531 20.768 69.1598 24.4142 68.9453C24.4142 47.0957 24.4142 25.2461 24.4142 2.73436C19.3224 2.73436 14.2306 2.73436 8.98447 2.73436ZM26.9532 2.73436C26.8908 11.2886 26.8425 19.8427 26.8136 28.3971C26.8102 29.407 26.8066 30.4169 26.803 31.4268C26.8023 31.6279 26.8016 31.829 26.8008 32.0361C26.7889 35.2916 26.7674 38.547 26.7423 41.8024C26.7167 45.1428 26.7015 48.4831 26.6959 51.8236C26.6922 53.8849 26.6803 55.9459 26.6581 58.0071C26.6437 59.4206 26.6393 60.8339 26.6429 62.2475C26.6446 63.0632 26.6419 63.8783 26.6273 64.6939C26.4239 67.7348 26.4239 67.7348 27.2207 70.5452C27.9376 71.2745 28.7284 71.5697 29.6876 71.875C30.171 72.165 30.171 72.165 30.6642 72.4609C30.6642 49.4512 30.6642 26.4414 30.6642 2.73436C29.4395 2.73436 28.2149 2.73436 26.9532 2.73436ZM17.2967 74.1653C14.6196 76.544 11.7232 77.3193 8.25825 77.1834C6.57155 77.051 5.23895 76.167 3.90634 75.1953C3.71298 75.0664 3.51962 74.9375 3.32041 74.8047C2.75558 75.3148 2.46379 75.616 2.34384 76.3672C2.32757 76.8929 2.32113 77.4133 2.32477 77.9388C2.32505 78.0895 2.32532 78.2401 2.32561 78.3953C2.3267 78.8748 2.32915 79.3544 2.33164 79.834C2.33262 80.1597 2.33351 80.4855 2.33431 80.8113C2.33646 81.6086 2.33983 82.4058 2.34384 83.2031C4.71219 84.027 6.87981 83.574 9.1279 82.5752C10.2246 82.0155 11.1818 81.3201 12.1583 80.5786C14.0442 79.1538 16.1586 77.9598 18.5548 77.7344C18.6912 77.7208 18.8277 77.7072 18.9683 77.6932C22.6286 77.5189 25.7441 79.5422 28.641 81.532C31.2824 83.3303 34.054 84.5924 37.3048 83.9844C39.2141 83.5182 40.7093 82.4738 42.3215 81.3957C45.0528 79.582 47.7919 78.7582 51.0743 79.2724C53.118 79.6984 54.9931 80.5861 56.9 81.4147C61.2944 83.3168 65.5523 83.9501 70.1173 82.2265C71.7555 81.5409 73.3428 80.7424 74.9093 79.9072C78.4221 78.056 82.0936 78.1638 85.8216 79.3053C87.1632 79.7792 88.4555 80.3476 89.75 80.9372C89.882 80.9972 90.0141 81.0573 90.1501 81.1192C90.8192 81.4242 91.4869 81.7317 92.1529 82.0433C93.9408 82.8733 95.6508 83.6437 97.6563 83.5937C97.6709 82.5896 97.6815 81.5855 97.6885 80.5813C97.6915 80.2401 97.6955 79.899 97.7005 79.5578C97.7077 79.0657 97.711 78.5737 97.7136 78.0815C97.7166 77.9305 97.7196 77.7795 97.7227 77.6239C97.723 76.606 97.5277 75.9109 97.0704 75C96.5064 75.2562 96.1013 75.538 95.6544 75.9643C94.4319 77.0214 93.2423 77.265 91.639 77.2148C89.5061 76.9877 87.676 76.0042 85.8031 75.0354C84.9508 74.5998 84.0898 74.1827 83.2276 73.7671C82.9771 73.6439 82.9771 73.6439 82.7214 73.5183C80.3015 72.3546 77.6413 71.5819 75.0001 72.4609C73.8385 72.9557 72.7527 73.5735 71.6664 74.214C67.8194 76.4738 63.6421 77.6057 59.2233 76.4941C57.7877 76.0743 56.434 75.4279 55.0782 74.8047C54.541 74.5615 54.0033 74.3191 53.4656 74.0769C53.1235 73.9223 52.7819 73.7667 52.4409 73.6098C52.2862 73.5391 52.1316 73.4684 51.9723 73.3955C51.8364 73.3328 51.7004 73.2702 51.5604 73.2056C50.1383 72.6244 48.3617 72.6058 46.9117 73.0957C45.8232 73.5879 44.9183 74.3532 43.981 75.0821C41.3708 77.0858 38.8565 77.992 35.547 77.7344C32.6652 77.231 30.3447 75.4283 28.0858 73.6829C24.3091 70.8071 20.7783 70.8152 17.2967 74.1653ZM13.4522 82.6782C9.90411 85.3588 6.75134 86.0222 2.34384 85.9375C2.34384 87.9355 2.34384 89.9336 2.34384 91.9922C5.00567 92.6576 7.25491 92.3142 9.69553 91.0293C10.6906 90.4161 11.6158 89.7131 12.5535 89.0166C13.7781 88.1197 14.976 87.4433 16.4063 86.914C16.5383 86.8629 16.6702 86.8118 16.8061 86.7592C19.4891 85.905 22.4493 86.654 24.8658 87.9028C26.0172 88.554 27.1133 89.2835 28.2168 90.012C29.1766 90.6374 30.1526 91.1983 31.1769 91.7114C31.3016 91.7743 31.4263 91.8373 31.5547 91.9021C33.643 92.9186 35.8839 93.1546 38.1227 92.4682C39.6187 91.897 40.9541 91.059 42.2814 90.1733C44.4058 88.7607 46.3456 87.8778 48.9381 87.8418C49.1518 87.8367 49.3656 87.8317 49.5858 87.8265C51.9672 87.9416 54.1201 88.9159 56.2745 89.8437C61.223 91.9647 65.6038 92.7313 70.7221 90.6862C72.1237 90.1026 73.4621 89.4384 74.7926 88.7085C77.8787 87.0392 81.4107 86.78 84.8048 87.7148C86.7386 88.3006 88.5772 89.128 90.4 89.9917C93.8923 91.9014 93.8923 91.9014 97.6563 92.1875C97.6563 90.1894 97.6563 88.1914 97.6563 86.1328C97.2052 86.0603 96.754 85.9878 96.2892 85.9131C93.3947 85.3877 90.8465 84.1224 88.2039 82.8787C84.8198 81.3055 81.1744 80.0622 77.4796 81.3286C76.3521 81.7886 75.292 82.4012 74.2217 82.9787C71.1339 84.6257 67.9038 85.5737 64.3922 85.6323C64.2374 85.6367 64.0826 85.6411 63.9232 85.6456C60.7938 85.6338 57.9081 84.4927 55.0782 83.2764C51.9812 81.955 49.4482 80.8776 46.0938 82.0312C45.0562 82.4604 44.142 82.9918 43.2374 83.6548C40.4058 85.6862 37.1813 86.9746 33.6633 86.409C30.8216 85.8394 28.4546 84.3715 26.0951 82.7498C21.6624 79.7444 17.8341 79.3504 13.4522 82.6782ZM12.8541 91.7847C9.58565 94.1778 6.34116 94.8489 2.34384 94.7265C2.35568 95.0035 2.37305 95.2801 2.39267 95.5566C2.40174 95.7107 2.4108 95.8648 2.42014 96.0235C2.58362 96.6565 2.8007 96.8674 3.32041 97.2656C3.86362 97.3422 4.32942 97.3707 4.87238 97.3639C5.10982 97.3656 5.10982 97.3656 5.35206 97.3674C5.88589 97.3702 6.41955 97.3675 6.95338 97.3648C7.33859 97.3657 7.72379 97.367 8.109 97.3685C9.17019 97.3718 10.2313 97.3701 11.2925 97.3677C12.4359 97.366 13.5793 97.3687 14.7227 97.3708C16.9637 97.3743 19.2046 97.3736 21.4456 97.3713C23.2663 97.3695 25.087 97.3693 26.9077 97.3702C27.0369 97.3702 27.1662 97.3703 27.2994 97.3703C27.824 97.3706 28.3487 97.3708 28.8734 97.3711C33.7975 97.3735 38.7217 97.3713 43.6458 97.3671C48.0226 97.3634 52.3995 97.3637 56.7763 97.3675C61.6913 97.3716 66.6063 97.3733 71.5213 97.3709C72.045 97.3706 72.5688 97.3704 73.0925 97.3702C73.3502 97.37 73.608 97.3699 73.8735 97.3698C75.6928 97.3691 77.512 97.3702 79.3313 97.3721C81.5473 97.3743 83.7632 97.3737 85.9792 97.3695C87.1106 97.3675 88.242 97.3667 89.3734 97.3692C90.4081 97.3716 91.4426 97.3703 92.4773 97.3661C92.8526 97.3653 93.228 97.3657 93.6034 97.3676C94.1116 97.37 94.6196 97.3676 95.1278 97.3639C95.2753 97.3657 95.4228 97.3676 95.5748 97.3695C96.2523 97.3597 96.6149 97.3153 97.16 96.8976C97.506 96.4227 97.5733 96.1386 97.6075 95.5566C97.6186 95.4005 97.6297 95.2444 97.6411 95.0836C97.6461 94.9658 97.6512 94.8479 97.6563 94.7265C97.4766 94.7097 97.2968 94.6928 97.1116 94.6754C96.8644 94.648 96.6171 94.6205 96.3624 94.5923C96.1222 94.5673 95.882 94.5424 95.6346 94.5167C93.3918 94.149 91.298 93.0665 89.2701 92.0898C85.5165 90.307 81.4558 88.6418 77.2912 90.1039C76.0716 90.6205 74.9142 91.2826 73.7475 91.9069C69.0629 94.3912 64.2017 94.9488 59.0966 93.5692C57.1989 92.9782 55.3859 92.1753 53.5692 91.3738C51.0115 90.2604 48.7643 89.7793 46.0732 90.7707C44.9379 91.2625 43.9378 91.9291 42.9147 92.6193C39.7362 94.7441 36.5602 95.6465 32.7241 95.0043C32.1368 94.8238 31.6084 94.603 31.0548 94.3359C30.9342 94.2782 30.8136 94.2205 30.6894 94.161C28.9082 93.2954 27.2454 92.2814 25.5947 91.1907C20.8789 88.0946 17.3214 88.3908 12.8541 91.7847Z" fill="black"/>
<path d="M52.5331 23.9255C52.6831 23.9236 52.833 23.9218 52.9875 23.9199C53.2277 23.9232 53.2277 23.9232 53.4727 23.9266C53.6388 23.9263 53.8049 23.926 53.9761 23.9257C54.3267 23.926 54.6774 23.9283 55.0281 23.9323C55.5644 23.938 56.1003 23.9364 56.6366 23.9338C56.9776 23.935 57.3187 23.9367 57.6597 23.9388C57.8999 23.9379 57.8999 23.9379 58.145 23.937C58.744 23.9469 59.2579 23.9706 59.8084 24.2197C60.3462 24.8225 60.2585 25.468 60.2447 26.2358C60.2449 26.4016 60.245 26.5674 60.2451 26.7382C60.2445 27.2868 60.2385 27.8351 60.2323 28.3837C60.2309 28.7638 60.2298 29.1439 60.229 29.5241C60.226 30.5249 60.2183 31.5257 60.2097 32.5266C60.2017 33.5477 60.1981 34.5689 60.1942 35.59C60.1858 37.5939 60.1725 39.5977 60.1561 41.6016C60.328 41.5948 60.5 41.588 60.6771 41.581C60.904 41.5757 61.1308 41.5704 61.3645 41.565C61.5889 41.5582 61.8132 41.5514 62.0443 41.5444C62.7572 41.607 63.1141 41.7451 63.6717 42.1875C63.8804 43.1136 63.6456 43.6814 63.1765 44.4647C62.9501 44.8095 62.7203 45.152 62.4876 45.4926C62.3656 45.6763 62.2436 45.86 62.1179 46.0493C61.7272 46.6358 61.3323 47.2192 60.9373 47.8028C60.6774 48.1922 60.4177 48.5818 60.1583 48.9716C56.7329 54.105 56.7329 54.105 55.8592 54.6875C55.2071 54.6599 54.8275 54.6291 54.3528 54.1656C54.2597 54.0174 54.1667 53.8691 54.0708 53.7163C53.899 53.4508 53.899 53.4508 53.7237 53.1799C53.5905 52.9684 53.4573 52.757 53.3201 52.5391C53.1517 52.2831 52.9825 52.0276 52.8128 51.7724C52.3299 51.0465 51.8507 50.3183 51.3728 49.5891C51.0749 49.1347 50.7766 48.6806 50.4782 48.2266C50.0095 47.513 49.5424 46.7985 49.0763 46.0833C48.8481 45.734 48.6184 45.3858 48.3883 45.0378C48.2026 44.7534 48.2026 44.7534 48.0131 44.4634C47.8557 44.2243 47.8557 44.2243 47.6952 43.9804C47.3252 43.3085 47.2745 42.9326 47.4607 42.1875C48.2243 41.5843 48.8123 41.536 49.7679 41.565C50.1081 41.5729 50.1081 41.5729 50.4553 41.581C50.6272 41.5878 50.7992 41.5946 50.9764 41.6016C50.9746 41.3929 50.9729 41.1842 50.9711 40.9692C50.9553 39.0034 50.9436 37.0377 50.9359 35.0719C50.9318 34.0613 50.9263 33.0507 50.9174 32.0401C50.9089 31.0649 50.9043 30.0899 50.9022 29.1147C50.9008 28.7425 50.898 28.3702 50.8938 27.998C50.8881 27.4771 50.8873 26.9563 50.8877 26.4353C50.8835 26.2039 50.8835 26.2039 50.8792 25.9679C50.8843 25.2848 50.9219 24.881 51.3241 24.3183C51.7825 24.0065 51.9874 23.9256 52.5331 23.9255ZM53.5154 26.5625C53.5116 27.0752 53.5077 27.5879 53.5037 28.1162C53.4907 29.8071 53.4755 31.4979 53.4593 33.1888C53.4495 34.2143 53.4405 35.2399 53.433 36.2654C53.4258 37.2545 53.4168 38.2435 53.4064 39.2325C53.4028 39.6105 53.3999 39.9885 53.3976 40.3665C53.3943 40.8946 53.3886 41.4225 53.3824 41.9505C53.382 42.108 53.3815 42.2655 53.3811 42.4278C53.3647 43.5102 53.3647 43.5102 52.9295 43.9453C52.5068 44.0262 52.5068 44.0262 52.0262 44.0674C51.7867 44.0893 51.7867 44.0893 51.5425 44.1117C51.4201 44.1212 51.2977 44.1308 51.1717 44.1407C51.4736 45.0112 51.9417 45.7369 52.4549 46.4943C52.5411 46.623 52.6272 46.7517 52.716 46.8842C52.9898 47.2927 53.2648 47.7003 53.5398 48.1079C53.7263 48.3857 53.9127 48.6636 54.0991 48.9414C54.5546 49.6205 55.0113 50.2987 55.4686 50.9766C56.0644 50.2504 56.6098 49.4982 57.1379 48.7221C57.2191 48.603 57.3004 48.484 57.3841 48.3613C57.5544 48.1114 57.7244 47.8614 57.8942 47.6113C58.1551 47.2275 58.4174 46.8447 58.6798 46.4619C58.8454 46.2184 59.011 45.9749 59.1764 45.7314C59.2552 45.6168 59.3339 45.5023 59.415 45.3843C59.8321 44.8135 59.8321 44.8135 59.9607 44.1407C59.7772 44.1297 59.7772 44.1297 59.59 44.1185C59.4303 44.1057 59.2707 44.0928 59.1062 44.0796C58.9476 44.0683 58.789 44.057 58.6256 44.0453C58.2029 43.9453 58.2029 43.9453 57.8123 43.3594C57.7706 42.8171 57.7515 42.2937 57.75 41.751C57.7481 41.5871 57.7461 41.4232 57.7441 41.2543C57.738 40.7121 57.7347 40.17 57.7314 39.6279C57.7278 39.2521 57.724 38.8764 57.72 38.5006C57.7099 37.5113 57.7022 36.5221 57.6949 35.5328C57.6871 34.5234 57.6771 33.514 57.6673 32.5047C57.6484 30.524 57.6322 28.5433 57.617 26.5625C56.2635 26.5625 54.91 26.5625 53.5154 26.5625Z" fill="black"/>
<path d="M75.806 65.9238C76.6816 65.7403 76.7222 65.6555 77.2099 64.9557C77.3458 64.7607 77.4818 64.5658 77.6219 64.3649C77.7903 64.1159 77.9581 63.8664 78.1254 63.6167C78.2281 63.4633 78.3309 63.31 78.4367 63.152C79.3084 61.8466 80.1699 60.5347 81.0307 59.2222C81.2931 58.8229 81.5555 58.4236 81.818 58.0244C82.3918 57.1516 82.9651 56.2785 83.538 55.4052C83.7508 55.0817 83.9653 54.7592 84.1801 54.437C84.1413 53.9204 84.059 53.5745 83.7757 53.1393C83.1919 52.7292 82.5825 52.8129 81.8974 52.8379C81.7603 52.8405 81.6232 52.8432 81.4819 52.8459C81.1443 52.8528 80.8067 52.8633 80.4691 52.8745C80.4711 52.5571 80.4711 52.5571 80.4731 52.2334C80.4849 50.2417 80.4937 48.25 80.4995 46.2584C80.5026 45.2343 80.5067 44.2104 80.5133 43.1864C80.5197 42.1986 80.5232 41.2108 80.5247 40.223C80.5258 39.8457 80.5279 39.4684 80.5311 39.0912C80.5353 38.5636 80.5359 38.0362 80.5357 37.5087C80.5378 37.3519 80.5399 37.1951 80.542 37.0336C80.5362 35.9878 80.5362 35.9878 80.2215 35.4926C79.8139 35.2562 79.5615 35.221 79.0909 35.2175C78.8533 35.2138 78.8533 35.2138 78.6109 35.21C78.4406 35.2105 78.2703 35.2111 78.0949 35.2117C77.8316 35.2102 77.8316 35.2102 77.563 35.2086C77.1919 35.2073 76.8209 35.2076 76.4499 35.2093C75.8814 35.2109 75.3133 35.2053 74.7448 35.1991C74.3844 35.1988 74.0241 35.1989 73.6637 35.1995C73.4934 35.1973 73.3231 35.1951 73.1477 35.1928C72.9893 35.1947 72.8309 35.1965 72.6677 35.1984C72.5285 35.1984 72.3893 35.1985 72.2459 35.1985C71.8754 35.2964 71.8754 35.2964 71.5371 35.5912C71.1831 36.2865 71.2125 36.9462 71.2229 37.7082C71.2228 37.9541 71.2228 37.9541 71.2227 38.205C71.2231 38.7461 71.2276 39.2871 71.2322 39.8282C71.2333 40.2037 71.2342 40.5792 71.2347 40.9547C71.237 41.9424 71.2427 42.93 71.2492 43.9177C71.2552 44.9257 71.2579 45.9338 71.2608 46.9419C71.2671 48.9195 71.2771 50.897 71.2894 52.8745C71.007 52.8643 71.007 52.8643 70.7188 52.8539C70.472 52.8486 70.2253 52.8433 69.9711 52.8379C69.7264 52.8311 69.4816 52.8243 69.2295 52.8173C68.5232 52.8772 68.2543 52.9498 67.7738 53.4604C67.6042 54.3439 67.7593 54.8898 68.2209 55.6318C68.435 55.9437 68.6525 56.2533 68.8725 56.561C69.1204 56.9197 69.3681 57.2785 69.6156 57.6375C69.755 57.838 69.8944 58.0385 70.038 58.2451C70.5798 59.0292 71.1064 59.8232 71.6328 60.6176C71.7293 60.7631 71.8258 60.9087 71.9252 61.0586C72.3152 61.6471 72.705 62.2356 73.0948 62.8242C73.3705 63.24 73.6467 63.6554 73.9231 64.0706C74.0064 64.1966 74.0897 64.3226 74.1756 64.4523C75.0202 65.7195 75.0202 65.7195 75.806 65.9238ZM75.7816 62.0542C74.7327 60.7754 73.8562 59.3606 72.974 57.9648C72.8206 57.7221 72.8206 57.7221 72.664 57.4744C72.2404 56.7985 71.8323 56.1324 71.4848 55.4136C71.6928 55.3781 71.6928 55.3781 71.9051 55.3419C72.0847 55.3091 72.2642 55.2764 72.4491 55.2427C72.6281 55.211 72.8071 55.1792 72.9916 55.1465C73.1389 55.1058 73.2861 55.065 73.4379 55.0229C73.7485 54.4016 73.6684 53.7288 73.6733 53.0461C73.6752 52.8822 73.6772 52.7183 73.6792 52.5495C73.6853 52.0063 73.6902 51.4631 73.695 50.9199C73.699 50.5438 73.7031 50.1678 73.7073 49.7918C73.7181 48.8009 73.7277 47.81 73.7371 46.8191C73.7469 45.8084 73.7578 44.7978 73.7686 43.7871C73.7896 41.8033 73.8094 39.8194 73.8285 37.8354C75.182 37.8354 76.5355 37.8354 77.9301 37.8354C77.9329 38.3343 77.9358 38.8331 77.9387 39.347C77.9485 40.9943 77.9615 42.6415 77.9761 44.2887C77.9848 45.2875 77.9925 46.2863 77.9977 47.2851C78.0028 48.2489 78.0107 49.2126 78.0205 50.1763C78.0238 50.5441 78.026 50.912 78.0273 51.2799C78.0291 51.7948 78.0346 52.3095 78.0409 52.8243C78.0407 52.9768 78.0404 53.1292 78.0401 53.2863C78.0511 53.9186 78.0846 54.3649 78.3987 54.921C78.9512 55.4463 79.5346 55.3651 80.2738 55.4136C80.009 56.1423 79.6779 56.7395 79.2385 57.3774C79.112 57.5619 78.9855 57.7465 78.8551 57.9366C78.7231 58.1272 78.591 58.3178 78.455 58.5142C78.2603 58.7978 78.2603 58.7978 78.0617 59.0871C77.694 59.6217 77.3243 60.1547 76.9535 60.687C76.8027 60.905 76.8027 60.905 76.6488 61.1274C76.43 61.44 76.2044 61.7478 75.9769 62.0542C75.9125 62.0542 75.848 62.0542 75.7816 62.0542Z" fill="black"/>
<path d="M18.6153 6.16455C19.576 6.72085 20.2148 7.51579 20.7759 8.45947C21.0948 9.83063 20.9985 11.0489 20.3624 12.31C19.661 13.41 18.609 13.9457 17.3824 14.2578C16.1587 14.4164 15.1231 14.0726 14.0621 13.4766C13.096 12.6573 12.5874 11.7515 12.4507 10.4851C12.3926 9.29426 12.5692 8.39153 13.2808 7.42187C14.7011 5.90739 16.635 5.27722 18.6153 6.16455ZM15.5513 8.70361C15.1261 9.34148 15.0386 9.78122 15.0386 10.5469C15.4111 11.2323 15.6541 11.467 16.3936 11.7187C17.1095 11.7187 17.4079 11.5687 17.9683 11.1328C18.4253 10.571 18.4253 10.571 18.3345 9.87549C18.1465 9.10999 18.0379 8.82971 17.3824 8.39844C16.6178 8.28922 16.203 8.27485 15.5513 8.70361Z" fill="black"/>
<path d="M54.1012 56.836C55.5808 57.9366 56.916 60.2016 57.3604 61.9629C57.5323 63.2235 57.1445 64.3051 56.3839 65.3076C55.4836 66.187 54.7852 66.4444 53.5396 66.5039C52.3907 66.4726 51.6266 66.2123 50.7809 65.4297C49.9803 64.4034 49.7079 63.5618 49.7265 62.2795C49.9985 60.3193 51.4819 58.5063 52.734 57.0313C53.2336 56.7815 53.5469 56.7798 54.1012 56.836ZM53.3199 60.5469C52.6772 61.2768 52.3398 61.8875 52.3556 62.8662C52.49 63.4897 52.49 63.4897 52.9293 63.8672C53.5354 63.9317 53.9367 63.9659 54.4674 63.6475C54.8066 63.0821 54.7857 62.7629 54.6871 62.1094C54.4146 61.5493 54.1111 61.0251 53.7105 60.5469C53.5816 60.5469 53.4527 60.5469 53.3199 60.5469Z" fill="black"/>
<path d="M66.7971 60.5469C68.2188 61.9436 69.5915 64.0497 69.7878 66.0522C69.6941 67.1954 69.3921 68.085 68.5915 68.927C67.5407 69.746 66.5675 69.8941 65.2529 69.828C64.0386 69.6241 63.3555 69.0953 62.6101 68.1396C62.0878 67.1787 61.927 66.312 62.1096 65.2344C62.7529 63.5966 63.7442 61.1845 65.3124 60.2753C65.9621 60.1231 66.2218 60.2189 66.7971 60.5469ZM65.8205 63.6719C64.9297 64.8813 64.9297 64.8813 64.6487 66.3086C64.8162 66.8204 64.8162 66.8204 65.2346 67.1875C65.9485 67.2806 66.2843 67.2721 66.8825 66.8579C67.24 66.4331 67.24 66.4331 67.1404 65.9485C66.9853 65.4048 66.7759 64.9776 66.4919 64.4897C66.403 64.3354 66.3142 64.1811 66.2226 64.0221C66.1544 63.9065 66.0861 63.7909 66.0158 63.6719C65.9514 63.6719 65.8869 63.6719 65.8205 63.6719Z" fill="black"/>
<path d="M42.1874 60.5469C42.6211 61.0072 42.9562 61.5179 43.2982 62.0483C43.3905 62.1842 43.4827 62.32 43.5778 62.46C44.5873 63.9763 45.208 65.3252 44.9217 67.1875C44.5133 68.196 43.8791 68.9323 42.9686 69.5313C41.8265 69.912 40.5229 69.8789 39.3797 69.5191C38.3743 68.7769 37.7031 68.0564 37.39 66.8213C37.0854 64.6331 38.6082 62.6377 39.8436 60.9375C40.5934 60.0882 41.1748 60.0537 42.1874 60.5469ZM41.0155 63.8672C40.4514 64.5407 40.0725 65.207 39.9413 66.0767C40.0062 66.5952 40.0062 66.5952 40.2586 66.9678C40.7969 67.2907 41.1816 67.2644 41.7967 67.1875C42.2036 67.0085 42.2036 67.0085 42.3827 66.6016C42.3613 65.4878 41.985 64.7822 41.4061 63.8672C41.2772 63.8672 41.1483 63.8672 41.0155 63.8672Z" fill="black"/>
</g>
<defs>
<clipPath id="clip0_318_2025">
<rect width="100" height="100" fill="white"/>
</clipPath>
</defs>
</svg>
