<svg width="100" height="100" viewBox="0 0 100 100" fill="none" xmlns="http://www.w3.org/2000/svg">
<g clip-path="url(#clip0_318_2002)">
<path d="M90.2209 -0.0846597C90.499 -0.0861954 90.499 -0.0861954 90.7826 -0.0877621C91.1737 -0.0890131 91.5647 -0.0887588 91.9557 -0.0870916C92.5507 -0.0854317 93.1453 -0.0910476 93.7403 -0.0972482C94.1215 -0.0975632 94.5027 -0.09745 94.884 -0.0968667C95.0602 -0.0990609 95.2364 -0.101255 95.418 -0.103516C96.7671 -0.0888156 97.8016 0.232331 98.8329 1.12231C98.92 1.23133 99.0072 1.34034 99.0969 1.45266C99.2321 1.61543 99.2321 1.61543 99.37 1.78149C99.9873 2.72709 100.057 3.5992 100.05 4.70495C100.051 4.8639 100.052 5.02284 100.053 5.1866C100.054 5.72143 100.053 6.25623 100.052 6.79106C100.053 7.17749 100.054 7.56392 100.055 7.95035C100.058 9.01403 100.057 10.0777 100.057 11.1414C100.057 12.2878 100.059 13.4343 100.061 14.5808C100.064 16.8276 100.065 19.0744 100.065 21.3212C100.066 23.1471 100.066 24.973 100.068 26.7989C100.068 27.3243 100.068 27.8498 100.069 28.3752C100.069 28.5711 100.069 28.5711 100.069 28.771C100.071 32.4456 100.073 36.1202 100.073 39.7947C100.073 39.9333 100.073 40.0718 100.073 40.2146C100.073 40.9169 100.073 41.6192 100.073 42.3215C100.073 42.5308 100.073 42.5308 100.073 42.7442C100.073 43.0263 100.073 43.3083 100.073 43.5904C100.072 47.9791 100.075 52.3678 100.081 56.7565C100.087 61.6863 100.09 66.6161 100.09 71.5459C100.09 72.0715 100.09 72.5971 100.09 73.1227C100.09 73.3169 100.09 73.3169 100.09 73.5149C100.09 75.4691 100.092 77.4233 100.095 79.3775C100.098 81.6001 100.099 83.8226 100.097 86.0452C100.095 87.1794 100.095 88.3137 100.099 89.448C100.102 90.4861 100.101 91.5242 100.098 92.5624C100.097 92.9381 100.098 93.3139 100.1 93.6897C100.103 94.2003 100.101 94.7107 100.097 95.2214C100.099 95.3674 100.101 95.5134 100.103 95.6639C100.087 96.895 99.6849 97.8976 98.8779 98.8327C98.7689 98.9198 98.6599 99.007 98.5476 99.0967C98.4391 99.1868 98.3306 99.277 98.2188 99.3698C97.448 99.873 96.758 100.049 95.8436 100.052C95.6396 100.054 95.4356 100.056 95.2255 100.057C95.0037 100.057 94.782 100.057 94.5536 100.057C94.2009 100.059 94.2009 100.059 93.8411 100.061C93.1979 100.064 92.5547 100.065 91.9115 100.065C91.5095 100.066 91.1075 100.066 90.7055 100.068C89.3027 100.071 87.8999 100.073 86.4971 100.072C85.1898 100.072 83.8826 100.076 82.5753 100.082C81.4522 100.088 80.3291 100.09 79.2059 100.089C78.5354 100.089 77.865 100.09 77.1945 100.095C76.4472 100.099 75.7001 100.097 74.9529 100.095C74.7308 100.097 74.5086 100.099 74.2798 100.102C74.0763 100.1 73.8729 100.098 73.6633 100.097C73.3984 100.097 73.3984 100.097 73.1281 100.097C72.5017 99.9681 72.2634 99.7177 71.8752 99.2188C71.8752 99.0254 71.8752 98.8321 71.8752 98.6328C70.6506 98.6328 69.426 98.6328 68.1643 98.6328C68.0354 98.9551 67.9065 99.2774 67.7737 99.6094C67.2628 100.12 67.048 100.049 66.3358 100.05C66.1122 100.052 65.8885 100.053 65.6581 100.054C65.4103 100.053 65.1624 100.053 64.9071 100.052C64.6428 100.053 64.3786 100.054 64.1143 100.055C63.3855 100.057 62.6568 100.057 61.9281 100.057C61.1431 100.057 60.3581 100.059 59.573 100.061C58.0339 100.064 56.4947 100.065 54.9555 100.065C53.7044 100.065 52.4533 100.066 51.2022 100.068C47.6565 100.071 44.1109 100.073 40.5652 100.072C40.3739 100.072 40.1826 100.072 39.9855 100.072C39.6982 100.072 39.6982 100.072 39.4051 100.072C36.3024 100.072 33.1996 100.076 30.0969 100.081C26.9125 100.087 23.7282 100.09 20.5438 100.089C18.7555 100.089 16.9671 100.09 15.1788 100.095C13.6557 100.098 12.1326 100.099 10.6094 100.096C9.83234 100.095 9.0553 100.095 8.27821 100.098C7.56637 100.101 6.85463 100.101 6.1428 100.098C5.76417 100.097 5.38554 100.1 5.00693 100.103C3.46139 100.09 2.36389 99.924 1.16753 98.8709C1.08042 98.7601 0.993308 98.6493 0.903556 98.5352C0.813422 98.4244 0.723288 98.3136 0.630423 98.1995C-0.0162512 97.2604 -0.0561378 96.475 -0.0519962 95.3474C-0.0533237 95.0835 -0.0533241 95.0835 -0.0546784 94.8142C-0.0571555 94.2234 -0.0568305 93.6326 -0.0565083 93.0417C-0.0576768 92.6185 -0.0590059 92.1953 -0.0604839 91.7722C-0.0639402 90.6212 -0.0648484 89.4702 -0.0650973 88.3192C-0.0653748 87.5997 -0.0662129 86.8802 -0.067249 86.1606C-0.0708656 83.649 -0.0724556 81.1374 -0.0721485 78.6258C-0.0719142 76.2873 -0.0760273 73.9488 -0.0822038 71.6104C-0.0873205 69.6013 -0.089409 67.5923 -0.0891597 65.5832C-0.0890603 64.384 -0.0901586 63.1848 -0.0943036 61.9855C-0.0981002 60.8561 -0.0981074 59.7268 -0.0952751 58.5974C-0.0948684 58.1843 -0.0957768 57.7712 -0.0981481 57.3581C-0.119016 53.4686 0.526484 50.6117 3.28011 47.6937C4.83464 46.1501 6.69872 45.4868 8.89916 45.4102C10.9556 45.4847 12.4987 46.1755 14.0627 47.461C15.4828 48.505 16.6944 49.2019 18.5046 48.9319C19.6169 48.6702 20.424 48.1487 21.2527 47.3755C22.9246 45.839 24.8794 45.4418 27.0815 45.4666C29.1011 45.594 30.8638 46.524 32.3367 47.8882C33.3236 48.7644 34.4174 49.0892 35.7302 49.0357C37.1678 48.8303 38.3071 48.011 39.3557 47.0459C40.7992 45.7396 42.7372 45.4334 44.6131 45.4544C46.4041 45.5911 47.8218 46.1462 49.1847 47.3023C50.4126 48.3252 51.6796 49.1334 53.3205 49.0235C54.8462 48.8272 55.7744 48.0889 56.9148 47.1009C58.7114 45.6095 60.8132 45.3353 63.0862 45.5078C64.7077 45.7827 65.9248 46.5685 67.1923 47.5815C68.3568 48.5066 69.4828 49.1161 71.0085 49.0113C72.2956 48.799 73.2361 48.2583 74.1824 47.3755C75.8543 45.839 77.8091 45.4418 80.0112 45.4666C81.8344 45.5817 83.6588 46.3539 84.9612 47.6563C84.9628 47.5161 84.9643 47.3759 84.966 47.2315C84.9812 45.9095 84.9982 44.5876 85.0173 43.2657C85.0271 42.5862 85.0361 41.9066 85.0436 41.227C85.0522 40.4454 85.0638 39.664 85.0756 38.8825C85.0779 38.6387 85.0801 38.395 85.0824 38.1438C85.0863 37.9171 85.0902 37.6903 85.0942 37.4567C85.0968 37.2572 85.0994 37.0577 85.1021 36.8522C85.1599 36.2954 85.2057 35.9912 85.5471 35.5469C85.9338 35.418 86.3205 35.2891 86.719 35.1563C86.719 33.9317 86.719 32.7071 86.719 31.4453C86.3967 31.3809 86.0745 31.3164 85.7424 31.25C85.1871 30.5652 85.0831 30.0257 85.0821 29.1581C85.0804 28.9355 85.0788 28.713 85.0771 28.4836C85.0789 28.12 85.0789 28.12 85.0807 27.749C85.0791 27.364 85.0791 27.364 85.0776 26.9711C85.0749 26.2681 85.0759 25.5652 85.0778 24.8622C85.0793 24.1252 85.0779 23.3882 85.077 22.6513C85.0759 21.4131 85.0773 20.175 85.0801 18.9369C85.0833 17.508 85.0823 16.0792 85.079 14.6504C85.0764 13.4217 85.076 12.1931 85.0775 10.9644C85.0784 10.2315 85.0786 9.49855 85.0766 8.76558C85.0746 7.94743 85.0774 7.12936 85.0807 6.3112C85.0795 6.06998 85.0783 5.82875 85.0771 5.58021C85.0892 3.93715 85.2451 2.57679 86.3894 1.30618C86.4974 1.18206 86.6054 1.05793 86.7167 0.93005C87.8098 -0.0272019 88.835 -0.0891483 90.2209 -0.0846597Z" fill="#010201"/>
<path d="M11.5237 63.2812C12.0292 63.666 12.5177 64.0668 13.0061 64.4729C14.7227 65.8251 16.7943 66.2663 18.9456 66.0156C20.4478 65.6225 21.6559 65.0038 22.8389 64.006C24.1371 62.9311 25.2633 62.4135 26.958 62.4336C28.4865 62.6081 29.5488 63.4953 30.6361 64.5096C32.3489 65.876 34.3982 66.2194 36.5237 66.0156C37.9243 65.6489 39.133 65.0881 40.2522 64.1708C40.6744 63.8272 41.1133 63.5234 41.5652 63.2202C41.7075 63.1243 41.8497 63.0284 41.9963 62.9295C42.9674 62.3415 44.0194 62.3745 45.1175 62.5C46.3864 62.9205 47.3802 63.6923 48.408 64.5233C50.0088 65.7435 51.9127 66.2353 53.9065 66.0156C55.7991 65.6437 57.0958 64.8462 58.594 63.6719C59.9764 62.7365 61.0005 62.3295 62.6956 62.5C63.991 62.8447 64.9217 63.629 65.935 64.4729C67.673 65.8397 69.6971 66.2527 71.8753 66.0156C73.2759 65.646 74.4837 65.0888 75.6038 64.1708C76.026 63.8272 76.4648 63.5234 76.9168 63.2202C77.059 63.1243 77.2013 63.0284 77.3479 62.9295C78.3191 62.3414 79.3709 62.3746 80.469 62.5C81.7024 62.9033 82.6576 63.603 83.578 64.5027C84.109 64.9685 84.109 64.9685 85.3519 65.625C85.3519 72.0058 85.3519 78.3867 85.3519 84.9609C84.8362 84.5742 84.3206 84.1875 83.7894 83.789C83.2134 83.467 83.2134 83.467 82.6663 83.2397C82.4901 83.1619 82.3138 83.0841 82.1323 83.004C80.4804 82.3602 78.2986 82.3127 76.636 82.959C75.7449 83.3845 74.9579 83.8984 74.1893 84.5192C73.9623 84.7016 73.9623 84.7016 73.7308 84.8877C73.5223 85.0606 73.5223 85.0606 73.3096 85.2371C72.054 86.0868 70.6053 86.1339 69.1409 85.9375C68.1185 85.5268 67.3122 84.8918 66.5042 84.1553C64.8174 82.6251 62.5238 82.4885 60.3624 82.583C58.4651 82.7445 57.1062 84.0292 55.7254 85.2173C54.4932 86.1164 53.0238 86.0791 51.5628 85.9375C50.4369 85.6236 49.675 84.8893 48.8292 84.1164C47.1181 82.6855 44.9277 82.4303 42.7693 82.5724C41 82.7777 39.6812 83.7898 38.3929 84.9441C37.0449 86.0381 35.8571 86.0817 34.18 85.9375C32.9341 85.7221 32.234 85.0272 31.3357 84.1804C29.4585 82.6371 27.1412 82.3923 24.805 82.6172C23.4498 82.9508 22.3392 83.6473 21.2596 84.5192C21.1083 84.6408 20.957 84.7624 20.8011 84.8877C20.5926 85.0606 20.5926 85.0606 20.3799 85.2371C19.1243 86.0868 17.6756 86.1339 16.2112 85.9375C15.1972 85.5302 14.4007 84.9107 13.6111 84.1675C11.9721 82.7262 9.90626 82.4315 7.80441 82.5363C6.0983 82.7148 4.97606 83.3896 3.67461 84.4749C3.32061 84.7656 3.32061 84.7656 2.92999 84.9609C2.8847 82.4635 2.85001 79.9662 2.82879 77.4685C2.8186 76.3086 2.80479 75.149 2.78264 73.9893C2.7614 72.8698 2.74974 71.7506 2.74468 70.6309C2.74107 70.204 2.73403 69.7772 2.72348 69.3505C2.64399 66.0017 2.64399 66.0017 3.34518 65.0781C3.84688 64.7248 4.32077 64.4981 4.88311 64.2578C5.19903 64.0181 5.50934 63.7707 5.81085 63.5132C7.57765 62.138 9.62798 62.1146 11.5237 63.2812Z" fill="white"/>
<path d="M10.8284 48.8037C11.2229 49.046 11.5637 49.3068 11.914 49.6094C13.9661 51.3221 15.8383 52.1875 18.5318 52.0455C20.4963 51.8651 21.8864 50.9161 23.3261 49.6262C24.5307 48.6486 25.5264 48.5168 27.0424 48.552C28.5533 48.7285 29.6007 49.4855 30.6915 50.4906C32.418 51.8725 34.3821 52.1579 36.5234 51.9531C38.0598 51.6169 39.2394 51.0182 40.4716 50.0511C40.7046 49.8687 40.7046 49.8687 40.9424 49.6826C41.0859 49.5673 41.2294 49.452 41.3772 49.3332C42.6117 48.422 43.8159 48.528 45.3125 48.6328C46.4638 48.9398 47.2186 49.6431 48.1193 50.3899C50.1043 51.9029 52.1207 52.2064 54.573 51.8929C56.317 51.5003 57.5372 50.5751 58.8646 49.4187C60.1489 48.4242 61.5189 48.4938 63.0859 48.6328C64.0936 48.8986 64.7895 49.5247 65.5762 50.1831C67.2962 51.5838 68.935 52.1189 71.1555 52.0348C72.7894 51.8494 74.1307 51.3568 75.4005 50.3105C75.8281 49.9618 76.2736 49.6578 76.7334 49.353C76.8779 49.2571 77.0224 49.1612 77.1713 49.0624C78.2341 48.3855 79.4412 48.5187 80.664 48.6328C81.8239 48.995 82.7548 49.6407 83.6204 50.483C84.1464 50.9141 84.7611 51.2251 85.3515 51.5625C85.3515 55.043 85.3515 58.5235 85.3515 62.1094C84.5703 61.7188 84.5703 61.7188 84.1308 61.3526C82.291 59.9308 80.2243 59.5266 77.9297 59.7656C76.4203 60.1828 75.22 60.9277 74.0234 61.9141C72.7594 62.8951 71.6831 63.3938 70.0485 63.3545C68.7644 63.1727 67.7481 62.4963 66.8213 61.6211C65.2288 60.1357 63.0901 59.6881 60.9756 59.7115C59.4442 59.8444 58.2073 60.4532 57.0259 61.409C56.6056 61.7469 56.1719 62.0517 55.7251 62.3535C55.5874 62.4472 55.4496 62.5408 55.3078 62.6373C54.2018 63.2965 53.2219 63.4572 51.9531 63.2813C50.6107 62.8338 49.5992 62.0012 48.526 61.1069C46.8589 59.838 45.0095 59.6277 42.9687 59.7656C41.2041 60.0723 39.666 60.9582 38.3423 62.146C37.2363 63.1237 36.1608 63.3972 34.7061 63.3476C33.234 63.162 32.253 62.2233 31.1424 61.3083C29.3277 59.9017 27.2606 59.5301 25 59.7656C23.6648 60.1347 22.558 60.7434 21.4866 61.6104C19.9613 62.7893 18.5524 63.522 16.6015 63.2813C15.5392 62.925 14.6957 62.3809 13.8794 61.6211C12.7744 60.5946 11.2839 59.8586 9.76561 59.7656C9.51031 59.7475 9.51031 59.7475 9.24986 59.729C6.9163 59.6333 5.36022 60.381 3.5385 61.7951C3.12498 62.1094 3.12498 62.1094 2.92967 62.1094C2.91508 61.0604 2.9045 60.0114 2.89749 58.9623C2.89456 58.6062 2.89057 58.25 2.88547 57.894C2.84432 54.9474 2.97792 52.389 5.12007 50.1297C6.7098 48.6643 8.70097 48.0413 10.8284 48.8037Z" fill="white"/>
<path d="M10.6766 85.5301C11.5222 85.9805 12.2051 86.5693 12.9112 87.2093C14.8193 88.7082 17.0011 88.8986 19.3359 88.6719C20.8662 88.3068 22.0173 87.5197 23.1926 86.4975C24.5736 85.3534 25.7905 85.227 27.539 85.3515C28.6237 85.5343 29.3123 86.0891 30.1391 86.792C32.1657 88.489 33.9136 88.9207 36.5096 88.7186C38.2827 88.5137 39.4914 87.6442 40.8203 86.5234C42.2777 85.4147 43.3031 85.2352 45.1172 85.3515C46.259 85.5249 47.042 86.1998 47.9248 86.9018C49.9747 88.5182 51.6922 88.9215 54.2723 88.723C56.067 88.502 57.3654 87.5207 58.6777 86.3449C60.0654 85.2187 61.3559 85.177 63.0859 85.3515C64.2094 85.658 64.9516 86.3864 65.7905 87.1589C67.6957 88.7045 69.9068 88.9051 72.2656 88.6719C73.8963 88.2705 75.0985 87.3878 76.3672 86.3281C77.7214 85.3392 78.8155 85.2437 80.4687 85.3515C81.7863 85.5664 82.6727 86.4142 83.6502 87.2741C84.2497 87.7808 84.2497 87.7808 85.3515 88.2812C85.3515 91.1816 85.3515 94.082 85.3515 97.0703C84.4583 97.0753 83.565 97.0804 82.6446 97.0855C82.0785 97.0905 81.5124 97.0956 80.9463 97.1016C80.0479 97.111 79.1495 97.1196 78.2511 97.1232C77.5266 97.1262 76.8023 97.1329 76.0779 97.1422C75.8017 97.1451 75.5254 97.1467 75.2491 97.1468C74.8619 97.1473 74.4748 97.153 74.0877 97.159C73.8674 97.1607 73.647 97.1624 73.42 97.1642C72.7244 97.2883 72.4979 97.4944 72.0703 98.0469C72.0058 98.2402 71.9414 98.4336 71.875 98.6328C70.5859 98.6328 69.2969 98.6328 67.9687 98.6328C67.8398 98.3105 67.7109 97.9883 67.5781 97.6562C66.9203 97.2177 66.7066 97.2169 65.9376 97.2172C65.7172 97.2164 65.4969 97.2155 65.2699 97.2146C65.0268 97.2157 64.7837 97.2167 64.5333 97.2178C64.2759 97.2173 64.0184 97.2169 63.7532 97.2164C63.0371 97.2152 62.3211 97.2165 61.605 97.2181C60.8333 97.2194 60.0616 97.2184 59.29 97.2176C57.9522 97.2166 56.6145 97.2169 55.2768 97.218C53.163 97.2196 51.0493 97.2174 48.9356 97.2146C48.2127 97.2137 47.4898 97.2128 46.767 97.212C46.5863 97.2118 46.4057 97.2116 46.2195 97.2113C44.1625 97.209 42.1054 97.2075 40.0484 97.2063C39.8603 97.2062 39.6722 97.2061 39.4785 97.206C36.4297 97.2044 33.3808 97.205 30.332 97.2062C27.2035 97.2073 24.075 97.2046 20.9465 97.1988C19.0158 97.1954 17.0852 97.1951 15.1546 97.1988C13.832 97.201 12.5094 97.1998 11.1867 97.1957C10.4231 97.1935 9.65963 97.1929 8.89605 97.1966C8.19724 97.1999 7.49859 97.1987 6.79979 97.1939C6.42676 97.1926 6.05372 97.196 5.68071 97.1996C3.87536 97.1802 3.87536 97.1802 3.26933 96.5998C2.93788 96.106 2.80414 95.8684 2.78781 95.2843C2.78158 95.1317 2.77534 94.9792 2.76893 94.822C2.76784 94.6598 2.76675 94.4977 2.76563 94.3306C2.76238 94.1613 2.75913 93.9921 2.75578 93.8177C2.75085 93.4607 2.74855 93.1036 2.7487 92.7466C2.74657 92.2015 2.72883 91.6584 2.71032 91.1136C2.67043 88.5786 2.67043 88.5786 3.35167 87.7972C3.85437 87.4997 4.33562 87.3087 4.88279 87.1094C5.24835 86.827 5.57172 86.5283 5.90513 86.2098C7.26743 85.1339 9.04603 84.9706 10.6766 85.5301Z" fill="white"/>
<path d="M90.6425 2.81907C90.7952 2.81785 90.9478 2.81664 91.1051 2.8154C91.4274 2.81401 91.7496 2.81463 92.0719 2.81711C92.5637 2.81982 93.0549 2.81317 93.5467 2.80571C93.8604 2.80553 94.1741 2.80589 94.4878 2.80686C94.6341 2.80427 94.7804 2.80168 94.9311 2.79901C95.6826 2.81232 96.0633 2.90758 96.6764 3.35293C97.133 3.99431 97.1856 4.29155 97.1657 5.06974C97.1625 5.28689 97.1594 5.50404 97.1561 5.72777C97.1439 6.06483 97.1439 6.06483 97.1313 6.4087C97.1269 6.63718 97.1225 6.86566 97.118 7.10106C97.1065 7.66399 97.0905 8.2264 97.0703 8.78907C96.8546 8.79334 96.8546 8.79334 96.6345 8.7977C95.9821 8.81225 95.33 8.83113 94.6777 8.8501C94.4514 8.85451 94.2251 8.85891 93.9919 8.86345C93.6652 8.87384 93.6652 8.87384 93.3319 8.88443C93.0312 8.8921 93.0312 8.8921 92.7244 8.89993C92.1172 8.99543 91.8399 9.13915 91.4062 9.57032C91.3107 10.2121 91.3237 10.5881 91.6316 11.1628C92.1326 11.6639 92.4599 11.6288 93.1602 11.6425C93.365 11.6484 93.5697 11.6544 93.7807 11.6606C94.1703 11.6652 94.1703 11.6652 94.5679 11.6699C95.3937 11.686 96.2195 11.7022 97.0703 11.7188C97.0703 13.6523 97.0703 15.5859 97.0703 17.5781C95.459 17.6392 95.459 17.6392 94.9553 17.6539C94.3057 17.6855 93.8424 17.7263 93.2571 18.0252C92.906 18.4321 92.8737 18.6214 92.8955 19.1528C92.8864 19.9225 92.8864 19.9225 93.3594 20.3125C93.756 20.3846 93.756 20.3846 94.2093 20.3934C94.359 20.4003 94.5087 20.4073 94.663 20.4145C94.9482 20.4244 94.9482 20.4244 95.2393 20.4346C95.8435 20.4587 96.4478 20.4829 97.0703 20.5078C97.0703 22.5059 97.0703 24.5039 97.0703 26.5625C95.2393 26.6357 95.2393 26.6357 94.663 26.6559C94.4384 26.6663 94.4384 26.6663 94.2093 26.6769C94.0559 26.6831 93.9024 26.6892 93.7444 26.6955C93.3144 26.7266 93.3144 26.7266 92.9688 27.1484C92.8765 27.9416 92.8765 27.9416 92.9688 28.7109C93.4344 29.2505 93.8711 29.3388 94.5526 29.3968C94.8546 29.4115 95.1568 29.4223 95.459 29.4312C96.2566 29.4614 96.2566 29.4614 97.0703 29.4922C97.0703 31.4258 97.0703 33.3594 97.0703 35.3516C95.2393 35.4248 95.2393 35.4248 94.663 35.4449C94.4384 35.4554 94.4384 35.4554 94.2093 35.466C94.0559 35.4721 93.9024 35.4783 93.7444 35.4846C93.3144 35.5156 93.3144 35.5156 92.9688 35.9375C92.8343 36.9405 92.8343 36.9405 93.2145 37.8108C93.6303 38.1471 93.8515 38.1671 94.381 38.1859C94.5929 38.1956 94.5929 38.1956 94.8091 38.2055C94.9873 38.2103 95.1655 38.2152 95.3491 38.2202C96.2011 38.2504 96.2011 38.2504 97.0703 38.2813C97.0703 40.2148 97.0703 42.1484 97.0703 44.1406C94.5679 44.2017 94.5679 44.2017 93.7807 44.2164C93.4736 44.2261 93.4736 44.2261 93.1602 44.236C92.8457 44.2437 92.8457 44.2437 92.5249 44.2515C91.9913 44.2946 91.9913 44.2946 91.6316 44.5993C91.2731 45.1125 91.3195 45.4864 91.4062 46.0938C91.819 46.6288 92.0549 46.8487 92.7244 46.9816C92.9249 46.9857 93.1254 46.9898 93.3319 46.994C93.6264 47.003 93.6264 47.003 93.9268 47.0121C94.1746 47.0152 94.4224 47.0183 94.6777 47.0215C95.8621 47.0457 95.8621 47.0457 97.0703 47.0703C97.0703 49.0039 97.0703 50.9375 97.0703 52.9297C95.3491 53.0151 95.3491 53.0151 94.8091 53.0406C94.6678 53.0481 94.5265 53.0555 94.381 53.0632C94.2367 53.0704 94.0925 53.0775 93.9439 53.0849C93.5142 53.1149 93.5142 53.1149 92.9688 53.3203C92.9529 53.6009 92.9415 53.8817 92.9321 54.1626C92.9253 54.3189 92.9185 54.4753 92.9115 54.6364C92.9833 55.1907 93.1228 55.3201 93.5547 55.6641C93.9488 55.7616 93.9488 55.7616 94.381 55.764C94.5222 55.7705 94.6635 55.7769 94.8091 55.7836C94.9873 55.7885 95.1655 55.7933 95.3491 55.7983C95.9171 55.8185 96.4851 55.8386 97.0703 55.8594C97.0703 57.793 97.0703 59.7266 97.0703 61.7188C95.3491 61.7798 95.3491 61.7798 94.8091 61.7945C94.6678 61.801 94.5265 61.8075 94.381 61.8141C94.2367 61.8192 94.0925 61.8243 93.9439 61.8296C93.4556 61.9356 93.2757 62.1125 92.9688 62.5C92.8565 63.056 92.9138 63.486 92.9688 64.0625C93.5588 64.4559 93.7122 64.5055 94.381 64.534C94.5222 64.541 94.6635 64.5479 94.8091 64.5551C95.0764 64.565 95.0764 64.565 95.3491 64.5752C95.9171 64.5994 96.4851 64.6235 97.0703 64.6484C97.0703 66.582 97.0703 68.5156 97.0703 70.5078C95.459 70.5688 95.459 70.5688 94.9553 70.5836C94.3057 70.6152 93.8424 70.6559 93.2571 70.9549C92.906 71.3617 92.8737 71.5511 92.8955 72.0825C92.8864 72.8522 92.8864 72.8522 93.3594 73.2422C93.756 73.3142 93.756 73.3142 94.2093 73.3231C94.359 73.33 94.5087 73.337 94.663 73.3441C94.9482 73.3541 94.9482 73.3541 95.2393 73.3643C95.8435 73.3884 96.4478 73.4126 97.0703 73.4375C97.0703 75.4355 97.0703 77.4336 97.0703 79.4922C94.5679 79.5532 94.5679 79.5532 93.7807 79.568C93.5759 79.5744 93.3712 79.5809 93.1602 79.5876C92.8457 79.5952 92.8457 79.5952 92.5249 79.6031C91.9913 79.6461 91.9913 79.6461 91.6316 79.9509C91.2731 80.464 91.3195 80.838 91.4062 81.4453C91.819 81.9803 92.0549 82.2002 92.7244 82.3332C93.0251 82.3393 93.0251 82.3393 93.3319 82.3456C93.5282 82.3516 93.7245 82.3575 93.9268 82.3637C94.1746 82.3668 94.4224 82.3699 94.6777 82.373C95.8621 82.3972 95.8621 82.3972 97.0703 82.4219C97.0703 84.3555 97.0703 86.2891 97.0703 88.2813C95.3491 88.3545 95.3491 88.3545 94.8091 88.3746C94.6678 88.3816 94.5265 88.3885 94.381 88.3957C94.1646 88.4049 94.1646 88.4049 93.9439 88.4143C93.4935 88.4587 93.4935 88.4587 92.9688 88.8672C92.8254 89.8709 92.8254 89.8709 93.2149 90.7405C93.6305 91.077 93.8516 91.0968 94.381 91.1156C94.5377 91.1225 94.6944 91.1294 94.8559 91.1366C95.0187 91.141 95.1814 91.1454 95.3491 91.1499C95.5142 91.1566 95.6792 91.1632 95.8492 91.1701C96.2562 91.1862 96.6632 91.1989 97.0703 91.2109C97.0987 92.0043 97.116 92.7976 97.1313 93.5913C97.1395 93.816 97.1477 94.0407 97.1561 94.2722C97.1593 94.4894 97.1624 94.7065 97.1657 94.9303C97.1708 95.1297 97.1759 95.3292 97.1812 95.5347C97.0238 96.3282 96.7314 96.5773 96.0938 97.0703C95.4899 97.202 94.905 97.1844 94.2894 97.1657C94.1174 97.1643 93.9453 97.1629 93.7681 97.1615C93.2207 97.156 92.6737 97.1438 92.1265 97.1313C91.7545 97.1264 91.3826 97.122 91.0107 97.118C90.1007 97.1073 89.191 97.0904 88.2812 97.0703C88.2811 96.9421 88.281 96.8139 88.2809 96.6817C88.2739 89.0864 88.2628 81.491 88.2465 73.8956C88.2445 72.9842 88.2426 72.0728 88.2407 71.1614C88.2402 70.8892 88.2402 70.8892 88.2396 70.6115C88.2335 67.6712 88.2302 64.7308 88.2279 61.7905C88.2255 58.7747 88.2201 55.759 88.212 52.7433C88.2071 50.8815 88.2045 49.0198 88.2048 47.158C88.2048 45.8824 88.202 44.6067 88.1968 43.3311C88.194 42.5945 88.1924 41.8579 88.1942 41.1212C88.1961 40.3234 88.192 39.5258 88.1873 38.7281C88.1888 38.494 88.1903 38.2599 88.1919 38.0188C88.1897 37.8056 88.1874 37.5925 88.1851 37.3729C88.1847 37.0966 88.1847 37.0966 88.1842 36.8146C88.0556 36.1781 87.8052 35.9481 87.3047 35.5469C87.1113 35.4824 86.918 35.418 86.7188 35.3516C86.7188 34.0625 86.7188 32.7734 86.7188 31.4453C87.2988 31.252 87.2988 31.252 87.8906 31.0547C88.1748 30.4731 88.1108 29.8163 88.1116 29.1763C88.1124 28.9529 88.1131 28.7294 88.114 28.4992C88.1139 28.2549 88.1137 28.0105 88.1136 27.7588C88.1142 27.4982 88.1149 27.2377 88.1157 26.9772C88.1172 26.4166 88.1182 25.856 88.1189 25.2955C88.12 24.4091 88.1233 23.5228 88.127 22.6364C88.1282 22.3329 88.1294 22.0293 88.1307 21.7258C88.1313 21.5738 88.1319 21.4218 88.1325 21.2652C88.1408 19.202 88.1472 17.1389 88.1496 15.0757C88.1512 13.6834 88.1556 12.2911 88.1631 10.8989C88.167 10.1622 88.1694 9.4256 88.1684 8.68893C88.1675 7.99635 88.1702 7.30387 88.1757 6.6113C88.1777 6.23593 88.1758 5.86053 88.1738 5.48516C88.1763 5.26171 88.1787 5.03827 88.1812 4.80805C88.1817 4.6139 88.1821 4.41976 88.1826 4.21973C88.4437 2.87295 89.4638 2.81128 90.6425 2.81907Z" fill="white"/>
<path d="M11.5237 63.2812C12.0292 63.666 12.5177 64.0668 13.0061 64.4729C14.7227 65.8251 16.7943 66.2662 18.9456 66.0156C20.4478 65.6225 21.6559 65.0038 22.8389 64.006C24.1371 62.9311 25.2633 62.4135 26.958 62.4336C28.472 62.6065 29.6245 63.5051 30.7056 64.5218C31.0453 64.8573 31.0453 64.8573 31.4654 65.0865C31.8362 65.4297 31.8362 65.4297 31.907 65.9444C31.8886 66.2467 31.8886 66.2467 31.8698 66.555C31.8585 66.7734 31.8471 66.9918 31.8355 67.2169C31.8117 67.5588 31.8117 67.5588 31.7874 67.9077C31.7681 68.2531 31.7681 68.2531 31.7485 68.6054C31.7162 69.1747 31.6802 69.7436 31.6409 70.3125C31.8027 70.3229 31.9646 70.3333 32.1313 70.3441C32.3431 70.3593 32.5549 70.3746 32.7731 70.3903C33.0884 70.412 33.0884 70.412 33.41 70.4341C33.9847 70.5078 33.9847 70.5078 34.6194 70.8252C34.9612 71.289 34.9612 71.289 35.0833 71.9726C34.9612 72.6562 34.9612 72.6562 34.6194 73.1445C33.6313 73.6006 32.6959 73.397 31.6409 73.2422C31.6409 73.3711 31.6409 73.5 31.6409 73.6328C31.8705 73.7174 31.8705 73.7174 32.1048 73.8037C32.6175 74.0234 32.6175 74.0234 33.0081 74.414C33.1004 75.0201 33.0804 75.6328 33.0814 76.2451C33.0861 76.4138 33.0909 76.5825 33.0958 76.7563C33.1016 77.9999 33.1016 77.9999 32.6373 78.6209C32.2269 78.9062 32.2269 78.9062 31.8362 79.1015C31.7718 80.8418 31.7073 82.582 31.6409 84.375C30.9964 83.9883 30.3519 83.6015 29.6878 83.2031C27.9997 82.4358 26.0147 82.3144 24.2107 82.7659C23.1122 83.1864 22.174 83.7807 21.2596 84.5192C21.1083 84.6408 20.957 84.7624 20.8011 84.8877C20.5926 85.0606 20.5926 85.0606 20.3799 85.2371C19.1243 86.0868 17.6756 86.1339 16.2112 85.9375C15.1972 85.5302 14.4007 84.9107 13.6111 84.1675C11.9721 82.7262 9.90626 82.4315 7.80441 82.5363C6.0983 82.7148 4.97606 83.3896 3.67461 84.4749C3.32061 84.7656 3.32061 84.7656 2.92999 84.9609C2.8847 82.4635 2.85001 79.9662 2.82879 77.4685C2.8186 76.3086 2.80479 75.149 2.78264 73.9893C2.7614 72.8698 2.74974 71.7506 2.74468 70.6309C2.74107 70.204 2.73403 69.7772 2.72348 69.3505C2.64399 66.0017 2.64399 66.0017 3.34518 65.0781C3.84688 64.7248 4.32077 64.4981 4.88311 64.2578C5.19903 64.0181 5.50934 63.7707 5.81085 63.5132C7.57766 62.138 9.62798 62.1146 11.5237 63.2812Z" fill="white"/>
<path d="M46.1551 12.0117C47.4267 12.7603 48.2407 13.825 48.6331 15.2344C48.6801 15.9091 48.6801 15.9091 48.6774 16.6583C48.6775 16.7956 48.6775 16.9329 48.6776 17.0744C48.6773 17.5246 48.6743 17.9748 48.6712 18.425C48.6705 18.7386 48.6699 19.0522 48.6696 19.3658C48.6681 20.1884 48.6642 21.011 48.6599 21.8337C48.6559 22.6742 48.6541 23.5147 48.6522 24.3553C48.648 26.0025 48.6413 27.6497 48.6331 29.2969C48.8284 29.292 48.8284 29.292 49.0277 29.287C49.2871 29.2832 49.2871 29.2832 49.5517 29.2793C49.8074 29.2744 49.8074 29.2744 50.0684 29.2694C51.1301 29.3256 51.9487 29.6998 52.7141 30.4321C53.5251 31.4654 53.652 32.4203 53.6715 33.7097C53.1964 35.7408 51.3498 37.2236 49.9215 38.6424C49.5362 39.026 49.1548 39.4131 48.7735 39.8006C48.526 40.0484 48.2783 40.296 48.0304 40.5433C47.8621 40.7149 47.8621 40.7149 47.6905 40.8899C46.8001 41.7654 45.8351 42.4362 44.5926 42.6819C44.4435 42.6798 44.2945 42.6778 44.1409 42.6758C43.9173 42.6788 43.9173 42.6788 43.6892 42.6819C42.1815 42.3838 41.1511 41.4612 40.1027 40.3946C39.9 40.1923 39.9 40.1923 39.6932 39.986C39.4098 39.7023 39.1274 39.4176 38.8459 39.132C38.416 38.6965 37.9827 38.2648 37.5487 37.8334C37.2727 37.5561 36.9969 37.2787 36.7213 37.001C36.5925 36.8728 36.4637 36.7446 36.3311 36.6125C35.2935 35.5535 34.6812 34.5653 34.5576 33.0673C34.5914 31.8943 35.13 30.9097 35.9378 30.0781C36.8644 29.4294 37.6028 29.2699 38.721 29.2846C38.9823 29.2873 38.9823 29.2873 39.2489 29.29C39.3809 29.2923 39.5128 29.2945 39.6487 29.2969C39.6465 29.1226 39.6444 28.9483 39.6421 28.7687C39.6225 27.1195 39.6077 25.4704 39.5981 23.8211C39.593 22.9733 39.5862 22.1257 39.575 21.278C39.5644 20.4586 39.5586 19.6393 39.5561 18.8199C39.5543 18.5086 39.5508 18.1973 39.5455 17.886C39.5165 16.1142 39.5444 14.5851 40.6253 13.0859C41.0846 12.6457 41.0846 12.6457 41.5286 12.3901C41.6761 12.3012 41.8237 12.2124 41.9757 12.1208C43.2177 11.4905 44.8759 11.4424 46.1551 12.0117Z" fill="black"/>
<path d="M69.8115 3.23486C70.9153 3.8929 71.6693 4.84028 72.0698 6.05468C72.1168 6.72081 72.1168 6.72081 72.1142 7.4923C72.1142 7.63341 72.1143 7.77452 72.1143 7.91991C72.1141 8.38385 72.111 8.84774 72.108 9.31167C72.1072 9.63432 72.1067 9.95696 72.1063 10.2796C72.1048 11.127 72.101 11.9743 72.0966 12.8217C72.0926 13.6871 72.0909 14.5525 72.0889 15.4179C72.0847 17.1145 72.0781 18.8112 72.0698 20.5078C72.215 20.5041 72.3602 20.5004 72.5098 20.4966C72.7973 20.4924 72.7973 20.4924 73.0906 20.488C73.2801 20.4843 73.4696 20.4806 73.6648 20.4768C74.6396 20.5314 75.3712 20.9077 76.0798 21.5675C76.9595 22.5572 77.1859 23.412 77.238 24.6925C76.9648 26.2179 75.9945 27.2484 74.9354 28.2997C74.7972 28.4392 74.6589 28.5786 74.5165 28.7223C74.2253 29.0149 73.933 29.3066 73.6399 29.5972C73.1938 30.0406 72.7526 30.4884 72.3117 30.9368C72.0269 31.2218 71.7418 31.5065 71.4564 31.7909C71.326 31.924 71.1955 32.057 71.0611 32.1941C70.0386 33.1968 69.0446 33.7841 67.5776 33.8745C65.9301 33.798 64.7894 32.6786 63.692 31.5628C63.5525 31.4236 63.4131 31.2844 63.2694 31.1411C62.9768 30.8481 62.6852 30.5543 62.3945 30.2595C61.9505 29.8099 61.503 29.364 61.0549 28.9184C60.77 28.6323 60.4853 28.346 60.2008 28.0594C60.0012 27.8607 60.0012 27.8607 59.7976 27.6579C58.8309 26.6719 58.1193 25.7802 58.1172 24.3408C58.151 23.3049 58.3405 22.5045 58.9839 21.6797C59.9381 20.8101 60.7498 20.4803 62.0479 20.4956C62.242 20.4974 62.4361 20.4991 62.6361 20.5009C62.7844 20.5032 62.9327 20.5055 63.0854 20.5078C63.0837 20.3384 63.082 20.169 63.0802 19.9945C63.0645 18.3913 63.0526 16.7881 63.045 15.1848C63.0409 14.3607 63.0354 13.5367 63.0265 12.7127C63.018 11.9161 63.0133 11.1196 63.0113 10.323C63.0099 10.0204 63.0071 9.71782 63.0028 9.41527C62.9773 7.51786 63.0031 5.75881 64.2505 4.21142C64.3776 4.11071 64.5047 4.01 64.6357 3.90624C64.7624 3.80151 64.889 3.69677 65.0195 3.58886C66.3945 2.68754 68.3025 2.55608 69.8115 3.23486Z" fill="black"/>
<path d="M23.1028 3.44999C24.0203 4.16478 24.6229 4.95444 25.0002 6.05467C25.0902 6.90335 25.0815 7.75294 25.0857 8.60593C25.0921 8.83719 25.0985 9.06844 25.1051 9.30669C25.1065 9.52888 25.1079 9.75107 25.1093 9.97999C25.1133 10.2836 25.1133 10.2836 25.1173 10.5934C25.0002 11.1328 25.0002 11.1328 24.5295 11.5955C24.0237 11.914 24.0237 11.914 23.633 11.914C23.633 13.1386 23.633 14.3633 23.633 15.625C24.0198 15.7217 24.0198 15.7217 24.4143 15.8203C24.7525 16.0658 24.7525 16.0658 25.0002 16.4062C25.0667 16.8493 25.0667 16.8493 25.0574 17.3607C25.0556 17.5438 25.0537 17.727 25.0517 17.9157C25.0468 18.1064 25.0419 18.2971 25.0368 18.4936C25.0329 18.7831 25.0329 18.7831 25.0288 19.0784C25.0219 19.555 25.0123 20.0313 25.0002 20.5078C25.2236 20.4957 25.2236 20.4957 25.4514 20.4833C26.722 20.4245 27.6726 20.5219 28.7112 21.289C29.7826 22.2866 30.1107 23.2742 30.1684 24.6925C29.8952 26.2179 28.9249 27.2484 27.8658 28.2997C27.7276 28.4392 27.5893 28.5786 27.4469 28.7223C27.1557 29.0149 26.8634 29.3065 26.5703 29.5972C26.1242 30.0406 25.683 30.4884 25.2421 30.9368C24.9573 31.2218 24.6722 31.5065 24.3868 31.7909C24.2564 31.924 24.1259 32.057 23.9915 32.1941C22.969 33.1968 21.975 33.7841 20.508 33.8745C18.8641 33.7982 17.7203 32.6808 16.6224 31.5696C16.4829 31.4309 16.3435 31.2922 16.1998 31.1493C15.9072 30.8572 15.6156 30.5642 15.3249 30.2702C14.8812 29.8224 14.4335 29.3789 13.9853 28.9356C13.7003 28.6501 13.4156 28.3644 13.1312 28.0784C12.9981 27.947 12.8651 27.8155 12.728 27.68C11.7309 26.6631 11.0453 25.692 11.0598 24.2065C11.0991 23.0772 11.434 22.4015 12.1706 21.5454C13.1038 20.7425 13.7573 20.4761 14.9828 20.4933C15.1763 20.4954 15.3697 20.4975 15.5691 20.4996C15.7165 20.5023 15.8639 20.505 16.0159 20.5078C16.0145 20.3404 16.0132 20.173 16.0119 20.0006C16.0001 18.4174 15.9912 16.8343 15.9855 15.2511C15.9824 14.4373 15.9783 13.6235 15.9716 12.8098C15.9652 12.0233 15.9618 11.2369 15.9603 10.4505C15.9592 10.1516 15.9571 9.85265 15.9539 9.55374C15.9313 7.34079 15.9979 5.51363 17.6043 3.84062C19.0468 2.555 21.4548 2.46746 23.1028 3.44999Z" fill="black"/>
<path d="M10.8284 48.8037C11.2229 49.046 11.5637 49.3068 11.914 49.6094C13.9661 51.3221 15.8383 52.1875 18.5318 52.0455C20.4963 51.8651 21.8864 50.9161 23.3261 49.6262C24.5307 48.6486 25.5264 48.5168 27.0424 48.552C28.5443 48.7275 29.6269 49.4872 30.7152 50.4898C31.2978 50.9899 31.9566 51.37 32.6172 51.7578C32.5608 51.923 32.5044 52.0881 32.4463 52.2583C32.3375 52.5907 32.3375 52.5907 32.2265 52.9297C32.1592 53.1338 32.0919 53.3379 32.0226 53.5481C31.8131 54.3883 31.7679 55.1499 31.7551 56.0112C31.7513 56.1697 31.7475 56.3281 31.7436 56.4914C31.732 56.9928 31.7229 57.4942 31.7139 57.9956C31.7064 58.3375 31.6988 58.6795 31.691 59.0214C31.6723 59.8554 31.6559 60.6894 31.6406 61.5235C31.4953 61.4431 31.35 61.3628 31.2003 61.28C31.0085 61.1745 30.8166 61.0691 30.619 60.9604C30.4294 60.8559 30.2398 60.7514 30.0444 60.6437C28.2465 59.6926 26.3536 59.389 24.3584 59.9442C23.2854 60.3647 22.3803 60.8873 21.4866 61.6104C19.9613 62.7893 18.5524 63.522 16.6015 63.2813C15.5392 62.925 14.6957 62.3809 13.8794 61.6211C12.7744 60.5946 11.2839 59.8586 9.76561 59.7656C9.51031 59.7475 9.51031 59.7475 9.24986 59.729C6.9163 59.6333 5.36022 60.381 3.5385 61.7951C3.12498 62.1094 3.12498 62.1094 2.92967 62.1094C2.91508 61.0604 2.9045 60.0114 2.89749 58.9623C2.89456 58.6062 2.89057 58.25 2.88547 57.894C2.84432 54.9474 2.97792 52.389 5.12007 50.1297C6.7098 48.6643 8.70097 48.0413 10.8284 48.8037Z" fill="white"/>
<path d="M10.6766 85.5301C11.5222 85.9805 12.2051 86.5693 12.9112 87.2093C14.8193 88.7082 17.0011 88.8986 19.3359 88.6719C20.8662 88.3068 22.0173 87.5197 23.1926 86.4975C24.5736 85.3534 25.7905 85.227 27.539 85.3515C29.0591 85.6077 30.1187 86.7257 31.25 87.6953C31.5085 87.8931 31.7682 88.0895 32.0312 88.2812C31.9668 88.3457 31.9023 88.4101 31.8359 88.4765C31.8162 89.0285 31.8086 89.5755 31.81 90.1275C31.8098 90.294 31.8096 90.4605 31.8094 90.632C31.8093 90.9854 31.8096 91.3387 31.8105 91.692C31.8115 92.2313 31.8105 92.7705 31.8092 93.3098C31.8093 93.6528 31.8096 93.9959 31.81 94.339C31.8094 94.5804 31.8094 94.5804 31.8088 94.8267C31.8094 94.9785 31.81 95.1303 31.8106 95.2867C31.8108 95.4193 31.811 95.5518 31.8111 95.6884C31.8401 96.1613 31.935 96.6069 32.0312 97.0703C28.3811 97.0931 24.7309 97.1103 21.0807 97.1209C19.3858 97.1259 17.691 97.1328 15.9962 97.144C14.519 97.1537 13.0419 97.16 11.5647 97.1622C10.7824 97.1634 10.0003 97.1664 9.21811 97.1735C8.48178 97.1802 7.74558 97.1822 7.00922 97.1807C6.73908 97.181 6.46894 97.183 6.19882 97.1867C3.90252 97.217 3.90252 97.217 3.25852 96.6257C2.94731 96.1223 2.80406 95.8655 2.78781 95.2843C2.78158 95.1317 2.77534 94.9792 2.76893 94.822C2.76784 94.6598 2.76675 94.4977 2.76563 94.3306C2.76238 94.1613 2.75913 93.9921 2.75578 93.8177C2.75085 93.4607 2.74855 93.1036 2.7487 92.7466C2.74657 92.2015 2.72883 91.6584 2.71032 91.1136C2.67043 88.5786 2.67043 88.5786 3.35167 87.7972C3.85437 87.4997 4.33562 87.3087 4.88279 87.1094C5.24835 86.827 5.57172 86.5283 5.90513 86.2098C7.26743 85.1339 9.04603 84.9706 10.6766 85.5301Z" fill="white"/>
<path d="M62.8507 23.387C63.088 23.3857 63.3252 23.3845 63.5696 23.3832C63.9557 23.3844 63.9557 23.3844 64.3495 23.3856C64.6151 23.3854 64.8808 23.385 65.1464 23.3845C65.7033 23.3839 66.2602 23.3848 66.8172 23.3866C67.5318 23.3888 68.2463 23.3875 68.9609 23.3852C69.5095 23.3838 70.058 23.3842 70.6066 23.3852C70.9985 23.3856 71.3904 23.3844 71.7822 23.3832C72.0195 23.3845 72.2567 23.3857 72.5011 23.387C72.7108 23.3873 72.9204 23.3876 73.1363 23.3879C73.633 23.4375 73.633 23.4375 74.0236 23.8281C74.126 24.2548 74.126 24.2548 74.0236 24.8047C73.6608 25.3159 73.2221 25.743 72.7762 26.1818C72.6484 26.3105 72.5207 26.4392 72.3891 26.5717C72.1185 26.8429 71.8468 27.1129 71.5738 27.3818C71.1565 27.7939 70.7445 28.211 70.3329 28.6289C70.0693 28.8918 69.8055 29.1544 69.5413 29.4167C69.4182 29.5418 69.2951 29.6669 69.1682 29.7958C68.6872 30.2641 68.3218 30.6124 67.679 30.8231C66.8617 30.5586 66.3547 29.97 65.761 29.3671C65.6275 29.2345 65.494 29.102 65.3565 28.9655C65.0753 28.6849 64.7953 28.4031 64.5164 28.1202C64.088 27.6865 63.6546 27.2582 63.2204 26.8303C62.9479 26.5572 62.6758 26.2839 62.404 26.0101C62.2085 25.8175 62.2085 25.8175 62.0089 25.621C61.8908 25.4999 61.7728 25.3787 61.6511 25.2539C61.5461 25.1481 61.441 25.0422 61.3328 24.9332C61.133 24.6094 61.133 24.6094 61.1738 24.2029C61.5317 23.3346 61.9935 23.3882 62.8507 23.387Z" fill="white"/>
<path d="M15.7804 23.387C16.0177 23.3857 16.2549 23.3845 16.4993 23.3832C16.8854 23.3844 16.8854 23.3844 17.2792 23.3856C17.5448 23.3854 17.8105 23.385 18.0761 23.3845C18.633 23.3839 19.1899 23.3848 19.7468 23.3866C20.4615 23.3888 21.176 23.3875 21.8906 23.3852C22.4392 23.3838 22.9877 23.3842 23.5363 23.3852C23.9282 23.3856 24.3201 23.3844 24.7119 23.3832C24.9492 23.3845 25.1864 23.3857 25.4308 23.387C25.6404 23.3873 25.85 23.3876 26.066 23.3879C26.5627 23.4375 26.5627 23.4375 26.9533 23.8281C27.0557 24.2548 27.0557 24.2548 26.9533 24.8047C26.5905 25.3159 26.1517 25.743 25.7059 26.1818C25.5781 26.3105 25.4504 26.4392 25.3188 26.5717C25.0482 26.8429 24.7764 27.1129 24.5035 27.3818C24.0861 27.7939 23.6742 28.211 23.2626 28.6289C22.999 28.8918 22.7352 29.1544 22.471 29.4167C22.3479 29.5418 22.2248 29.6669 22.0979 29.7958C21.6169 30.2641 21.2515 30.6124 20.6087 30.8231C19.7913 30.5586 19.2844 29.97 18.6906 29.3671C18.5572 29.2345 18.4237 29.102 18.2862 28.9655C18.005 28.6849 17.725 28.4031 17.4461 28.1202C17.0177 27.6865 16.5842 27.2582 16.1501 26.8303C15.8776 26.5572 15.6055 26.2839 15.3337 26.0101C15.1381 25.8175 15.1381 25.8175 14.9386 25.621C14.8205 25.4999 14.7024 25.3787 14.5808 25.2539C14.4757 25.1481 14.3707 25.0422 14.2625 24.9332C14.0627 24.6094 14.0627 24.6094 14.1035 24.2029C14.4614 23.3346 14.9232 23.3882 15.7804 23.387Z" fill="white"/>
<path d="M39.0366 32.3935C39.2816 32.3922 39.5267 32.391 39.7792 32.3897C40.0488 32.3894 40.3184 32.3892 40.5881 32.389C40.8627 32.3884 41.1374 32.3878 41.412 32.3871C41.9885 32.3859 42.565 32.3855 43.1415 32.3857C43.8813 32.3857 44.621 32.383 45.3608 32.3796C45.9283 32.3775 46.4958 32.3771 47.0633 32.3772C47.3361 32.377 47.6089 32.3761 47.8816 32.3746C48.2628 32.3727 48.6439 32.3735 49.025 32.3744C49.2421 32.3741 49.4592 32.3738 49.683 32.3736C50.1958 32.4218 50.1958 32.4218 50.5864 32.8125C50.5858 33.6887 50.1459 34.1324 49.5702 34.7285C49.4559 34.8424 49.3416 34.9564 49.2238 35.0738C49.1059 35.1934 48.988 35.3129 48.8666 35.4361C48.617 35.6879 48.3665 35.9386 48.1149 36.1885C47.7319 36.5703 47.3543 36.957 46.9769 37.3443C46.7333 37.5888 46.4895 37.8329 46.2453 38.0768C46.1333 38.1923 46.0214 38.3079 45.906 38.4269C45.3618 38.9589 44.9697 39.2405 44.2445 39.506C43.2337 39.4284 42.822 38.935 42.1399 38.2248C42.0118 38.0968 41.8836 37.9687 41.7516 37.8368C41.4821 37.5658 41.2144 37.2928 40.9486 37.0181C40.541 36.5977 40.1271 36.1846 39.7118 35.7719C39.4506 35.5076 39.1898 35.2428 38.9294 34.9777C38.8056 34.854 38.6817 34.7302 38.554 34.6027C37.7172 33.7291 37.7172 33.7291 37.6064 33.0312C37.7854 32.2017 38.2715 32.3961 39.0366 32.3935Z" fill="white"/>
<path d="M20.8254 5.85938C21.5644 6.07831 21.6917 6.19173 22.0706 6.83594C22.1519 7.29184 22.1519 7.29184 22.1636 7.78885C22.1697 7.96874 22.1757 8.14863 22.182 8.33397C22.1872 8.61362 22.1872 8.61362 22.1926 8.89893C22.2026 9.26948 22.2133 9.64002 22.2247 10.0105C22.2281 10.1743 22.2315 10.3381 22.2351 10.5069C22.2505 10.9719 22.2505 10.9719 22.4612 11.5234C22.8479 11.5879 23.2346 11.6523 23.6331 11.7188C23.6331 13.0078 23.6331 14.2969 23.6331 15.625C23.2463 15.8184 22.8596 16.0117 22.4612 16.2109C22.2318 16.6698 22.2267 16.9826 22.2041 17.4942C22.1959 17.6692 22.1877 17.8442 22.1793 18.0244C22.1716 18.2075 22.1639 18.3905 22.156 18.5791C22.1476 18.7636 22.1391 18.9482 22.1305 19.1383C22.1097 19.5948 22.09 20.0513 22.0706 20.5078C21.1038 20.5078 20.137 20.5078 19.1409 20.5078C19.1188 18.7133 19.1009 16.9188 19.0903 15.1241C19.0852 14.2908 19.0783 13.4575 19.0672 12.6243C19.0566 11.8201 19.0508 11.016 19.0482 10.2118C19.0464 9.90498 19.0429 9.59816 19.0376 9.29137C19.0305 8.86156 19.0296 8.43214 19.03 8.00228C19.0278 7.75767 19.0257 7.51305 19.0234 7.26103C19.1409 6.64062 19.1409 6.64062 19.5918 6.1649C20.1174 5.85938 20.1174 5.85938 20.8254 5.85938Z" fill="white"/>
<path d="M44.2507 14.624C45.0571 14.8879 45.2544 15.1106 45.7034 15.8203C45.7973 16.4568 45.7973 16.4568 45.7921 17.1862C45.7922 17.3197 45.7923 17.4532 45.7924 17.5907C45.7919 18.0294 45.7858 18.4678 45.7797 18.9064C45.7782 19.2115 45.7771 19.5167 45.7763 19.8218C45.7733 20.623 45.7657 21.424 45.757 22.2251C45.749 23.0434 45.7455 23.8617 45.7415 24.6799C45.7332 26.2841 45.7194 27.8881 45.7034 29.4922C44.6721 29.4922 43.6409 29.4922 42.5784 29.4922C42.5563 27.701 42.5384 25.9099 42.5278 24.1186C42.5227 23.2868 42.5158 22.4551 42.5047 21.6234C42.4941 20.8205 42.4882 20.0177 42.4857 19.2147C42.4839 18.9086 42.4804 18.6025 42.4751 18.2964C42.468 17.8671 42.4671 17.4382 42.4675 17.0088C42.4653 16.7646 42.4632 16.5205 42.4609 16.2689C42.6539 15.211 43.1703 14.6619 44.2507 14.624Z" fill="white"/>
<path d="M67.5661 5.74951C68.3756 5.8982 68.6279 6.20091 69.1408 6.83594C69.2583 7.47241 69.2583 7.47241 69.2517 8.20184C69.2519 8.40208 69.2519 8.40208 69.2521 8.60636C69.2514 9.04508 69.2439 9.48338 69.2362 9.92203C69.2344 10.2272 69.233 10.5323 69.232 10.8374C69.2283 11.6386 69.2187 12.4396 69.2079 13.2408C69.1979 14.059 69.1934 14.8773 69.1885 15.6956C69.178 17.2997 69.1609 18.9037 69.1408 20.5078C68.174 20.5078 67.2072 20.5078 66.2111 20.5078C66.1935 18.7133 66.1792 16.9187 66.1707 15.1241C66.1666 14.2908 66.1611 13.4575 66.1522 12.6243C66.1437 11.8201 66.139 11.016 66.137 10.2118C66.1356 9.90498 66.1328 9.59817 66.1285 9.29137C66.1229 8.8616 66.1221 8.43208 66.1224 8.00228C66.1207 7.75767 66.119 7.51305 66.1172 7.26103C66.2586 6.32748 66.6424 5.9264 67.5661 5.74951Z" fill="white"/>
</g>
<defs>
<clipPath id="clip0_318_2002">
<rect width="100" height="100" fill="white"/>
</clipPath>
</defs>
</svg>
