<svg width="100" height="100" viewBox="0 0 100 100" fill="none" xmlns="http://www.w3.org/2000/svg">
<path d="M0 31.4453C8.18555 31.4453 16.3711 31.4453 24.8047 31.4453C24.8047 43.4336 24.8047 55.4219 24.8047 67.7734C25.5137 67.4512 26.2227 67.1289 26.9531 66.7969C29.6088 66.0533 31.7839 66.4851 34.2022 67.7147C35.1664 68.177 35.8782 68.2525 36.9141 67.9688C37.5628 67.717 37.5628 67.717 38.1714 67.395C40.3345 66.3534 42.4047 66.0925 44.7266 66.7969C45.3773 67.0882 46.0129 67.3969 46.6454 67.7261C47.5739 68.0893 48.2812 68.1182 49.2035 67.7261C49.3858 67.6209 49.5681 67.5157 49.7559 67.4072C51.8176 66.3225 53.9081 66.1327 56.1493 66.806C57.0463 67.1233 57.9299 67.4684 58.8127 67.823C58.9983 67.8953 59.1838 67.9675 59.375 68.042C59.6167 68.1409 59.6167 68.1409 59.8633 68.2419C61.0111 68.5181 61.9355 68.0014 62.9395 67.4927C65.4333 66.2823 67.6647 66.1128 70.3125 66.9922C70.9611 67.2936 71.5962 67.6083 72.226 67.9474C73.598 68.4226 74.754 67.8816 75.9888 67.2852C78.2848 66.1825 80.4122 66.1998 82.8125 66.9922C83.4738 67.2865 84.1207 67.5969 84.7641 67.9283C85.5849 68.2577 86.1281 68.3094 86.9691 68.0003C87.4858 67.7774 87.9936 67.5407 88.501 67.2974C88.8471 67.1343 89.1935 66.9718 89.5401 66.8098C89.6922 66.7372 89.8443 66.6646 90.001 66.5898C92.8557 65.3676 96.2232 66.5916 99.0234 67.3828C99.2949 68.1225 99.1398 68.6461 98.9388 69.3939C98.8453 69.747 98.8453 69.747 98.7499 70.1073C98.6831 70.3522 98.6162 70.5972 98.5474 70.8496C98.4813 71.0976 98.4152 71.3456 98.3471 71.6011C98.1836 72.2137 98.0183 72.8258 97.8516 73.4375C97.2819 73.3115 96.7122 73.1853 96.1426 73.0591C95.9009 73.0056 95.9009 73.0056 95.6543 72.9511C95.4982 72.9165 95.3421 72.8819 95.1813 72.8462C95.0381 72.8145 94.8949 72.7828 94.7474 72.7501C94.4741 72.6878 94.2018 72.6214 93.9305 72.5509C92.4934 72.207 91.4739 72.7125 90.21 73.3276C89.8681 73.4911 89.5258 73.6536 89.183 73.8152C89.0332 73.8878 88.8834 73.9604 88.729 74.0352C86.5803 74.916 84.1114 74.4724 82.0312 73.6328C81.679 73.4542 81.3288 73.2714 80.9814 73.0835C80.3895 72.7781 80.0968 72.6573 79.4189 72.6196C78.5399 72.9076 77.755 73.3203 76.9341 73.7434C75.0095 74.6941 72.8064 74.685 70.7642 74.0845C69.7597 73.744 68.8158 73.3176 67.878 72.8233C66.8723 72.484 66.0691 72.8827 65.1556 73.3352C65.0325 73.3972 64.9095 73.4591 64.7827 73.5229C63.7131 74.0389 62.7178 74.4864 61.5234 74.6094C61.3769 74.6252 61.2304 74.6411 61.0794 74.6574C59.3383 74.7504 57.6469 74.1996 56.0715 73.4947C54.5676 72.7486 54.5676 72.7486 52.9541 72.8271C52.6814 72.9571 52.4127 73.0958 52.1484 73.2422C51.836 73.3824 51.5226 73.5208 51.2085 73.6572C51.0703 73.7222 50.9321 73.7871 50.7896 73.8541C48.9043 74.6544 46.526 74.3687 44.6648 73.6641C44.0322 73.3906 43.409 73.1021 42.7994 72.7806C41.7769 72.4754 40.8712 72.977 39.9658 73.4253C37.6956 74.4926 35.3726 74.8707 32.9247 74.0372C32.0912 73.6906 31.2855 73.2875 30.484 72.8729C29.4476 72.4994 28.7465 72.819 27.7847 73.2552C27.4497 73.4159 27.1157 73.5787 26.7822 73.7427C26.1941 74.0287 25.606 74.3147 25 74.6094C25 76.3496 25 78.0898 25 79.8828C25.709 79.5605 26.418 79.2383 27.1484 78.9062C30.0913 78.3177 32.4245 78.9354 35.0449 80.3017C35.889 80.5826 36.5004 80.3733 37.291 80.0117C37.4808 79.9088 37.6706 79.8058 37.8662 79.6997C39.8968 78.6633 41.9279 78.3396 44.2032 78.8589C45.1202 79.1568 45.9818 79.5283 46.8506 79.9438C47.6061 80.2844 48.0194 80.3587 48.8281 80.0781C49.3203 79.8383 49.8068 79.5884 50.2937 79.3381C52.3749 78.3284 54.6397 78.5296 56.7825 79.2534C57.65 79.5774 58.5089 79.9207 59.3613 80.2826C60.6784 80.6915 61.6044 80.4272 62.793 79.8096C64.9396 78.7207 67.1727 78.2716 69.5557 78.9307C70.56 79.2767 71.5035 79.7647 72.4457 80.2521C73.6726 80.6943 74.6915 80.1045 75.8057 79.5898C76.0785 79.4652 76.3517 79.341 76.6251 79.2175C76.7444 79.1625 76.8638 79.1075 76.9868 79.0508C78.6658 78.3708 80.8666 78.5166 82.5508 79.1023C83.2164 79.3857 83.8552 79.711 84.4879 80.0613C85.3765 80.4598 85.9088 80.5485 86.8416 80.2162C87.0988 80.0953 87.3549 79.9718 87.6099 79.8462C90.7218 78.4051 92.8343 78.0786 96.167 78.894C96.3964 78.9483 96.6257 79.0026 96.862 79.0585C98.508 79.4506 98.508 79.4506 99.2188 79.6875C99.0927 80.9169 98.8425 82.0803 98.5352 83.2764C98.4691 83.5403 98.4691 83.5403 98.4016 83.8097C98.0744 85.1012 98.0744 85.1012 97.8516 85.5469C96.8898 85.4475 96.0003 85.2873 95.0705 85.0265C93.5457 84.6085 92.4807 84.44 91.0156 85.1562C88.3827 86.3974 86.2124 87.2107 83.2993 86.3121C82.4505 85.9921 81.6364 85.6484 80.835 85.2226C79.9881 84.828 79.4032 84.9125 78.5156 85.1562C77.8676 85.4356 77.2355 85.741 76.5999 86.0474C74.4802 87.0021 72.2821 86.8711 70.1294 86.0596C69.5188 85.8079 68.9459 85.5472 68.3708 85.2219C67.5621 84.8686 66.8913 84.7955 66.0422 85.0851C65.6633 85.2505 65.2966 85.4306 64.9292 85.6201C62.719 86.7263 60.5119 87.207 58.0841 86.4769C57.264 86.1994 56.4643 85.8765 55.6641 85.5469C54.5991 85.1175 53.8833 84.8393 52.7344 85.1562C52.2423 85.3916 51.7606 85.6436 51.2772 85.8963C49.1791 86.8969 46.8728 86.6633 44.7266 85.9375C44.2208 85.6951 43.7344 85.4395 43.2518 85.154C42.3274 84.781 41.6119 84.8778 40.7005 85.2463C40.4588 85.3691 40.218 85.4938 39.978 85.6201C37.7556 86.7119 35.5741 87.1058 33.1413 86.3121C32.5661 86.0738 32.0049 85.8196 31.4453 85.5469C30.5645 85.127 29.8989 84.8565 28.9062 84.9609C28.2841 85.2097 27.7008 85.5217 27.1118 85.8398C26.8003 86.0057 26.4883 86.1705 26.1757 86.3342C26.0389 86.4079 25.9022 86.4815 25.7613 86.5574C25.3906 86.7188 25.3906 86.7188 24.8047 86.7188C24.8047 89.1035 24.8047 91.4883 24.8047 93.9453C49.6191 93.9453 74.4336 93.9453 100 93.9453C100 95.9434 100 97.9414 100 100C67 100 34 100 0 100C0 77.377 0 54.7539 0 31.4453ZM6.05469 37.5C6.05469 39.627 6.05469 41.7539 6.05469 43.9453C8.18164 43.9453 10.3086 43.9453 12.5 43.9453C12.5 45.9434 12.5 47.9414 12.5 50C10.373 50 8.24609 50 6.05469 50C6.05469 52.127 6.05469 54.2539 6.05469 56.4453C8.18164 56.4453 10.3086 56.4453 12.5 56.4453C12.5 58.4434 12.5 60.4414 12.5 62.5C10.373 62.5 8.24609 62.5 6.05469 62.5C6.05469 64.627 6.05469 66.7539 6.05469 68.9453C8.18164 68.9453 10.3086 68.9453 12.5 68.9453C12.5 70.9434 12.5 72.9414 12.5 75C10.373 75 8.24609 75 6.05469 75C6.05469 77.127 6.05469 79.2539 6.05469 81.4453C8.18164 81.4453 10.3086 81.4453 12.5 81.4453C12.5 83.4434 12.5 85.4414 12.5 87.5C10.373 87.5 8.24609 87.5 6.05469 87.5C6.05469 89.627 6.05469 91.7539 6.05469 93.9453C10.2441 93.9453 14.4336 93.9453 18.75 93.9453C18.75 75.3184 18.75 56.6914 18.75 37.5C14.5605 37.5 10.3711 37.5 6.05469 37.5Z" fill="black"/>
<path d="M57.875 19C59.873 19 61.8711 19 63.9297 19C63.9941 26.2832 64.0586 33.5664 64.125 41.0703C64.8984 40.2969 65.6719 39.5234 66.4688 38.7266C67.2042 39.0943 67.5716 39.393 68.1381 39.9671C68.303 40.1333 68.4679 40.2994 68.6378 40.4706C68.8935 40.7312 68.8935 40.7312 69.1543 40.9971C69.3278 41.1723 69.5012 41.3475 69.68 41.5281C70.1078 41.9606 70.5348 42.3939 70.9609 42.8281C69.9599 44.0397 68.8657 45.1439 67.752 46.2514C67.5566 46.4465 67.3612 46.6416 67.1659 46.8367C66.6558 47.3461 66.1451 47.8548 65.6343 48.3635C65.1115 48.8842 64.5893 49.4056 64.067 49.9269C63.0452 50.9466 62.0228 51.9657 61 52.9844C59.7884 51.9833 58.6842 50.8891 57.5767 49.7755C57.3816 49.58 57.1865 49.3847 56.9914 49.1893C56.482 48.6792 55.9733 48.1686 55.4647 47.6578C54.9439 47.135 54.4225 46.6127 53.9012 46.0905C52.8815 45.0687 51.8624 44.0462 50.8438 43.0234C51.4656 42.2877 52.0863 41.5605 52.7709 40.8819C52.8993 40.7541 53.0277 40.6263 53.16 40.4947C53.2899 40.3664 53.4199 40.2381 53.5537 40.106C53.6882 39.9724 53.8226 39.8388 53.9611 39.7012C54.2887 39.3759 54.6168 39.051 54.9453 38.7266C55.7266 39.1172 55.7266 39.1172 57.6797 41.0703C57.7441 33.7871 57.8086 26.5039 57.875 19Z" fill="black"/>
</svg>
