<svg width="100" height="100" viewBox="0 0 100 100" fill="none" xmlns="http://www.w3.org/2000/svg">
<path d="M5.68804 62.5725C8.83327 62.6627 11.5603 64.2745 14.2238 65.7967C16.8339 67.2811 19.1948 68.3487 22.2659 67.9688C23.3248 67.6626 24.3129 67.1718 25.2933 66.6748C25.4268 66.6079 25.5603 66.541 25.6979 66.472C26.668 65.9801 27.611 65.449 28.5526 64.9048C29.8614 64.1521 31.1848 63.571 32.6175 63.086C32.8431 63.0014 33.0687 62.9168 33.3011 62.8296C36.6616 62.1695 39.4943 63.4934 42.3831 65.0391C42.3831 65.168 42.3831 65.2969 42.3831 65.4297C42.5259 65.4509 42.6686 65.472 42.8157 65.4938C43.3954 65.6336 43.7545 65.8363 44.2508 66.1621C46.6838 67.6759 49.3149 68.4686 52.1633 67.8353C52.6978 67.6472 53.2003 67.4325 53.7113 67.1875C53.9152 67.0911 54.1191 66.9947 54.3292 66.8953C55.0978 66.5204 55.852 66.1439 56.5753 65.6868C57.0316 65.4297 57.0316 65.4297 57.6175 65.4297C57.6175 65.3008 57.6175 65.1719 57.6175 65.0391C61.0867 63.3183 63.9331 61.9883 67.8287 63.2035C69.6973 63.9061 71.4364 64.8686 73.1319 65.9157C73.7548 66.2826 74.3923 66.6167 75.0369 66.9434C75.2572 67.0552 75.4775 67.167 75.7045 67.2821C76.9032 67.8173 78.0123 68.0494 79.3216 68.0542C79.4653 68.055 79.6089 68.0557 79.757 68.0565C81.0038 68.0306 81.9602 67.7244 83.0982 67.2058C83.5941 66.9922 83.5941 66.9922 84.18 66.9922C84.18 66.8633 84.18 66.7344 84.18 66.6016C84.3389 66.5246 84.4977 66.4475 84.6614 66.3681C85.1657 66.1107 85.6556 65.8468 86.1461 65.5655C87.8621 64.5823 89.5244 63.7124 91.4066 63.086C91.6442 63.0014 91.8819 62.9168 92.1268 62.8296C92.9852 62.6515 93.8564 62.5538 94.7269 62.6953C95.2114 63.0675 95.3101 63.2732 95.5081 63.8672C95.527 64.3183 95.5337 64.7698 95.5343 65.2213C95.5347 65.3599 95.5351 65.4985 95.5356 65.6413C95.5368 66.1068 95.5367 66.5723 95.5365 67.0379C95.5371 67.3712 95.5378 67.7045 95.5385 68.0379C95.5402 68.9442 95.5407 69.8506 95.5408 70.7569C95.541 71.5131 95.5417 72.2693 95.5424 73.0255C95.544 74.8095 95.5445 76.5935 95.5443 78.3775C95.5442 80.2186 95.5463 82.0597 95.5494 83.9008C95.5519 85.4808 95.553 87.0607 95.5528 88.6406C95.5528 89.5846 95.5533 90.5285 95.5554 91.4725C95.5573 92.3603 95.5573 93.2481 95.5559 94.1359C95.5557 94.4618 95.5561 94.7876 95.5573 95.1135C95.5588 95.5583 95.5579 96.0031 95.5564 96.4479C95.5565 96.6969 95.5566 96.9458 95.5567 97.2023C95.5083 97.8495 95.4496 98.2711 95.1175 98.8282C94.3096 99.2587 93.5393 99.2738 92.6448 99.2679C92.4949 99.2685 92.345 99.2691 92.1906 99.2697C91.6866 99.2711 91.1826 99.2697 90.6786 99.2684C90.3143 99.2688 89.95 99.2695 89.5857 99.2702C88.5833 99.2719 87.5808 99.2711 86.5784 99.2698C85.4978 99.269 84.4172 99.2703 83.3367 99.2714C81.2193 99.2731 79.102 99.2728 76.9846 99.2716C75.2642 99.2707 73.5438 99.2706 71.8234 99.2711C71.5788 99.2711 71.3342 99.2712 71.0822 99.2712C70.5853 99.2714 70.0885 99.2715 69.5916 99.2716C65.0626 99.2727 60.5335 99.2716 56.0044 99.2695C51.8688 99.2677 47.7332 99.2678 43.5975 99.2697C38.9525 99.2718 34.3075 99.2726 29.6624 99.2714C29.1674 99.2713 28.6723 99.2712 28.1773 99.2711C27.8119 99.271 27.8119 99.271 27.4391 99.2709C25.7202 99.2705 24.0013 99.2711 22.2824 99.272C20.1885 99.2731 18.0945 99.2728 16.0006 99.2707C14.9316 99.2697 13.8627 99.2693 12.7938 99.2706C11.816 99.2718 10.8383 99.2711 9.86052 99.269C9.50605 99.2686 9.15159 99.2688 8.79712 99.2698C8.31668 99.271 7.8363 99.2698 7.35586 99.2679C7.21707 99.2689 7.07828 99.2698 6.93528 99.2707C6.16731 99.2649 5.56849 99.1833 4.88314 98.8282C4.37514 98.1698 4.44238 97.4604 4.44028 96.6545C4.4394 96.5142 4.43851 96.3738 4.4376 96.2292C4.43513 95.7589 4.43545 95.2886 4.43577 94.8182C4.4346 94.481 4.43327 94.1438 4.43179 93.8066C4.42834 92.8906 4.42743 91.9746 4.42718 91.0585C4.42681 90.2941 4.42537 89.5296 4.42398 88.7651C4.4208 86.9617 4.41985 85.1584 4.42013 83.355C4.42036 81.494 4.41624 79.6331 4.41007 77.7721C4.40497 76.1747 4.40287 74.5774 4.40312 72.98C4.40322 72.0258 4.4021 71.0716 4.39797 70.1174C4.39419 69.2201 4.39416 68.3229 4.397 67.4256C4.39741 67.0963 4.39648 66.7669 4.39413 66.4376C4.39112 65.988 4.39292 65.5387 4.39593 65.0891C4.39572 64.8375 4.39551 64.5859 4.39529 64.3267C4.51968 63.4889 4.8329 62.8261 5.68804 62.5725ZM32.0316 66.0157C31.784 66.1309 31.536 66.2454 31.2877 66.359C30.5564 66.6948 29.8287 67.0374 29.1019 67.3828C29.1019 67.5117 29.1019 67.6407 29.1019 67.7735C28.9629 67.7926 28.8239 67.8117 28.6807 67.8315C28.0407 67.9897 27.6079 68.2517 27.0511 68.6035C24.5987 70.0726 21.7883 71.1407 18.9098 70.5826C17.0226 70.0985 15.3793 69.2696 13.6722 68.3594C13.1377 68.0762 12.6029 67.7935 12.0678 67.5114C11.7138 67.3245 11.3603 67.1365 11.0076 66.9472C9.12175 65.9214 9.12175 65.9214 7.03157 65.625C7.01711 66.5636 7.00647 67.5021 6.99939 68.4408C6.99644 68.7602 6.99244 69.0796 6.98737 69.399C6.98028 69.8576 6.97694 70.3162 6.97435 70.7749C6.97133 70.9181 6.96831 71.0614 6.96519 71.2089C6.95823 71.6545 6.95823 71.6545 7.03157 72.2657C7.53024 72.5981 7.83263 72.7445 8.38655 72.9126C10.1884 73.4987 11.8244 74.2508 13.4471 75.2274C16.87 77.2402 16.87 77.2402 20.679 77.9908C21.0167 77.9957 21.0167 77.9957 21.3611 78.0007C22.7485 77.8619 23.9443 77.2161 25.1712 76.5869C25.4433 76.4491 25.7155 76.3113 25.9876 76.1734C26.1184 76.1068 26.2493 76.0401 26.3841 75.9714C26.8981 75.7101 27.414 75.4526 27.93 75.1953C28.0831 75.1188 28.2362 75.0423 28.3939 74.9634C28.4986 74.911 28.6034 74.8587 28.7113 74.8047C28.7113 74.6758 28.7113 74.5469 28.7113 74.4141C28.9006 74.3658 29.0899 74.3174 29.285 74.2676C30.1754 74.0148 30.997 73.6277 31.8363 73.2422C33.8055 72.3721 36.2452 72.3774 38.2862 73.0126C40.1749 73.7587 41.9667 74.7635 43.7236 75.7752C44.1517 76.019 44.1517 76.019 44.7269 75.9766C44.7269 76.1055 44.7269 76.2344 44.7269 76.3672C45.2512 76.6111 45.7767 76.8516 46.3046 77.0874C46.6268 77.2321 46.9476 77.3802 47.2629 77.5391C48.9111 78.2976 50.9382 78.1288 52.6248 77.5879C53.5412 77.2407 54.4114 76.8316 55.2738 76.3672C55.2738 76.2383 55.2738 76.1094 55.2738 75.9766C55.4815 75.9479 55.4815 75.9479 55.6934 75.9186C56.338 75.7597 56.7852 75.496 57.349 75.1465C60.3254 73.3621 63.4061 72.1148 66.9315 72.7906C68.1264 73.1016 69.257 73.6635 70.3395 74.2493C70.7258 74.4544 70.7258 74.4544 71.2894 74.4141C71.2894 74.543 71.2894 74.6719 71.2894 74.8047C71.4551 74.8876 71.6207 74.9704 71.7914 75.0557C72.0205 75.1703 72.2496 75.2848 72.4857 75.4029C72.669 75.4943 72.669 75.4943 72.8561 75.5876C73.4963 75.9072 74.1356 76.2283 74.773 76.5534C74.893 76.6143 75.0131 76.6752 75.1368 76.738C75.472 76.9081 75.8069 77.079 76.1417 77.2499C77.2456 77.7677 78.134 77.9869 79.3582 77.9908C79.7196 77.9957 79.7196 77.9957 80.0884 78.0007C81.6426 77.8577 82.9388 77.223 84.2899 76.4771C84.5667 76.3266 84.8437 76.1763 85.1207 76.0262C85.2544 75.9535 85.3882 75.8807 85.5259 75.8058C86.1773 75.4582 86.8384 75.1316 87.5003 74.8047C87.5003 74.6758 87.5003 74.5469 87.5003 74.4141C87.7843 74.3416 87.7843 74.3416 88.0741 74.2676C88.7974 74.0618 89.4581 73.7675 90.1401 73.4536C90.8622 73.1391 91.6031 72.8826 92.3465 72.6235C92.7629 72.4985 92.7629 72.4985 92.9691 72.2657C92.9864 71.7733 92.9916 71.2863 92.9881 70.7939C92.9879 70.6468 92.9876 70.4997 92.9873 70.3481C92.9862 69.8765 92.9838 69.4048 92.9813 68.9331C92.9803 68.6141 92.9794 68.2951 92.9786 67.976C92.9765 67.1924 92.9731 66.4087 92.9691 65.625C92.5634 65.3684 92.5634 65.3684 92.0246 65.5762C90.6106 66.0756 89.3585 66.642 88.0741 67.4294C87.3084 67.8886 86.5168 68.2803 85.7143 68.6707C85.3653 68.8425 85.0193 69.0207 84.6782 69.2078C82.185 70.5595 79.6111 71.0836 76.8534 70.3626C74.8118 69.7469 72.9531 68.5997 71.0941 67.5782C70.6211 67.3195 70.1478 67.0614 69.6734 66.8054C69.4024 66.659 69.1323 66.511 68.8633 66.3607C66.952 65.323 64.6297 65.0363 62.5002 65.5181C60.928 65.9913 59.5425 66.821 58.158 67.6816C55.3089 69.4415 51.8277 71.257 48.4058 70.5811C46.0177 69.9773 43.9314 68.7963 41.8017 67.5919C41.6512 67.5068 41.5006 67.4217 41.3455 67.334C41.1235 67.2084 41.1235 67.2084 40.897 67.0803C39.803 66.4703 38.7078 65.9716 37.5003 65.625C37.3258 65.5695 37.3258 65.5695 37.1478 65.5129C35.4571 65.185 33.5746 65.2512 32.0316 66.0157ZM28.8417 77.2971C25.3096 79.2754 21.9849 81.0309 17.8226 80.0049C16.004 79.4277 14.3542 78.4675 12.6956 77.5391C10.0154 75.8835 10.0154 75.8835 7.03157 75.1953C7.03157 77.4512 7.03157 79.7071 7.03157 82.0313C8.05437 82.4151 8.05437 82.4151 9.07778 82.7973C10.9497 83.5188 12.724 84.4365 14.4583 85.4396C17.2038 87.0218 19.6944 88.0715 22.8908 87.3612C24.9051 86.6608 26.7647 85.478 28.6221 84.4461C31.6512 82.7644 34.4625 81.6506 37.9154 82.605C39.5674 83.1017 41.0308 83.8701 42.5278 84.7143C43.3233 85.159 44.1289 85.5844 44.9344 86.0108C45.0854 86.0921 45.2365 86.1735 45.3921 86.2573C46.9095 87.0641 48.2008 87.6124 49.9393 87.5977C50.0922 87.5967 50.2452 87.5957 50.4028 87.5947C52.4359 87.5345 54.0643 86.7214 55.7582 85.6514C56.4811 85.211 57.2355 84.8447 57.9959 84.4742C58.3898 84.2803 58.7806 84.08 59.1678 83.873C61.8671 82.4444 64.375 81.7889 67.3488 82.6126C69.402 83.2743 71.2024 84.2479 73.0488 85.3416C75.8262 86.9792 78.4209 88.0663 81.6867 87.3642C83.6958 86.6467 85.5517 85.4789 87.4103 84.4461C88.9961 83.5673 90.5285 82.8683 92.2817 82.3754C92.7572 82.2739 92.7572 82.2739 92.9691 82.0313C92.9864 81.5247 92.9916 81.0234 92.9881 80.5168C92.9879 80.3654 92.9876 80.2139 92.9873 80.0579C92.9862 79.5723 92.9838 79.0867 92.9813 78.6011C92.9803 78.2727 92.9794 77.9442 92.9786 77.6158C92.9765 76.809 92.9731 76.0022 92.9691 75.1953C90.5773 75.519 88.7224 76.6572 86.6657 77.8544C85.4099 78.5803 84.1846 79.2064 82.8128 79.6875C82.5794 79.7797 82.5794 79.7797 82.3413 79.8737C79.8632 80.7616 77.3522 80.355 75.0003 79.2969C73.7392 78.6914 72.5147 78.0178 71.2894 77.3438C70.838 77.0974 70.3861 76.852 69.9332 76.6085C69.6598 76.4615 69.3872 76.3132 69.1155 76.1633C67.0024 75.0241 64.8399 74.6084 62.4713 75.1374C60.4537 75.847 58.5939 77.0187 56.731 78.054C53.6197 79.7782 50.7435 80.9047 47.1683 79.9317C45.223 79.3089 43.4724 78.2318 41.7044 77.2296C40.6492 76.6381 39.5745 76.0946 38.4769 75.586C38.3273 75.516 38.1778 75.446 38.0237 75.3739C34.6725 74.026 31.7033 75.6919 28.8417 77.2971ZM28.9195 86.9477C28.0278 87.4499 27.1251 87.9232 26.2088 88.3789C26.0864 88.4402 25.964 88.5014 25.8378 88.5645C23.2472 89.8451 20.6121 90.4566 17.7738 89.6485C16.067 89.0468 14.5037 88.2197 12.9573 87.2864C12.1213 86.8092 11.2669 86.3813 10.4007 85.9619C10.2459 85.8851 10.0911 85.8082 9.93165 85.729C9.7813 85.6573 9.63094 85.5856 9.47603 85.5118C9.34366 85.4479 9.2113 85.384 9.07492 85.3181C8.3991 85.0907 7.7406 85.0346 7.03157 84.961C7.02706 86.4346 7.02358 87.9082 7.02145 89.3819C7.02043 90.0661 7.01905 90.7503 7.01684 91.4345C7.01432 92.2203 7.01337 93.0061 7.0125 93.792C7.01149 94.0388 7.01048 94.2856 7.00945 94.5398C7.00943 94.7666 7.00942 94.9934 7.0094 95.227C7.00897 95.4278 7.00853 95.6287 7.00809 95.8355C6.98043 96.2815 6.98043 96.2815 7.22689 96.4844C7.68213 96.5037 8.13159 96.5101 8.58694 96.5084C8.80393 96.5088 8.80393 96.5088 9.0253 96.5091C9.51623 96.5096 10.0071 96.5088 10.4981 96.5079C10.8511 96.508 11.2041 96.5081 11.5572 96.5084C12.5321 96.5088 13.507 96.508 14.4819 96.5071C15.5315 96.5062 16.581 96.5065 17.6305 96.5067C19.4505 96.5068 21.2705 96.5062 23.0905 96.5051C25.7219 96.5035 28.3533 96.503 30.9847 96.5027C35.2535 96.5023 39.5224 96.501 43.7912 96.4991C47.9391 96.4973 52.087 96.496 56.2349 96.4951C56.4904 96.4951 56.7459 96.495 57.0091 96.495C58.2907 96.4947 59.5723 96.4945 60.8539 96.4942C71.4938 96.4922 82.1338 96.4888 92.7738 96.4844C92.8962 95.6578 92.9933 94.8656 92.9912 94.0297C92.9912 93.7248 92.9912 93.7248 92.9912 93.4138C92.9902 93.1987 92.9892 92.9836 92.9881 92.762C92.9879 92.5385 92.9876 92.315 92.9873 92.0848C92.9862 91.3744 92.9838 90.664 92.9813 89.9536C92.9803 89.4706 92.9794 88.9875 92.9786 88.5044C92.9765 87.3233 92.9732 86.1421 92.9691 84.961C92.6912 84.9861 92.4135 85.0129 92.1359 85.0404C91.9812 85.0551 91.8266 85.0698 91.6672 85.085C90.957 85.196 90.3856 85.4884 89.7586 85.8277C89.6271 85.8958 89.4957 85.964 89.3602 86.0343C88.1697 86.6575 87.0029 87.3243 85.8324 87.984C82.9703 89.5809 79.9094 90.5354 76.633 89.6233C75.019 89.101 73.5258 88.3682 72.0706 87.5C71.6036 87.2299 71.1353 86.9621 70.6668 86.6944C70.5493 86.6271 70.4317 86.5599 70.3106 86.4906C67.9317 85.1333 65.7655 84.1564 62.9581 84.6642C61.1512 85.1756 59.54 86.1911 57.9105 87.0995C54.4712 89.0162 51.35 90.5574 47.3163 89.6859C45.4431 89.0607 43.7143 88.064 41.9925 87.1094C41.2768 86.7179 40.5609 86.327 39.8441 85.9375C39.7091 85.8635 39.5742 85.7895 39.4351 85.7132C35.5016 83.6372 32.5409 84.9035 28.9195 86.9477Z" fill="black"/>
<path d="M12.0065 1.69905C13.0021 2.52306 13.6265 3.27481 14.0626 4.49217C14.1593 5.55565 14.1593 5.55565 14.2579 6.64061C19.0919 6.70506 23.9259 6.76952 28.9063 6.83592C29.0352 6.4492 29.1642 6.06248 29.297 5.66405C30.158 4.37716 31.3422 3.41979 32.8126 2.92967C33.1107 2.90732 33.4096 2.89525 33.7085 2.88957C33.8914 2.88568 34.0742 2.88178 34.2627 2.87777C34.5615 2.87287 34.5615 2.87287 34.8664 2.86787C35.0749 2.86379 35.2834 2.8597 35.4982 2.85549C36.1817 2.8425 36.8653 2.83102 37.5489 2.81981C37.781 2.8158 38.0131 2.8118 38.2521 2.80767C41.1696 2.75764 44.0873 2.71199 47.0052 2.69994C47.3215 2.69849 47.6379 2.69642 47.9543 2.69368C52.8997 2.65431 52.8997 2.65431 54.8829 4.49217C56.0548 5.90263 56.0548 5.90263 56.0548 6.83592C56.2849 6.83285 56.2849 6.83285 56.5196 6.82972C57.2273 6.82151 57.935 6.81649 58.6427 6.81151C58.8839 6.80823 59.1251 6.80496 59.3736 6.80159C64.4263 6.775 68.9212 8.72869 72.5663 12.2003C76.2438 15.8466 78.2874 20.6152 78.3426 25.7974C78.3425 26.1424 78.3415 26.4875 78.3395 26.8326C78.3391 27.108 78.3391 27.108 78.3386 27.3891C78.3376 27.968 78.3351 28.547 78.3326 29.126C78.3316 29.5217 78.3307 29.9174 78.3299 30.3131C78.3278 31.2764 78.3244 32.2398 78.3204 33.2031C78.544 33.2394 78.544 33.2394 78.7721 33.2763C79.297 33.3984 79.297 33.3984 79.8829 33.789C79.8829 33.918 79.8829 34.0469 79.8829 34.1797C80.0118 34.1797 80.1407 34.1797 80.2735 34.1797C80.7454 35.2313 80.7359 36.1559 80.7374 37.2925C80.7422 37.4832 80.747 37.6739 80.7519 37.8704C80.7567 39.0511 80.6653 39.725 79.8829 40.625C78.9675 41.4294 78.1045 41.4382 76.9321 41.447C76.7707 41.4489 76.6093 41.4508 76.443 41.4528C75.9084 41.4586 75.3738 41.4628 74.8391 41.4665C74.6563 41.4678 74.4735 41.4691 74.2851 41.4704C73.3171 41.4768 72.349 41.4815 71.3809 41.4853C70.5809 41.4888 69.7809 41.4956 68.9809 41.5054C68.014 41.5171 67.0472 41.5231 66.0801 41.525C65.7124 41.5267 65.3446 41.5304 64.9769 41.5361C61.5053 41.5874 61.5053 41.5874 60.3929 40.5532C59.3872 39.1979 59.6444 37.0325 59.8199 35.4484C60.0074 34.5075 60.3885 33.987 61.1329 33.3984C61.4556 33.2614 61.7809 33.13 62.1095 33.0078C62.124 31.8852 62.1346 30.7628 62.1417 29.6401C62.1446 29.2584 62.1486 28.8767 62.1537 28.495C62.1608 27.9456 62.1641 27.3964 62.1667 26.8471C62.1697 26.6769 62.1727 26.5068 62.1759 26.3315C62.1761 25.3809 62.1011 24.8163 61.5235 24.0234C61.5235 23.8945 61.5235 23.7656 61.5235 23.6328C61.3825 23.5764 61.2415 23.52 61.0963 23.4619C60.7694 23.3311 60.445 23.1934 60.1274 23.0415C58.9374 22.6356 57.4786 22.5655 56.2501 22.8515C55.7716 23.242 55.5872 23.5766 55.3208 24.1295C54.7588 25.2411 53.6823 25.9661 52.5544 26.437C51.7972 26.6711 51.036 26.6471 50.2493 26.6445C50.0637 26.6462 49.878 26.6478 49.6867 26.6495C49.0758 26.6541 48.4649 26.6543 47.8539 26.654C47.4271 26.6554 47.0002 26.6569 46.5733 26.6585C45.6793 26.6612 44.7854 26.6615 43.8915 26.6603C42.7494 26.6592 41.6075 26.6651 40.4654 26.673C39.5839 26.6781 38.7024 26.6787 37.8208 26.678C37.4 26.6783 36.9791 26.6802 36.5582 26.6836C35.9679 26.688 35.3779 26.6861 34.7876 26.6826C34.616 26.6852 34.4443 26.6878 34.2675 26.6905C32.797 26.6708 31.5228 26.2067 30.438 25.1916C29.7423 24.4417 29.3771 23.793 28.9063 22.8515C24.0724 22.8515 19.2384 22.8515 14.2579 22.8515C14.1935 23.5605 14.129 24.2695 14.0626 25C13.6025 25.9824 13.168 26.8544 12.3048 27.539C12.1759 27.539 12.047 27.539 11.9142 27.539C11.9142 27.668 11.9142 27.7969 11.9142 27.9297C10.7189 28.5875 9.60925 28.7945 8.26425 28.8086C8.12517 28.8121 7.98608 28.8156 7.84278 28.8193C6.7831 28.8075 6.15537 28.5122 5.27353 27.9297C5.27353 27.8008 5.27353 27.6719 5.27353 27.539C5.14462 27.539 5.01572 27.539 4.88291 27.539C4.39646 26.4098 4.43587 25.3289 4.43864 24.1223C4.43764 23.8976 4.43664 23.6729 4.43561 23.4415C4.4329 22.6998 4.43308 21.9582 4.43353 21.2166C4.43278 20.7004 4.43193 20.1843 4.431 19.6681C4.4294 18.5867 4.42957 17.5052 4.43063 16.4237C4.43181 15.1758 4.4294 13.9279 4.42524 12.68C4.42138 11.4768 4.42079 10.2736 4.42148 9.07033C4.42138 8.55958 4.42036 8.04882 4.41839 7.53808C4.41598 6.82374 4.4173 6.1095 4.41956 5.39516C4.41807 5.18458 4.41658 4.97401 4.41504 4.75705C4.4231 3.60501 4.51342 2.77085 5.07822 1.7578C6.78771 0.0921377 10.1299 0.409484 12.0065 1.69905ZM7.03134 3.71092C6.97262 4.11852 6.97262 4.11852 6.98305 4.59446C6.98224 4.78041 6.98142 4.96637 6.98057 5.15796C6.98167 5.36263 6.98277 5.56729 6.9839 5.77815C6.98353 5.99316 6.98316 6.20817 6.98277 6.42969C6.98205 7.14317 6.98414 7.85661 6.98633 8.57008C6.98656 9.06388 6.98665 9.55767 6.9866 10.0515C6.98691 11.0874 6.98848 12.1232 6.99115 13.1591C6.99422 14.3582 6.99525 15.5573 6.9951 16.7564C6.99498 17.9083 6.996 19.0603 6.9976 20.2122C6.99823 20.7032 6.99861 21.1942 6.99875 21.6852C6.99917 22.3699 7.00088 23.0546 7.00297 23.7393C7.00288 23.9443 7.00279 24.1494 7.0027 24.3607C7.00354 24.5461 7.00437 24.7315 7.00523 24.9225C7.00555 25.0846 7.00588 25.2466 7.00622 25.4136C6.99106 25.7837 6.99106 25.7837 7.22666 25.9765C8.37416 26.0767 9.41837 26.1382 10.4737 25.647C11.1914 24.9482 11.5507 24.398 11.5992 23.3899C11.6033 23.0558 11.6042 22.7215 11.6024 22.3873C11.6045 22.1128 11.6045 22.1128 11.6065 21.8327C11.6101 21.2285 11.6093 20.6244 11.6082 20.0203C11.6091 19.5997 11.6101 19.1792 11.6113 18.7586C11.6131 17.8774 11.6126 16.9963 11.6106 16.1151C11.6084 14.9866 11.6124 13.8581 11.6181 12.7296C11.6216 11.8611 11.6216 10.9927 11.6205 10.1242C11.6204 9.70819 11.6216 9.29212 11.624 8.87607C11.627 8.294 11.6249 7.71215 11.6215 7.13008C11.6234 6.95868 11.6253 6.78727 11.6272 6.61067C11.6145 5.55274 11.4557 4.93513 10.7423 4.10155C9.72349 3.48603 8.01052 2.73174 7.03134 3.71092ZM32.2144 6.15233C31.7961 6.58911 31.7961 6.58911 31.836 7.03123C31.7071 7.03123 31.5782 7.03123 31.4454 7.03123C31.2166 7.7178 31.2253 8.25849 31.2248 8.98321C31.2245 9.12142 31.2241 9.25963 31.2238 9.40203C31.2229 9.85892 31.2235 10.3158 31.2242 10.7727C31.224 11.0901 31.2238 11.4075 31.2236 11.725C31.2233 12.3902 31.2237 13.0555 31.2246 13.7208C31.2257 14.5739 31.2251 15.4271 31.2239 16.2803C31.2232 16.9357 31.2235 17.5912 31.224 18.2466C31.2241 18.5612 31.2239 18.8759 31.2235 19.1905C31.223 19.63 31.2237 20.0694 31.2248 20.5089C31.225 20.7592 31.2251 21.0094 31.2253 21.2672C31.2222 21.8817 31.2222 21.8817 31.4454 22.4609C31.5743 22.4609 31.7032 22.4609 31.836 22.4609C31.8763 22.5737 31.9166 22.6865 31.9581 22.8027C32.3442 23.4345 32.7472 23.6697 33.3985 24.0234C33.9927 24.1331 34.5743 24.1303 35.1773 24.1245C35.3524 24.1259 35.5276 24.1272 35.708 24.1287C36.2848 24.1321 36.8615 24.1298 37.4383 24.1272C37.8406 24.1277 38.2429 24.1285 38.6452 24.1294C39.4876 24.1306 40.3299 24.1289 41.1724 24.1253C42.2503 24.1208 43.3282 24.1234 44.4061 24.1281C45.2367 24.1309 46.0673 24.13 46.8979 24.128C47.2952 24.1274 47.6926 24.1281 48.0899 24.1299C48.6462 24.1319 49.2023 24.1288 49.7586 24.1245C49.9217 24.1261 50.0848 24.1277 50.2528 24.1293C51.368 24.1132 52.0255 23.9099 52.9298 23.2422C53.6808 22.3732 53.8093 21.7457 53.8121 20.6112C53.8135 20.47 53.8149 20.3288 53.8163 20.1834C53.8197 19.7198 53.8174 19.2564 53.8148 18.7927C53.8153 18.4688 53.8161 18.1448 53.8171 17.8209C53.8182 17.1432 53.8165 16.4655 53.8129 15.7878C53.8084 14.9208 53.811 14.0541 53.8157 13.1871C53.8185 12.5186 53.8176 11.8501 53.8156 11.1815C53.8151 10.8619 53.8157 10.5423 53.8175 10.2228C53.8195 9.7754 53.8165 9.32833 53.8121 8.88098C53.8115 8.62689 53.8109 8.3728 53.8102 8.11101C53.6903 7.27808 53.4791 6.88566 52.9298 6.24998C51.9012 5.50053 51.1281 5.35286 49.8754 5.35591C49.7123 5.35327 49.5492 5.35062 49.3812 5.34789C48.8454 5.34018 48.3097 5.33797 47.7738 5.33598C47.399 5.33206 47.0242 5.32786 46.6494 5.32339C45.865 5.31484 45.0806 5.30888 44.2962 5.30489C43.2942 5.29971 42.2924 5.28938 41.2905 5.27726C40.5167 5.26826 39.7429 5.26138 38.9691 5.25519C38.5998 5.25211 38.2306 5.24852 37.8614 5.24441C37.3436 5.23909 36.8259 5.23648 36.3081 5.23461C36.1577 5.2326 36.0073 5.2306 35.8523 5.22854C34.5334 5.22874 33.26 5.29883 32.2144 6.15233ZM14.0626 9.37498C14.0586 11.1112 14.0545 12.8474 14.0504 14.6362C14.0486 15.1851 14.0468 15.7339 14.045 16.2994C14.0444 16.7315 14.0439 17.1636 14.0435 17.5957C14.0425 17.8224 14.0415 18.0491 14.0405 18.2827C14.0405 18.4968 14.0404 18.7109 14.0404 18.9315C14.04 19.1184 14.0396 19.3054 14.0391 19.498C14.0151 19.9178 14.0151 19.9178 14.2579 20.1172C14.7072 20.1356 15.1571 20.1401 15.6068 20.1393C15.8183 20.1394 15.8183 20.1394 16.0341 20.1394C16.5023 20.1393 16.9704 20.1378 17.4386 20.1362C17.7624 20.1359 18.0861 20.1356 18.4099 20.1354C19.2637 20.1347 20.1175 20.1327 20.9712 20.1306C21.9948 20.1282 23.0183 20.1273 24.0418 20.1262C25.5982 20.1243 27.1546 20.1206 28.711 20.1172C28.711 16.5722 28.711 13.0273 28.711 9.37498C23.877 9.37498 19.0431 9.37498 14.0626 9.37498ZM56.4454 9.37498C56.4454 12.9199 56.4454 16.4648 56.4454 20.1172C57.6056 20.1816 58.7657 20.2461 59.961 20.3125C61.5469 20.7089 62.8078 21.3737 63.8673 22.6562C64.5479 23.9751 64.7655 25.1671 64.7675 26.6373C64.7708 26.8209 64.774 27.0045 64.7773 27.1938C64.7867 27.7727 64.791 28.3516 64.795 28.9306C64.8005 29.3264 64.8064 29.7221 64.8126 30.1178C64.8269 31.0811 64.8366 32.0444 64.8438 33.0078C66.3701 33.0127 67.8964 33.0162 69.4227 33.0185C69.9424 33.0195 70.4621 33.0208 70.9817 33.0225C71.7269 33.0249 72.472 33.026 73.2171 33.0269C73.4511 33.0279 73.685 33.0289 73.9261 33.0299C74.1411 33.0299 74.3562 33.03 74.5778 33.03C74.7682 33.0304 74.9586 33.0308 75.1547 33.0313C75.5811 33.0562 75.5811 33.0562 75.7813 32.8125C75.8011 32.2578 75.8086 31.7079 75.8073 31.1531C75.8076 30.9003 75.8076 30.9003 75.8078 30.6425C75.808 30.2841 75.8076 29.9256 75.8068 29.5672C75.8058 29.0245 75.8068 28.4819 75.808 27.9392C75.8079 27.5904 75.8077 27.2416 75.8073 26.8928C75.8079 26.6525 75.8079 26.6525 75.8085 26.4074C75.8023 24.8515 75.7458 23.3427 75.1954 21.875C75.1049 21.562 75.0155 21.2486 74.9269 20.935C74.3783 19.1129 73.54 17.3909 72.461 15.8203C72.3321 15.8203 72.2032 15.8203 72.0704 15.8203C72.01 15.6088 72.01 15.6088 71.9483 15.3931C71.6598 14.8029 71.3272 14.507 70.8116 14.1098C70.5079 13.8672 70.5079 13.8672 70.0807 13.4033C66.1565 9.74079 61.6475 9.37498 56.4454 9.37498ZM62.5001 35.7422C62.2334 36.2755 62.2789 36.7101 62.2804 37.3047C62.2799 37.5141 62.2794 37.7236 62.2788 37.9394C62.2682 38.4691 62.2682 38.4691 62.5001 38.8672C64.5085 38.8717 66.5169 38.8752 68.5253 38.8773C69.4578 38.8783 70.3903 38.8797 71.3228 38.8819C72.2219 38.884 73.121 38.8852 74.0202 38.8857C74.364 38.8861 74.7078 38.8868 75.0516 38.8878C75.5315 38.8892 76.0113 38.8894 76.4912 38.8893C76.6348 38.89 76.7784 38.8907 76.9263 38.8915C77.5813 38.948 77.5813 38.948 78.1251 38.6719C78.1251 37.7051 78.1251 36.7383 78.1251 35.7422C72.9688 35.7422 67.8126 35.7422 62.5001 35.7422Z" fill="#020202"/>
<path d="M11.5235 1.3672C11.6202 1.56056 11.6202 1.56056 11.7188 1.75782C11.3865 1.66114 11.3865 1.66114 11.0475 1.56251C10.1193 1.35854 9.21098 1.31027 8.26425 1.29396C8.12277 1.28892 7.9813 1.28388 7.83553 1.2787C6.83321 1.27502 6.25493 1.47668 5.46884 2.14845C5.08882 2.75215 5.02819 3.22103 5.02383 3.92825C5.02165 4.12982 5.01947 4.33139 5.01722 4.53906C5.0168 4.75907 5.01638 4.97907 5.01594 5.20574C5.01398 5.43826 5.01202 5.67078 5.01 5.91035C5.005 6.54707 5.00171 7.18377 4.99917 7.8205C4.99612 8.48626 4.99089 9.152 4.98588 9.81774C4.97675 11.078 4.96957 12.3383 4.9631 13.5986C4.95563 15.0336 4.94598 16.4685 4.93615 17.9035C4.91597 20.8549 4.89854 23.8064 4.88291 26.7578C4.39507 26.27 4.44296 26.1205 4.44136 25.4471C4.43929 25.1559 4.43929 25.1559 4.43717 24.8588C4.43765 24.645 4.43814 24.4312 4.43864 24.211C4.43764 23.9864 4.43664 23.7619 4.43561 23.5305C4.43289 22.7846 4.43309 22.0388 4.43353 21.2929C4.43278 20.7756 4.43193 20.2584 4.431 19.7411C4.42939 18.655 4.42957 17.5688 4.43063 16.4827C4.4318 15.229 4.42941 13.9754 4.42524 12.7217C4.42179 11.6447 4.42063 10.5677 4.42126 9.49067C4.42162 8.84776 4.42085 8.20489 4.41839 7.56198C4.41598 6.84381 4.4173 6.12575 4.41956 5.40758C4.41807 5.19578 4.41658 4.98398 4.41504 4.76576C4.42308 3.61085 4.51138 2.77315 5.07822 1.75782C6.67996 0.197147 9.60629 0.456612 11.5235 1.3672Z" fill="#191919"/>
<path d="M11.5234 1.36718C11.6201 1.56054 11.6201 1.56054 11.7188 1.7578C11.3864 1.66112 11.3864 1.66112 11.0474 1.56249C10.123 1.35969 9.21912 1.31028 8.27637 1.29393C8.13652 1.2889 7.99668 1.28386 7.8526 1.27868C6.78107 1.27473 6.16444 1.55676 5.27344 2.14843C5.28564 1.79442 5.28564 1.79442 5.46875 1.36718C7.15279 0.270594 9.76119 0.530205 11.5234 1.36718Z" fill="#1C1C1C"/>
<path d="M7.65381 0.952136C7.80021 0.953899 7.94662 0.955661 8.09746 0.957477C8.45823 0.962073 8.81897 0.969079 9.17969 0.97655C9.17969 1.041 9.17969 1.10546 9.17969 1.17186C8.92855 1.17942 8.92855 1.17942 8.67233 1.18712C7.31941 1.25423 6.38087 1.35004 5.27344 2.14843C5.33447 1.78221 5.33447 1.78221 5.46875 1.36718C6.2093 0.873473 6.79858 0.932716 7.65381 0.952136Z" fill="#313131"/>
<path d="M70.4551 42C70.5868 42.0716 70.5868 42.0716 70.7184 42.1562C70.7184 42.1906 70.7184 42.225 70.7184 42.2604C70.7531 42.2604 70.7879 42.2604 70.8237 42.2604C70.903 42.3478 70.903 42.3478 70.9882 42.4622C71.0165 42.4996 71.0449 42.5371 71.0741 42.5757C71.1395 42.677 71.1395 42.677 71.1395 42.7811C71.1743 42.7811 71.209 42.7811 71.2448 42.7811C71.3242 42.8686 71.3242 42.8686 71.4093 42.9829C71.4377 43.0204 71.4661 43.0578 71.4953 43.0964C71.5607 43.1977 71.5607 43.1977 71.5607 43.3019C71.5954 43.3019 71.6302 43.3019 71.666 43.3019C71.666 43.3363 71.666 43.3706 71.666 43.406C71.7007 43.406 71.7355 43.406 71.7713 43.406C71.8507 43.4935 71.8507 43.4935 71.9358 43.6078C71.9642 43.6453 71.9925 43.6827 72.0218 43.7213C72.0872 43.8226 72.0872 43.8226 72.0872 43.9268C72.1219 43.9268 72.1566 43.9268 72.1924 43.9268C72.403 44.2086 72.403 44.2086 72.403 44.3434C72.4378 44.3434 72.4725 44.3434 72.5083 44.3434C72.5848 44.4339 72.5848 44.4339 72.6794 44.568C72.7349 44.6454 72.7349 44.6454 72.7915 44.7244C72.8128 44.7542 72.8341 44.784 72.8561 44.8147C73.0042 45.0196 73.1565 45.2215 73.3079 45.424C73.3996 45.5467 73.4912 45.6694 73.5825 45.7925C73.6372 45.8662 73.6922 45.9398 73.7475 46.0132C73.9297 46.2585 73.9297 46.2585 73.9297 46.3743C73.9645 46.3743 73.9992 46.3743 74.035 46.3743C74.0698 46.4774 74.1045 46.5806 74.1403 46.6868C74.1751 46.6868 74.2098 46.6868 74.2456 46.6868C74.3061 46.7584 74.3061 46.7584 74.3734 46.8602C74.4114 46.9171 74.4114 46.9171 74.4501 46.9751C74.4774 47.0168 74.5046 47.0584 74.5327 47.1014C74.561 47.144 74.5893 47.1867 74.6185 47.2307C74.6787 47.3216 74.7387 47.4126 74.7985 47.5036C74.8891 47.6415 74.9801 47.779 75.0713 47.9165C75.1298 48.0049 75.1883 48.0934 75.2467 48.1819C75.2735 48.2225 75.3004 48.2631 75.328 48.3049C76.5262 50.1299 78.013 52.4068 77.9999 54.6608C77.9997 54.7127 77.9995 54.7645 77.9994 54.8179C77.9926 55.2802 77.9294 55.7147 77.8255 56.1645C77.8129 56.221 77.8003 56.2776 77.7873 56.3358C77.751 56.4883 77.7106 56.6387 77.6676 56.7894C77.655 56.8364 77.6423 56.8834 77.6293 56.9318C77.4387 57.5697 77.0833 58.2928 76.6673 58.8204C76.6326 58.8204 76.5978 58.8204 76.562 58.8204C76.5468 58.8601 76.5316 58.8998 76.516 58.9408C76.4567 59.0807 76.4567 59.0807 76.3514 59.237C76.3167 59.237 76.282 59.237 76.2462 59.237C76.2266 59.2805 76.2266 59.2805 76.2067 59.3248C76.1288 59.4673 76.039 59.5846 75.9303 59.7056C75.8955 59.7056 75.8608 59.7056 75.825 59.7056C75.8141 59.7346 75.8033 59.7636 75.7921 59.7935C75.6893 59.9645 75.5648 60.0549 75.4038 60.1743C75.3691 60.1743 75.3343 60.1743 75.2985 60.1743C75.2985 60.2087 75.2985 60.2431 75.2985 60.2785C75.2638 60.2785 75.229 60.2785 75.1932 60.2785C75.1932 60.3128 75.1932 60.3472 75.1932 60.3826C75.0666 60.4766 74.9404 60.5638 74.8083 60.6495C74.7719 60.6739 74.7356 60.6982 74.6981 60.7233C74.663 60.7464 74.6279 60.7694 74.5917 60.7931C74.5595 60.8143 74.5272 60.8354 74.494 60.8572C74.4036 60.9034 74.4036 60.9034 74.2456 60.9034C74.2456 60.9377 74.2456 60.9721 74.2456 61.0075C73.7648 61.2475 73.2832 61.4581 72.7715 61.6259C72.7263 61.6408 72.6811 61.6557 72.6345 61.671C70.8073 62.2543 68.8519 62.0371 67.1385 61.2158C66.8451 61.0608 66.569 60.8826 66.2961 60.6951C66.2659 60.6747 66.2356 60.6543 66.2045 60.6333C65.8567 60.3979 65.8567 60.3979 65.717 60.2785C65.717 60.2441 65.717 60.2097 65.717 60.1743C65.6823 60.1743 65.6475 60.1743 65.6117 60.1743C65.6117 60.1399 65.6117 60.1056 65.6117 60.0702C65.5665 60.0508 65.5665 60.0508 65.5204 60.0311C65.3827 59.956 65.2881 59.868 65.1774 59.7577C65.1402 59.7212 65.103 59.6847 65.0647 59.6471C64.98 59.5494 64.98 59.5494 64.98 59.4453C64.9452 59.4453 64.9105 59.4453 64.8747 59.4453C64.8747 59.4109 64.8747 59.3765 64.8747 59.3411C64.84 59.3411 64.8052 59.3411 64.7694 59.3411C64.7013 59.2675 64.7013 59.2675 64.6242 59.1635C64.5958 59.1252 64.5674 59.087 64.5382 59.0475C64.5081 59.0059 64.478 58.9642 64.447 58.9213C64.4161 58.8787 64.3853 58.8361 64.3536 58.7922C63.3212 57.341 62.8102 55.5412 63.0646 53.7674C63.3089 52.3809 64.0266 51.0352 64.7474 49.839C64.8276 49.7071 64.8276 49.7071 64.8747 49.5509C64.9094 49.5509 64.9442 49.5509 64.98 49.5509C64.9882 49.5078 64.9882 49.5078 64.9966 49.4639C65.0768 49.1937 65.2539 48.957 65.4012 48.7177C65.42 48.6871 65.4388 48.6565 65.4582 48.6249C65.7371 48.1727 66.028 47.7281 66.3225 47.2857C66.3547 47.2368 66.3869 47.1879 66.42 47.1375C66.4503 47.0924 66.4805 47.0473 66.5116 47.0009C66.5521 46.9401 66.5521 46.9401 66.5934 46.8781C66.6169 46.8493 66.6404 46.8206 66.6647 46.7909C66.6994 46.7909 66.7341 46.7909 66.7699 46.7909C66.8047 46.6878 66.8394 46.5847 66.8752 46.4785C66.91 46.4785 66.9447 46.4785 66.9805 46.4785C66.9957 46.4387 67.0109 46.399 67.0266 46.3581C67.0858 46.2181 67.0858 46.2181 67.1911 46.0619C67.2259 46.0619 67.2606 46.0619 67.2964 46.0619C67.3099 46.0242 67.3233 45.9865 67.3372 45.9477C67.4054 45.793 67.4859 45.6789 67.5907 45.546C67.6276 45.4987 67.6646 45.4514 67.7027 45.4026C67.7412 45.3538 67.7798 45.305 67.8196 45.2547C67.8958 45.1577 67.972 45.0606 68.048 44.9634C68.0818 44.9206 68.1156 44.8778 68.1504 44.8337C68.2478 44.7079 68.2478 44.7079 68.3287 44.5618C68.3528 44.5241 68.377 44.4864 68.402 44.4475C68.4367 44.4475 68.4714 44.4475 68.5072 44.4475C68.5072 44.4132 68.5072 44.3788 68.5072 44.3434C68.542 44.3434 68.5767 44.3434 68.6125 44.3434C68.6277 44.3037 68.6429 44.2639 68.6586 44.223C68.7178 44.083 68.7178 44.083 68.8231 43.9268C68.8579 43.9268 68.8926 43.9268 68.9284 43.9268C68.948 43.8849 68.948 43.8849 68.9679 43.8422C69.0498 43.6882 69.1408 43.5468 69.2443 43.406C69.279 43.406 69.3138 43.406 69.3496 43.406C69.3626 43.3781 69.3756 43.3502 69.3891 43.3214C69.471 43.1674 69.562 43.026 69.6655 42.8853C69.7002 42.8853 69.7349 42.8853 69.7707 42.8853C69.7838 42.8574 69.7968 42.8294 69.8102 42.8007C69.8922 42.6467 69.9831 42.5053 70.0866 42.3645C70.1214 42.3645 70.1561 42.3645 70.1919 42.3645C70.1919 42.3302 70.1919 42.2958 70.1919 42.2604C70.2267 42.2604 70.2614 42.2604 70.2972 42.2604C70.3135 42.2271 70.3298 42.1938 70.3466 42.1595C70.4025 42.0521 70.4025 42.0521 70.4551 42ZM69.6128 50.3321C69.6063 50.4279 69.6034 50.524 69.602 50.62C69.6009 50.6815 69.5999 50.743 69.5988 50.8064C69.5979 50.8733 69.5971 50.9403 69.5961 51.0092C69.5951 51.0774 69.594 51.1455 69.5928 51.2157C69.5899 51.3971 69.5873 51.5785 69.5848 51.7599C69.5821 51.9449 69.5792 52.1299 69.5763 52.3149C69.5706 52.6781 69.5653 53.0413 69.5602 53.4045C69.0129 53.4303 69.0129 53.4303 68.4546 53.4566C68.4958 53.6517 68.4958 53.6517 68.5599 53.769C68.5946 53.769 68.6294 53.769 68.6652 53.769C68.6838 53.8238 68.6838 53.8238 68.7028 53.8797C68.7832 54.0577 68.8877 54.1895 69.0107 54.3419C69.2553 54.6494 69.4833 54.9655 69.7058 55.2891C69.8049 55.433 69.905 55.5764 70.0049 55.7199C70.0798 55.8275 70.1547 55.9352 70.2295 56.0429C70.2502 56.0726 70.2709 56.1024 70.2923 56.1331C70.3471 56.2126 70.4011 56.2927 70.4551 56.3728C70.4899 56.3728 70.5246 56.3728 70.5604 56.3728C70.6461 56.2561 70.7256 56.1394 70.8039 56.018C70.8518 55.9454 70.8998 55.8727 70.9479 55.8002C70.9716 55.7643 70.9953 55.7285 71.0197 55.6916C71.1382 55.5153 71.2655 55.3458 71.3925 55.1755C71.5387 54.9774 71.6813 54.7768 71.8239 54.5762C72.0664 54.2354 72.3116 53.8967 72.561 53.5607C72.2977 53.3004 71.8271 53.4239 71.4554 53.4045C71.438 52.3906 71.4207 51.3767 71.4028 50.3321C71.2206 50.272 71.0779 50.2732 70.8858 50.2731C70.8511 50.273 70.8163 50.273 70.7806 50.2729C70.7074 50.2729 70.6342 50.273 70.561 50.2732C70.4486 50.2735 70.3362 50.2732 70.2238 50.2729C70.1527 50.2729 70.0816 50.273 70.0105 50.2731C69.9132 50.2732 69.9132 50.2732 69.8139 50.2733C69.6706 50.2632 69.6706 50.2632 69.6128 50.3321ZM64.9273 57.206C64.98 57.3102 64.98 57.3102 64.98 57.3102L64.9273 57.206ZM64.98 57.3102C65.1244 57.6041 65.1244 57.6041 65.2959 57.883C65.3306 57.883 65.3654 57.883 65.4012 57.883C65.4012 57.9174 65.4012 57.9517 65.4012 57.9872C65.4359 57.9872 65.4706 57.9872 65.5064 57.9872C65.5195 58.017 65.5325 58.0468 65.5459 58.0775C65.6219 58.2137 65.7108 58.3073 65.8223 58.4168C65.8592 58.4536 65.8962 58.4903 65.9342 58.5282C66.0245 58.6234 66.0245 58.6234 66.1382 58.6121C66.1382 58.6464 66.1382 58.6808 66.1382 58.7162C66.1729 58.7162 66.2077 58.7162 66.2435 58.7162C66.2435 58.7506 66.2435 58.7849 66.2435 58.8204C66.4348 58.9746 66.4348 58.9746 66.6647 59.0287C66.6647 59.063 66.6647 59.0974 66.6647 59.1328C66.7946 59.2238 66.9241 59.3076 67.0595 59.3899C67.0961 59.413 67.1328 59.436 67.1705 59.4598C67.3853 59.5918 67.5947 59.694 67.8334 59.7764C67.9596 59.8209 68.0778 59.8784 68.198 59.9367C68.9581 60.282 69.7561 60.4014 70.5863 60.3962C70.6919 60.3956 70.7976 60.3962 70.9032 60.3969C72.0319 60.3947 72.9389 60.0417 73.9297 59.5494C73.9297 59.515 73.9297 59.4807 73.9297 59.4453C74.034 59.4109 74.1382 59.3765 74.2456 59.3411C74.2456 59.3067 74.2456 59.2724 74.2456 59.237C74.2836 59.2241 74.3216 59.2112 74.3608 59.1979C74.5234 59.1264 74.641 59.0431 74.7721 58.9245C74.7721 58.8901 74.7721 58.8558 74.7721 58.8204C74.8068 58.8204 74.8416 58.8204 74.8774 58.8204C74.8774 58.786 74.8774 58.7516 74.8774 58.7162C74.9121 58.7162 74.9469 58.7162 74.9827 58.7162C74.9827 58.6818 74.9827 58.6475 74.9827 58.6121C75.0174 58.6121 75.0522 58.6121 75.088 58.6121C75.088 58.5777 75.088 58.5433 75.088 58.5079C75.1227 58.5079 75.1574 58.5079 75.1932 58.5079C75.1932 58.4735 75.1932 58.4392 75.1932 58.4038C75.228 58.4038 75.2627 58.4038 75.2985 58.4038C75.2985 58.3694 75.2985 58.335 75.2985 58.2996C75.3333 58.2996 75.368 58.2996 75.4038 58.2996C75.4725 58.2233 75.4725 58.2233 75.5389 58.1228C75.5645 58.0859 75.59 58.0491 75.6164 58.0111C75.6429 57.972 75.6694 57.933 75.6967 57.8928C75.7234 57.8543 75.7501 57.8159 75.7776 57.7763C75.9299 57.5552 75.9299 57.5552 76.0356 57.3102C75.6677 57.3962 75.3361 57.5458 75.0024 57.717C74.2961 58.0709 73.586 58.3481 72.8242 58.56C72.7859 58.5712 72.7476 58.5823 72.7081 58.5938C71.4344 58.9537 69.8856 58.8757 68.6125 58.56C68.5657 58.5485 68.5188 58.5371 68.4705 58.5253C67.8501 58.3701 67.2559 58.1638 66.664 57.9247C66.5106 57.8636 66.3556 57.8068 66.2007 57.7496C65.9049 57.6381 65.6209 57.5073 65.3368 57.3694C65.1844 57.297 65.1844 57.297 64.98 57.3102Z" fill="#010101"/>
<path d="M77.4074 44.5814L80.5671 45.9132C81.5629 46.2341 82.6172 45.6372 82.9182 44.5796C83.2208 43.5238 82.6579 42.4059 81.6605 42.0867C81.2895 41.9677 80.9104 41.9746 80.5655 42.0867L77.4074 43.4169C77.1048 43.5135 76.9324 43.8551 77.0251 44.1759C77.0837 44.3761 77.2334 44.5244 77.4074 44.5814Z" fill="black"/>
<path d="M62.5926 44.5814L59.4329 45.9132C58.4371 46.2341 57.3828 45.6372 57.0818 44.5796C56.7792 43.5238 57.3421 42.4059 58.3395 42.0867C58.7105 41.9677 59.0896 41.9746 59.4345 42.0867L62.5926 43.4169C62.8952 43.5135 63.0676 43.8551 62.9749 44.1759C62.9163 44.3761 62.7666 44.5244 62.5926 44.5814Z" fill="black"/>
<path d="M77.4074 44.5814L80.5671 45.9132C81.5629 46.2341 82.6172 45.6372 82.9182 44.5796C83.2208 43.5238 82.6579 42.4059 81.6605 42.0867C81.2895 41.9677 80.9104 41.9746 80.5655 42.0867L77.4074 43.4169C77.1048 43.5135 76.9324 43.8551 77.0251 44.1759C77.0837 44.3761 77.2334 44.5244 77.4074 44.5814Z" fill="black"/>
<path d="M62.5926 44.5814L59.4329 45.9132C58.4371 46.2341 57.3828 45.6372 57.0818 44.5796C56.7792 43.5238 57.3421 42.4059 58.3395 42.0867C58.7105 41.9677 59.0896 41.9746 59.4345 42.0867L62.5926 43.4169C62.8952 43.5135 63.0676 43.8551 62.9749 44.1759C62.9163 44.3761 62.7666 44.5244 62.5926 44.5814Z" fill="black"/>
<path d="M80.4802 45.9299L80 45.7712C81.0717 46.0212 82.1905 45.5141 82.5158 44.6222C82.7298 44.0351 82.5461 43.4298 82.0962 43C82.8157 43.382 83.1763 44.1293 82.9151 44.8442C82.6017 45.7052 81.5115 46.1897 80.4802 45.9299Z" fill="black"/>
<path d="M59.5198 45.9299L60 45.7712C58.9283 46.0212 57.8095 45.5141 57.4842 44.6222C57.2702 44.0351 57.4539 43.4298 57.9038 43C57.1843 43.382 56.8237 44.1293 57.0849 44.8442C57.3983 45.7052 58.4885 46.1897 59.5198 45.9299Z" fill="black"/>
<path d="M76.7678 46.1372L78.6403 47.794C79.1656 48.3443 79.1092 49.1831 78.513 49.668C77.9167 50.1528 77.0079 50.1008 76.4809 49.5505C76.286 49.3467 76.1716 49.1028 76.1345 48.85L76.004 46.4584C75.9717 46.2368 76.1393 46.0331 76.3794 46.0033C76.5309 45.9855 76.6743 46.0405 76.7678 46.1372Z" fill="black"/>
<path d="M63.2322 46.1372L61.3597 47.794C60.8344 48.3443 60.8908 49.1831 61.487 49.668C62.0833 50.1528 62.9921 50.1008 63.5191 49.5505C63.714 49.3467 63.8284 49.1028 63.8655 48.85L63.996 46.4584C64.0283 46.2368 63.8607 46.0331 63.6206 46.0033C63.4691 45.9855 63.3257 46.0405 63.2322 46.1372Z" fill="black"/>
<path d="M76.7678 46.1372L78.6403 47.794C79.1656 48.3443 79.1092 49.1831 78.513 49.668C77.9167 50.1528 77.0079 50.1008 76.4809 49.5505C76.286 49.3467 76.1716 49.1028 76.1345 48.85L76.004 46.4584C75.9717 46.2368 76.1393 46.0331 76.3794 46.0033C76.5309 45.9855 76.6743 46.0405 76.7678 46.1372Z" fill="black"/>
<path d="M63.2322 46.1372L61.3597 47.794C60.8344 48.3443 60.8908 49.1831 61.487 49.668C62.0833 50.1528 62.9921 50.1008 63.5191 49.5505C63.714 49.3467 63.8284 49.1028 63.8655 48.85L63.996 46.4584C64.0283 46.2368 63.8607 46.0331 63.6206 46.0033C63.4691 45.9855 63.3257 46.0405 63.2322 46.1372Z" fill="black"/>
<path d="M79 48.4396L78.9915 48C78.9184 48.9443 78.1718 49.6577 77.3027 49.5981C76.733 49.559 76.2534 49.1958 76 48.6836C76.1395 49.3951 76.6939 49.9482 77.3895 49.9967C78.2262 50.0544 78.9473 49.3578 79 48.4396Z" fill="black"/>
<path d="M61 48.4396L61.0085 48C61.0816 48.9443 61.8282 49.6577 62.6973 49.5981C63.267 49.559 63.7466 49.1958 64 48.6836C63.8605 49.3951 63.3061 49.9482 62.6105 49.9967C61.7738 50.0544 61.0527 49.3578 61 48.4396Z" fill="black"/>
<path d="M80.0329 47.5437L80.6305 49.4375C80.8436 49.9912 81.2983 50.1661 81.6464 49.827C81.9945 49.488 82.1044 48.7647 81.8913 48.211C81.8119 48.0054 81.6997 47.8521 81.5715 47.7583L80.3198 47.0332C80.2075 46.9503 80.0738 47.0278 80.0216 47.2082C79.9876 47.3182 79.9955 47.4445 80.0329 47.5437Z" fill="black"/>
<path d="M59.9671 47.5437L59.3695 49.4375C59.1564 49.9912 58.7017 50.1661 58.3536 49.827C58.0055 49.488 57.8956 48.7647 58.1087 48.211C58.1881 48.0054 58.3003 47.8521 58.4285 47.7583L59.6802 47.0332C59.7925 46.9503 59.9262 47.0278 59.9784 47.2082C60.0124 47.3182 60.0045 47.4445 59.9671 47.5437Z" fill="black"/>
<path d="M80.0329 47.5437L80.6305 49.4375C80.8436 49.9912 81.2983 50.1661 81.6464 49.827C81.9945 49.488 82.1044 48.7647 81.8913 48.211C81.8119 48.0054 81.6997 47.8521 81.5715 47.7583L80.3198 47.0332C80.2075 46.9503 80.0738 47.0278 80.0216 47.2082C79.9876 47.3182 79.9955 47.4445 80.0329 47.5437Z" fill="black"/>
<path d="M59.9671 47.5437L59.3695 49.4375C59.1564 49.9912 58.7017 50.1661 58.3536 49.827C58.0055 49.488 57.8956 48.7647 58.1087 48.211C58.1881 48.0054 58.3003 47.8521 58.4285 47.7583L59.6802 47.0332C59.7925 46.9503 59.9262 47.0278 59.9784 47.2082C60.0124 47.3182 60.0045 47.4445 59.9671 47.5437Z" fill="black"/>
<path d="M81.0599 49.6241L81 49.4382C81.1557 49.8148 81.4779 49.9319 81.7263 49.6977C81.8889 49.5432 81.9792 49.2752 81.9808 49C82.0415 49.3307 81.9559 49.6965 81.7574 49.8848C81.5184 50.1105 81.2063 49.9946 81.0599 49.6241Z" fill="black"/>
<path d="M36.0536 32.0045C36.1999 32.003 36.3462 32.0015 36.497 32C36.7314 32.0027 36.7314 32.0027 36.9706 32.0054C37.1328 32.0052 37.2949 32.0049 37.4619 32.0047C37.8042 32.005 38.1465 32.0068 38.4887 32.0101C39.0122 32.0147 39.5352 32.0134 40.0587 32.0113C40.3916 32.0123 40.7244 32.0136 41.0573 32.0153C41.2917 32.0146 41.2917 32.0146 41.5309 32.0139C42.1156 32.022 42.6172 32.0411 43.1544 32.2436C43.6794 32.7334 43.5938 33.2579 43.5804 33.8817C43.5805 34.0164 43.5806 34.1512 43.5807 34.29C43.5802 34.7357 43.5742 35.1813 43.5683 35.627C43.5668 35.9359 43.5658 36.2447 43.565 36.5536C43.5621 37.3669 43.5546 38.18 43.5462 38.9933C43.5384 39.823 43.5349 40.6527 43.531 41.4824C43.5229 43.1107 43.5098 44.7389 43.4938 46.3671C43.6616 46.3616 43.8295 46.3561 44.0024 46.3504C44.2238 46.3461 44.4452 46.3418 44.6733 46.3374C44.8923 46.3318 45.1112 46.3263 45.3368 46.3206C46.0326 46.3715 46.3809 46.4837 46.9252 46.8432C47.1289 47.5957 46.8997 48.057 46.4419 48.6935C46.2209 48.9737 45.9966 49.252 45.7695 49.5287C45.6504 49.678 45.5313 49.8273 45.4086 49.9811C45.0273 50.4576 44.6419 50.9317 44.2563 51.4058C44.0026 51.7223 43.7492 52.0388 43.496 52.3556C40.1527 56.5267 40.1527 56.5267 39.2999 57C38.6635 56.9776 38.293 56.9525 37.8296 56.5759C37.7388 56.4555 37.648 56.335 37.5544 56.2108C37.3867 55.9951 37.3867 55.9951 37.2156 55.775C37.0856 55.6031 36.9556 55.4313 36.8217 55.2543C36.6573 55.0463 36.4922 54.8387 36.3265 54.6314C35.8552 54.0415 35.3875 53.4498 34.9211 52.8573C34.6303 52.4881 34.3391 52.1191 34.0479 51.7502C33.5904 51.1704 33.1345 50.5898 32.6796 50.0087C32.4568 49.7249 32.2326 49.4419 32.0081 49.1592C31.8268 48.9281 31.8268 48.9281 31.6419 48.6924C31.4883 48.4982 31.4883 48.4982 31.3315 48.3C30.9704 47.7541 30.9209 47.4486 31.1027 46.8432C31.848 46.3531 32.4219 46.3138 33.3546 46.3374C33.6867 46.3438 33.6867 46.3438 34.0255 46.3504C34.1934 46.3559 34.3612 46.3614 34.5341 46.3671C34.5324 46.1975 34.5307 46.028 34.529 45.8532C34.5135 44.256 34.5021 42.6588 34.4946 41.0615C34.4906 40.2403 34.4852 39.4191 34.4766 38.598C34.4683 37.8056 34.4638 37.0133 34.4618 36.221C34.4604 35.9185 34.4576 35.6161 34.4535 35.3136C34.448 34.8903 34.4472 34.4672 34.4476 34.0439C34.4434 33.8559 34.4434 33.8559 34.4392 33.664C34.4443 33.1091 34.4809 32.7809 34.8735 32.3237C35.3209 32.0704 35.5209 32.0046 36.0536 32.0045ZM37.0123 34.1472C37.0086 34.5638 37.0048 34.9804 37.0009 35.4096C36.9881 36.7836 36.9733 38.1575 36.9575 39.5314C36.948 40.3647 36.9392 41.1979 36.9319 42.0312C36.9249 42.8349 36.9161 43.6385 36.9059 44.4422C36.9024 44.7493 36.8995 45.0564 36.8973 45.3636C36.8941 45.7926 36.8886 46.2216 36.8825 46.6507C36.8821 46.7786 36.8817 46.9066 36.8812 47.0384C36.8652 47.9179 36.8652 47.9179 36.4404 48.2715C36.0279 48.3372 36.0279 48.3372 35.5588 48.3707C35.3251 48.3885 35.3251 48.3885 35.0867 48.4067C34.9672 48.4144 34.8478 48.4222 34.7248 48.4302C35.0195 49.1375 35.4764 49.7272 35.9773 50.3427C36.0613 50.4472 36.1454 50.5518 36.2321 50.6595C36.4993 50.9914 36.7677 51.3226 37.0362 51.6538C37.2182 51.8795 37.4001 52.1053 37.582 52.3311C38.0266 52.8828 38.4723 53.4339 38.9186 53.9847C39.5002 53.3947 40.0325 52.7834 40.548 52.1528C40.6273 52.0561 40.7066 51.9593 40.7883 51.8596C40.9545 51.6566 41.1204 51.4535 41.2862 51.2503C41.5408 50.9384 41.7968 50.6274 42.0529 50.3163C42.2146 50.1185 42.3762 49.9207 42.5377 49.7227C42.6145 49.6297 42.6913 49.5366 42.7705 49.4407C43.1776 48.977 43.1776 48.977 43.3032 48.4302C43.124 48.4213 43.124 48.4213 42.9413 48.4122C42.7855 48.4018 42.6297 48.3914 42.4692 48.3806C42.3143 48.3714 42.1595 48.3622 42 48.3527C41.5875 48.2715 41.5875 48.2715 41.2062 47.7954C41.1656 47.3547 41.1469 46.9295 41.1454 46.4885C41.1435 46.3553 41.1416 46.2221 41.1396 46.0849C41.1337 45.6444 41.1305 45.2039 41.1273 44.7634C41.1237 44.4581 41.12 44.1527 41.1161 43.8474C41.1063 43.0436 41.0988 42.2398 41.0917 41.4359C41.0841 40.6158 41.0743 39.7956 41.0647 38.9755C41.0463 37.3661 41.0304 35.7567 41.0156 34.1472C39.6945 34.1472 38.3734 34.1472 37.0123 34.1472Z" fill="black"/>
</svg>
