<svg width="100" height="100" viewBox="0 0 100 100" fill="none" xmlns="http://www.w3.org/2000/svg">
<g clip-path="url(#clip0_310_1075)">
<path d="M41.0399 51.3398C41.2036 51.3386 41.3673 51.3375 41.536 51.3364C41.8045 51.336 41.8045 51.336 42.0784 51.3357C42.2675 51.3347 42.4565 51.3338 42.6512 51.3328C43.2774 51.3299 43.9036 51.3286 44.5299 51.3275C44.9646 51.3264 45.3993 51.3253 45.834 51.3241C46.7459 51.3221 47.6578 51.3209 48.5697 51.3203C49.7386 51.3192 50.9074 51.3145 52.0762 51.3089C52.9743 51.3053 53.8724 51.3043 54.7705 51.304C55.2014 51.3034 55.6324 51.3018 56.0633 51.2993C56.666 51.2959 57.2686 51.2963 57.8713 51.2976C58.0495 51.2958 58.2277 51.294 58.4113 51.2921C59.346 51.2983 59.988 51.3351 60.7423 51.9531C61.0693 52.6072 60.9779 53.3438 60.9842 54.0634C60.9857 54.2344 60.9873 54.4054 60.9889 54.5816C60.9917 54.9438 60.9937 55.306 60.9953 55.6682C60.9986 56.2221 61.0072 56.7757 61.0158 57.3296C61.0178 57.6813 61.0195 58.033 61.0208 58.3847C61.0242 58.5503 61.0276 58.716 61.0312 58.8866C61.0269 60.0366 61.0269 60.0366 60.5716 60.6469C60.0815 60.9899 59.7777 61.1036 59.1798 61.1328C58.4352 60.925 58.2521 60.8154 57.8126 60.1562C57.8126 58.2871 57.8126 56.418 57.8126 54.4922C52.6564 54.4922 47.5001 54.4922 42.1876 54.4922C42.1967 56.215 42.2058 57.9379 42.2151 59.713C42.2196 60.942 42.2236 62.171 42.2269 63.4C42.2312 64.9927 42.2367 66.5854 42.2466 68.178C42.2544 69.4389 42.2594 70.6998 42.2611 71.9606C42.2622 72.6282 42.2645 73.2958 42.2702 73.9633C42.2759 74.7088 42.2767 75.454 42.2763 76.1995C42.2805 76.5312 42.2805 76.5312 42.2848 76.8696C42.277 78.3614 42.277 78.3614 41.8281 79.1365C41.113 79.7396 40.4196 79.7346 39.5143 79.7974C39.2839 79.8137 39.0536 79.8301 38.8162 79.847C38.6397 79.8588 38.4632 79.8706 38.2814 79.8828C38.4302 80.0434 38.579 80.2041 38.7323 80.3696C39.8089 81.5331 40.8801 82.7008 41.9382 83.8814C42.4412 84.4396 42.9487 84.9936 43.4572 85.5469C44.2558 86.4161 45.0477 87.2912 45.836 88.1699C46.3499 88.7391 46.8686 89.3038 47.3878 89.8682C48.2075 90.7595 49.0143 91.6608 49.8048 92.5781C50.5023 92.2879 50.8879 91.9009 51.3795 91.333C52.0509 90.568 52.7282 89.8108 53.4181 89.0625C54.0731 88.3499 54.7247 87.6344 55.3712 86.9141C56.0177 86.1937 56.6695 85.4784 57.3244 84.7656C58.8057 83.1527 60.2662 81.5215 61.7189 79.8828C61.4609 79.8685 61.4609 79.8685 61.1978 79.8538C60.971 79.8392 60.7441 79.8246 60.5104 79.8096C60.2861 79.796 60.0617 79.7824 59.8306 79.7684C59.2089 79.6911 58.7568 79.5859 58.2033 79.2969C57.7385 78.5997 57.7603 78.2869 57.7528 77.4587C57.7512 77.3325 57.7495 77.2064 57.7479 77.0764C57.7432 76.6594 57.7414 76.2425 57.7402 75.8255C57.7384 75.5353 57.7366 75.2451 57.7348 74.9549C57.7316 74.3464 57.7301 73.7379 57.7295 73.1295C57.7285 72.3507 57.7211 71.5721 57.7122 70.7934C57.7064 70.1939 57.705 69.5944 57.7048 68.9949C57.7039 68.7078 57.7015 68.4208 57.6974 68.1338C57.6922 67.7317 57.6931 67.33 57.6956 66.9278C57.6946 66.6993 57.6936 66.4707 57.6926 66.2353C57.8491 65.4397 58.1646 65.1486 58.7892 64.6484C59.3751 64.5264 59.3751 64.5264 59.9611 64.6484C60.4554 64.9727 60.6588 65.1223 60.9376 65.625C61.0755 66.4546 61.0511 67.2741 61.033 68.1129C61.0309 68.475 61.0309 68.475 61.0288 68.8444C61.0243 69.4838 61.0155 70.123 61.0047 70.7623C60.9947 71.4156 60.9903 72.0689 60.9853 72.7222C60.9746 74.0024 60.9582 75.2824 60.9376 76.5625C61.0992 76.5574 61.2608 76.5523 61.4272 76.547C62.1592 76.5267 62.8911 76.514 63.6232 76.5015C63.8775 76.4933 64.1318 76.4851 64.3937 76.4767C64.638 76.4735 64.8822 76.4704 65.1338 76.4671C65.3588 76.462 65.5838 76.4569 65.8157 76.4516C66.4064 76.5625 66.4064 76.5625 66.8682 77.0224C67.2777 77.6847 67.3529 77.9447 67.1876 78.7109C66.7929 79.2887 66.3061 79.7717 65.8204 80.2734C65.5616 80.5552 65.3029 80.837 65.0452 81.1198C64.7679 81.4239 64.4894 81.7269 64.2106 82.0297C63.7346 82.5479 63.263 83.07 62.7931 83.5937C62.0557 84.4154 61.3107 85.2298 60.5638 86.0428C60.0013 86.6556 59.4425 87.2715 58.8869 87.8906C58.1495 88.7123 57.4045 89.5267 56.6575 90.3397C55.952 91.1082 55.2536 91.883 54.5572 92.6598C54.2207 93.0323 53.8827 93.403 53.5425 93.7721C53.4468 93.876 53.3511 93.9798 53.2525 94.0868C52.9812 94.381 52.7095 94.6747 52.4377 94.9684C52.1222 95.3197 51.816 95.6797 51.5214 96.0487C51.1485 96.5137 50.9616 96.7119 50.3908 96.875C49.7044 96.8775 49.2112 96.8263 48.6598 96.3953C48.2758 96.0105 47.9155 95.6128 47.5587 95.2026C47.4366 95.0676 47.3145 94.9325 47.1887 94.7933C46.6993 94.2497 46.219 93.6982 45.7383 93.1469C45.0303 92.3354 44.3131 91.5352 43.5792 90.7471C42.7348 89.8363 41.8989 88.9186 41.0699 87.9936C40.5669 87.4354 40.0593 86.8814 39.5509 86.3281C38.7516 85.4582 37.9589 84.5827 37.1705 83.7028C36.7574 83.2457 36.3396 82.7931 35.9203 82.3415C35.5563 81.9479 35.1955 81.5515 34.8362 81.1537C34.6594 80.9579 34.482 80.7627 34.3039 80.5681C34.0514 80.29 33.8042 80.0071 33.5573 79.7241C33.4135 79.5617 33.2697 79.3993 33.1216 79.232C32.7158 78.5476 32.701 78.1268 32.8126 77.3437C33.241 76.7659 33.4658 76.5817 34.1846 76.4738C34.4096 76.4779 34.6346 76.482 34.8665 76.4862C35.2328 76.49 35.2328 76.49 35.6065 76.4938C35.9879 76.5037 35.9879 76.5037 36.3771 76.5137C36.6344 76.5172 36.8917 76.5207 37.1568 76.5244C37.7922 76.5336 38.4274 76.5464 39.0626 76.5625C39.0621 76.4384 39.0616 76.3143 39.061 76.1864C39.0481 73.1676 39.0384 70.1487 39.0323 67.1298C39.0293 65.6699 39.0251 64.21 39.0184 62.7501C39.0126 61.4777 39.0088 60.2053 39.0075 58.9329C39.0067 58.2591 39.0049 57.5853 39.0007 56.9116C38.996 56.1596 38.9958 55.4076 38.9961 54.6556C38.994 54.432 38.9919 54.2083 38.9897 53.9779C38.9909 53.6706 38.9909 53.6706 38.9922 53.3571C38.9916 53.1793 38.9911 53.0014 38.9905 52.8181C39.0779 52.2435 39.2489 51.9797 39.6486 51.5625C40.1808 51.3851 40.4926 51.342 41.0399 51.3398Z" fill="black"/>
<path d="M5.48074 3.61325C7.66926 4.302 9.51458 5.60814 11.2646 7.06021C13.8239 9.09903 16.3483 9.41412 19.531 9.17966C20.2421 9.07313 20.8336 8.89638 21.4842 8.59372C21.6435 8.52197 21.8029 8.45021 21.9671 8.37628C23.1318 7.79481 24.1333 7.05434 25.1585 6.26218C28.3711 3.80178 31.6366 2.77031 35.6901 3.20279C38.633 3.60722 40.9052 4.97397 43.2149 6.77626C45.9286 8.87689 48.5885 9.45067 51.9529 9.17966C54.1367 8.78239 55.8424 7.50572 57.5559 6.16452C60.838 3.68707 64.3971 2.69266 68.4995 3.256C71.3514 3.71801 73.5239 5.12601 75.7476 6.90123C78.356 8.9556 80.9318 9.41545 84.1795 9.17966C86.5935 8.78112 88.342 7.39166 90.2342 5.93259C92.4606 4.24895 94.7701 3.37734 97.534 3.13718C97.6665 3.1235 97.799 3.10983 97.9355 3.09574C98.6297 3.05069 98.9948 3.10808 99.5977 3.466C100.019 3.92705 100.13 4.07736 100.11 4.68747C100.11 4.81638 100.11 4.94528 100.11 5.07809C99.9417 5.67395 99.7212 5.88448 99.2185 6.24997C98.6474 6.39641 98.0709 6.44685 97.4851 6.50632C94.9844 6.83692 93.1455 7.84868 91.1916 9.41817C87.792 12.1269 84.3587 12.7655 80.0779 12.5C77.1956 12.1502 75.0462 10.5583 72.813 8.84482C70.2083 6.86687 67.462 6.115 64.2088 6.55515C62.063 6.99993 60.3859 8.13451 58.7034 9.47263C55.121 12.3218 51.431 12.9022 46.9328 12.4229C44.4475 11.8967 42.3565 10.3709 40.3868 8.84868C37.941 6.97772 35.4006 6.12574 32.3179 6.50632C29.8005 6.94143 27.7809 8.33408 25.7932 9.87546C22.4251 12.4266 18.8356 12.9035 14.7146 12.4153C12.4791 11.9309 10.5707 10.7574 8.78885 9.37497C6.64855 7.7256 4.74462 6.73314 2.03011 6.45706C1.30953 6.37716 0.885395 6.32585 0.28894 5.89215C-0.0167324 5.44453 -0.111124 5.22381 -0.110077 4.68747C-0.114357 4.55856 -0.118637 4.42966 -0.123047 4.29684C0.527081 2.22936 3.93347 3.2326 5.48074 3.61325Z" fill="black"/>
<path d="M9.37518 24.4141C9.79365 24.7362 10.208 25.0608 10.6203 25.3906C13.1387 27.3823 15.7565 28.3757 18.9943 28.0029C21.2971 27.6761 22.7802 26.7797 24.6096 25.3906C28.3469 22.6824 31.8307 21.4198 36.5015 22.1123C38.9691 22.5425 40.9895 23.8002 42.9171 25.3428C45.5072 27.4068 48.1941 28.3842 51.5375 28.0342C53.6848 27.6669 55.4692 26.6096 57.1522 25.2664C60.2184 22.8209 63.6054 21.5954 67.573 21.9524C70.8469 22.3218 73.2296 23.7453 75.8058 25.7202C78.285 27.5998 80.8513 28.3483 83.9601 28.0273C86.1933 27.6539 87.9406 26.5401 89.6676 25.1522C91.8689 23.3992 94.1339 22.3573 96.924 22.0093C97.0766 21.9895 97.2293 21.9698 97.3865 21.9495C98.2337 21.8583 98.8411 21.8337 99.6096 22.2656C100.081 22.7373 100.058 22.8764 100.061 23.5229C100.064 23.6758 100.068 23.8286 100.071 23.986C99.9821 24.5229 99.8315 24.6597 99.4142 25C99.0381 25.1079 99.0381 25.1079 98.6139 25.1579C98.4584 25.1783 98.3028 25.1987 98.1426 25.2198C97.9781 25.2399 97.8137 25.26 97.6442 25.2808C94.6755 25.7083 92.8496 26.9443 90.4962 28.7102C87.203 31.1145 83.7081 31.8001 79.7098 31.208C77.1682 30.7649 75.156 29.4199 73.1346 27.8977C70.5081 25.9278 68.0397 24.9259 64.6845 25.2884C62.243 25.6898 60.5494 26.8932 58.6245 28.3501C55.2883 30.8474 51.8492 31.7901 47.7069 31.2698C45.1936 30.8955 43.2866 29.7377 41.2587 28.2668C38.3661 26.1695 35.8418 24.8773 32.1413 25.293C29.8006 25.7252 28.0262 26.9905 26.195 28.4185C24.4478 29.7574 22.3444 31.0201 20.1174 31.25C19.8186 31.2881 19.8186 31.2881 19.5139 31.3271C16.9691 31.5875 14.4532 31.3465 12.1096 30.2734C11.9472 30.2002 11.7848 30.1269 11.6175 30.0514C10.4008 29.444 9.37497 28.6582 8.31317 27.8198C6.24923 26.2097 4.42983 25.5185 1.83782 25.2097C1.68433 25.1904 1.53085 25.171 1.37271 25.1511C1.23523 25.1358 1.09775 25.1205 0.956099 25.1048C0.493502 24.9738 0.298697 24.786 0.000183105 24.4141C-0.0776367 23.9929 -0.0776367 23.9929 -0.0730591 23.5352C-0.0745697 23.3841 -0.0760803 23.233 -0.0776367 23.0774C0.0194942 22.5517 0.159833 22.3866 0.586121 22.0703C3.46152 21.1551 7.05417 22.8726 9.37518 24.4141Z" fill="black"/>
<path d="M5.85962 41.0156C7.77551 41.7575 9.32804 42.8898 10.9377 44.1406C13.6644 46.1793 16.1797 46.7682 19.5315 46.4844C21.6407 46.1784 23.4248 44.873 25.0491 43.5669C27.6045 41.5381 30.6548 40.2222 33.9785 40.3496C34.3752 40.4297 34.3752 40.4297 34.9856 40.8325C35.4452 41.5526 35.4892 41.9339 35.3518 42.7735C34.9045 43.3876 34.6541 43.5388 33.8999 43.6821C33.6394 43.7027 33.3787 43.7211 33.1179 43.7378C30.2154 44.0353 28.3756 45.2216 26.1088 46.978C24.8467 47.9394 23.5366 48.8107 22.0095 49.2798C21.8209 49.3395 21.6324 49.3991 21.4381 49.4606C18.1972 50.3545 14.4386 50.0332 11.4382 48.5352C10.5101 47.994 9.67541 47.3461 8.82593 46.6919C6.76969 45.11 4.6972 43.9137 2.05637 43.7134C1.3524 43.6585 0.891879 43.622 0.281005 43.2495C-0.122271 42.5657 -0.177199 41.9841 0.000243432 41.211C1.22614 39.6292 4.17224 40.5295 5.85962 41.0156Z" fill="black"/>
<path d="M68.9696 40.625C71.5213 41.1781 73.5829 42.4589 75.5958 44.0766C78.2169 46.1457 80.8899 46.8065 84.1796 46.4844C86.3351 46.1191 87.9353 45.0165 89.6338 43.6966C92.3339 41.601 95.5064 40.0261 99.0233 40.4297C99.6215 40.7227 99.6215 40.7227 99.9999 41.211C100.125 41.757 100.153 42.2329 99.9999 42.7735C99.5541 43.3972 99.3018 43.5391 98.5412 43.6821C98.2789 43.7028 98.0164 43.7212 97.7538 43.7378C95.1521 43.9919 93.2852 45.1581 91.2108 46.6797C88.4105 48.7338 85.8599 49.886 82.3607 49.8657C82.0627 49.8641 82.0627 49.8641 81.7585 49.8624C80.3465 49.8396 79.0607 49.7377 77.7343 49.2188C77.5596 49.1515 77.3848 49.0843 77.2048 49.0151C75.6646 48.3294 74.3881 47.3227 73.0487 46.3131C70.923 44.7246 68.9979 43.8599 66.3329 43.6768C65.7165 43.6186 65.4544 43.5701 64.9169 43.2373C64.5319 42.5724 64.529 42.162 64.6483 41.4063C65.6526 39.8329 67.3733 40.3691 68.9696 40.625Z" fill="black"/>
<path d="M41.9453 38.747C42.1363 38.7459 42.3272 38.7449 42.524 38.7437C43.1545 38.7414 43.7848 38.7462 44.4153 38.7512C44.8538 38.7516 45.2924 38.7515 45.7309 38.7512C46.6497 38.7515 47.5684 38.7552 48.4872 38.7613C49.6648 38.7691 50.8423 38.7699 52.02 38.7685C52.9254 38.7679 53.8309 38.7702 54.7363 38.7736C55.1705 38.7749 55.6048 38.7755 56.039 38.7754C56.6458 38.7757 57.2526 38.7799 57.8594 38.7852C58.0389 38.7846 58.2183 38.784 58.4031 38.7834C59.3386 38.7959 59.9875 38.8351 60.7422 39.4531C61.0208 40.0104 60.9981 40.3974 60.9375 41.0156C60.6644 41.5351 60.6644 41.5351 60.1563 41.9922C59.5108 42.1394 58.875 42.1235 58.2153 42.1154C58.0184 42.1168 57.8214 42.1182 57.6184 42.1197C56.9669 42.123 56.3156 42.1192 55.6641 42.115C55.2117 42.1152 54.7592 42.1157 54.3068 42.1164C53.3584 42.117 52.4102 42.1141 51.4618 42.1088C50.2454 42.1021 49.0291 42.1033 47.8127 42.1069C46.8784 42.109 45.9442 42.1073 45.0099 42.1043C44.5614 42.1033 44.1128 42.1034 43.6643 42.1046C43.0377 42.1057 42.4113 42.1017 41.7847 42.0964C41.5988 42.0976 41.4129 42.0989 41.2213 42.1002C39.9716 42.0821 39.9716 42.0821 39.3387 41.637C38.9252 40.999 38.9452 40.5871 39.0625 39.8437C39.8791 38.7052 40.6502 38.7283 41.9453 38.747Z" fill="black"/>
<path d="M41.9633 32.4909C42.1562 32.4891 42.3491 32.4874 42.5478 32.4857C43.1847 32.4814 43.8213 32.4842 44.4581 32.4875C44.901 32.4869 45.344 32.4859 45.7869 32.4847C46.7149 32.4832 47.6428 32.4853 48.5708 32.4899C49.7602 32.4955 50.9495 32.4923 52.139 32.4864C53.0535 32.4829 53.968 32.484 54.8825 32.4865C55.3211 32.4872 55.7596 32.4864 56.1982 32.4841C56.8112 32.4816 57.4239 32.4854 58.0369 32.4909C58.2182 32.4889 58.3994 32.4869 58.5861 32.4849C59.4653 32.4993 59.8438 32.5276 60.562 33.0768C60.9376 33.5938 60.9376 33.5938 61.0597 34.1797C60.8903 34.9928 60.621 35.2388 59.9611 35.7422C59.3127 35.885 58.6776 35.8737 58.0159 35.8655C57.8208 35.8669 57.6257 35.8683 57.4247 35.8697C56.7805 35.873 56.1367 35.8692 55.4925 35.865C55.0448 35.8652 54.597 35.8657 54.1492 35.8665C53.2112 35.867 52.2733 35.8642 51.3353 35.8588C50.1323 35.8521 48.9294 35.8533 47.7263 35.857C46.8019 35.859 45.8775 35.8573 44.9532 35.8544C44.5095 35.8534 44.0659 35.8534 43.6222 35.8547C43.0027 35.8557 42.3833 35.8518 41.7638 35.8464C41.4881 35.8483 41.4881 35.8483 41.2069 35.8503C39.9713 35.8321 39.9713 35.8321 39.3401 35.387C38.9248 34.7493 38.9452 34.3377 39.0626 33.5938C39.8806 32.4508 40.6643 32.4767 41.9633 32.4909Z" fill="black"/>
<path d="M41.0398 45.0898C41.2035 45.0886 41.3672 45.0875 41.5359 45.0864C41.8044 45.086 41.8044 45.086 42.0783 45.0857C42.2674 45.0847 42.4564 45.0838 42.6511 45.0828C43.2773 45.0799 43.9035 45.0786 44.5298 45.0775C44.9645 45.0764 45.3992 45.0753 45.8339 45.0741C46.7458 45.0721 47.6577 45.0709 48.5696 45.0703C49.7385 45.0692 50.9073 45.0645 52.0761 45.0589C52.9742 45.0553 53.8723 45.0543 54.7704 45.054C55.2013 45.0534 55.6323 45.0518 56.0632 45.0493C56.6659 45.0459 57.2685 45.0463 57.8712 45.0476C58.0494 45.0458 58.2276 45.044 58.4112 45.0421C59.3459 45.0483 59.9879 45.0851 60.7422 45.7031C61.0209 46.2604 60.9981 46.6474 60.9375 47.2656C60.6644 47.7851 60.6644 47.7851 60.1563 48.2422C59.5108 48.3894 58.875 48.3736 58.2154 48.3654C58.0184 48.3668 57.8214 48.3682 57.6185 48.3697C56.9669 48.373 56.3156 48.3692 55.6641 48.365C55.2117 48.3652 54.7592 48.3657 54.3068 48.3664C53.3585 48.367 52.4102 48.3641 51.4618 48.3588C50.2454 48.3521 49.0292 48.3533 47.8127 48.3569C46.8785 48.359 45.9442 48.3573 45.0099 48.3543C44.5614 48.3533 44.1128 48.3534 43.6643 48.3546C43.0377 48.3557 42.4113 48.3517 41.7847 48.3464C41.5988 48.3476 41.4129 48.3489 41.2214 48.3502C39.9723 48.3321 39.9723 48.3321 39.3372 47.8878C38.9351 47.2628 38.9717 46.8207 39.0625 46.0937C39.5425 45.2253 40.0898 45.0936 41.0398 45.0898Z" fill="black"/>
</g>
<defs>
<clipPath id="clip0_310_1075">
<rect width="100" height="100" fill="white"/>
</clipPath>
</defs>
</svg>
