<svg width="77" height="128" viewBox="0 0 77 128" fill="none" xmlns="http://www.w3.org/2000/svg">
<path d="M58.8479 38.5947L67.9891 23.8583L73.6246 27.099L64.4835 41.8354L58.8479 38.5947ZM61.4393 20.0565L53.2091 15.359C52.8958 15.1833 52.5569 15.0539 52.2032 14.975L47.5709 6.70756C47.2871 6.23 46.8216 5.88126 46.2729 5.73504C45.7241 5.58882 45.135 5.65658 44.6302 5.92399C44.1253 6.1914 43.7442 6.63753 43.5673 7.16807C43.3905 7.69862 43.4318 8.27203 43.6825 8.76712L48.0717 16.612L40.5675 7.85972C39.8152 6.94978 38.4343 6.88046 37.4758 7.58438C36.533 8.35034 36.3976 9.70437 37.1714 10.6089L42.6297 17.018L33.687 11.9285C32.6502 11.3324 31.2831 11.6775 30.6536 12.6944C30.0293 13.7319 30.3796 15.0293 31.4163 15.6255L41.2946 21.2706L39.9403 22.2065L37.8577 23.6782L34.4667 27.4379C34.4667 27.4379 33.2845 30.0461 33.3699 31.0145C33.434 31.9882 36.4723 36.1925 36.4723 36.1925L36.4937 36.1872C37.013 36.804 37.8646 37.1169 38.7191 36.9012C39.2856 36.7582 39.774 36.4031 40.0767 35.9142C40.3794 35.4252 40.4717 34.8424 40.3332 34.2939C40.281 34.0871 40.1751 33.9379 40.0641 33.7679L40.1016 33.7365L37.938 30.4771L40.0539 27.7872C41.0684 27.5751 43.2677 27.1958 44.3301 26.9936C51.441 30.5877 46.4308 33.9644 46.4308 33.9644L39.593 38.0224L39.3029 38.4036C39.1332 38.6551 39.0228 38.9393 38.9797 39.2356C38.9366 39.5319 38.9618 39.8328 39.0536 40.1164L39.6549 42.3183L53.1297 37.8166C53.9467 37.6323 54.6426 37.1486 55.0998 36.4393L62.5461 24.4405C63.3964 23.038 62.9118 20.9386 61.4393 20.0565Z" fill="black"/>
<path d="M44 75C40.6688 77.8438 39 80.3 39 82.375C39 85.4875 41.375 87.5 44 87.5C46.625 87.5 49 85.4875 49 82.375C49 80.3 47.3312 77.8438 44 75ZM41.3937 82.5C41.625 82.5 41.8125 82.6625 41.8562 82.8875C42.1125 84.275 43.2813 84.75 44.1313 84.6812C44.4 84.6687 44.625 84.8812 44.625 85.15C44.625 85.4 44.425 85.6062 44.175 85.6187C42.8437 85.7 41.2875 84.9375 40.9313 83.0437C40.9204 82.9767 40.9242 82.9082 40.9425 82.8428C40.9607 82.7774 40.9929 82.7168 41.0369 82.665C41.0809 82.6133 41.1356 82.5718 41.1972 82.5433C41.2588 82.5148 41.3259 82.5 41.3937 82.5Z" fill="black"/>
<path d="M0 128V121.273C2.185 121.273 3.80995 120.712 4.87485 119.591C5.93975 118.47 8.1673 117.909 11.5575 117.909C14.95 117.909 17.1787 118.47 18.2436 119.591C19.3085 120.712 20.8748 121.273 22.9425 121.273C25.1275 121.273 26.7524 120.712 27.8173 119.591C28.8822 118.47 31.1098 117.909 34.5 117.909C37.7775 117.909 40.0062 118.47 41.1861 119.591C42.366 120.712 43.9898 121.273 46.0575 121.273C48.2425 121.273 49.8387 120.712 50.8461 119.591C51.8535 118.47 54.0523 117.909 57.4425 117.909C60.835 117.909 63.0637 118.47 64.1286 119.591C65.1935 120.712 66.8173 121.273 69 121.273V128C65.7225 128 63.4949 127.439 62.3173 126.318C61.1397 125.197 59.5148 124.636 57.4425 124.636C55.3725 124.636 53.8062 125.197 52.7436 126.318C51.681 127.439 49.4523 128 46.0575 128C42.78 128 40.5525 127.439 39.3749 126.318C38.1973 125.197 36.5723 124.636 34.5 124.636C32.315 124.636 30.6912 125.197 29.6286 126.318C28.566 127.439 26.3373 128 22.9425 128C19.55 128 17.3512 127.439 16.3461 126.318C15.341 125.197 13.7448 124.636 11.5575 124.636C9.3725 124.636 7.7487 125.197 6.6861 126.318C5.6235 127.439 3.3948 128 0 128ZM0 114.545V107.818C2.185 107.818 3.80995 107.258 4.87485 106.136C5.93975 105.015 8.1673 104.455 11.5575 104.455C14.835 104.455 17.035 105.015 18.1574 106.136C19.2798 107.258 20.8748 107.818 22.9425 107.818C25.1275 107.818 26.7513 107.258 27.8139 106.136C28.8765 105.015 31.1052 104.455 34.5 104.455C37.7775 104.455 39.9913 105.015 41.1413 106.136C42.2913 107.258 43.8725 107.818 45.885 107.818C48.07 107.818 49.6938 107.258 50.7564 106.136C51.819 105.015 54.0477 104.455 57.4425 104.455C60.72 104.455 62.9487 105.015 64.1286 106.136C65.3085 107.258 66.9323 107.818 69 107.818V114.545C65.6075 114.545 63.3501 113.985 62.2277 112.864C61.1053 111.742 59.5102 111.182 57.4425 111.182C55.3725 111.182 53.8062 111.742 52.7436 112.864C51.681 113.985 49.4523 114.545 46.0575 114.545C42.78 114.545 40.5525 113.985 39.3749 112.864C38.1973 111.742 36.5723 111.182 34.5 111.182C32.315 111.182 30.7188 111.742 29.7114 112.864C28.704 113.985 26.5052 114.545 23.115 114.545C19.7225 114.545 17.4662 113.985 16.3461 112.864C15.226 111.742 13.6298 111.182 11.5575 111.182C9.4875 111.182 7.8637 111.742 6.6861 112.864C5.5085 113.985 3.2798 114.545 0 114.545ZM0 101.091V94.3636C2.185 94.3636 3.80995 93.803 4.87485 92.6818C5.93975 91.5606 8.1673 91 11.5575 91C14.835 91 17.035 91.5606 18.1574 92.6818C19.2798 93.803 20.8748 94.3636 22.9425 94.3636C25.1275 94.3636 26.7513 93.803 27.8139 92.6818C28.8765 91.5606 31.1052 91 34.5 91C37.7775 91 39.9913 91.5606 41.1413 92.6818C42.2913 93.803 43.8725 94.3636 45.885 94.3636C48.07 94.3636 49.6938 93.803 50.7564 92.6818C51.819 91.5606 54.0477 91 57.4425 91C60.72 91 62.9487 91.5606 64.1286 92.6818C65.3085 93.803 66.9323 94.3636 69 94.3636V101.091C65.6075 101.091 63.3501 100.53 62.2277 99.4091C61.1053 98.2879 59.5102 97.7273 57.4425 97.7273C55.3725 97.7273 53.8062 98.2879 52.7436 99.4091C51.681 100.53 49.4523 101.091 46.0575 101.091C42.78 101.091 40.5525 100.53 39.3749 99.4091C38.1973 98.2879 36.5723 97.7273 34.5 97.7273C32.315 97.7273 30.7188 98.2879 29.7114 99.4091C28.704 100.53 26.5052 101.091 23.115 101.091C19.7225 101.091 17.4662 100.53 16.3461 99.4091C15.226 98.2879 13.6298 97.7273 11.5575 97.7273C9.4875 97.7273 7.8637 98.2879 6.6861 99.4091C5.5085 100.53 3.2798 101.091 0 101.091Z" fill="black"/>
<path d="M26.7483 34.2848C27.4836 34.8173 28.1856 35.5225 28.5941 36.3396C28.744 36.3405 28.744 36.3405 28.897 36.3414C29.9388 36.3481 30.9805 36.3591 32.0222 36.3728C32.4108 36.3773 32.7994 36.3807 33.188 36.3829C33.7472 36.3863 34.3062 36.3938 34.8654 36.402C35.0386 36.4022 35.2119 36.4024 35.3904 36.4026C36.3651 36.4214 36.9633 36.4765 37.6996 37.1383C38.2763 38.0035 38.1374 39.1679 38.0191 40.1735C37.7192 40.7796 37.3427 41.1506 36.7411 41.4514C36.4752 41.4659 36.2086 41.4702 35.9423 41.4696C35.6929 41.4696 35.6929 41.4696 35.4384 41.4695C35.2584 41.4687 35.0783 41.4679 34.8928 41.467C34.7089 41.4668 34.525 41.4666 34.3355 41.4663C33.7462 41.4655 33.157 41.4634 32.5678 41.4614C32.169 41.4606 31.7703 41.4599 31.3716 41.4592C30.3925 41.4575 29.4134 41.4548 28.4344 41.4514C28.3603 41.6837 28.3603 41.6837 28.2846 41.9207C28.1149 42.4099 28.1149 42.4099 27.9552 42.5696C27.9296 42.9836 27.9137 43.3939 27.9046 43.8083C27.8996 43.9941 27.8996 43.9941 27.8946 44.1837C27.8841 44.5808 27.8747 44.978 27.8653 45.3752C27.8584 45.6438 27.8514 45.9124 27.8444 46.1811C27.8271 46.8409 27.8113 47.5008 27.7954 48.1607C29.4823 48.1607 31.1692 48.1607 32.9072 48.1607C32.9072 49.0569 32.9072 49.953 32.9072 50.8764C33.2461 50.8652 33.2461 50.8652 33.5918 50.8539C35.456 50.8109 37.0477 50.8794 38.8178 51.5153C38.9167 51.5504 39.0156 51.5855 39.1175 51.6216C41.2502 52.3894 43.1661 53.3851 44.8881 54.87C45.0552 55.0025 45.0552 55.0025 45.2256 55.1377C47.5246 57.008 48.9436 60.0505 49.321 62.957C49.3838 64.3068 49.3609 65.6593 49.3609 67.0105C45.7235 67.0105 42.0861 67.0105 38.3385 67.0105C38.1804 66.3252 38.0222 65.6399 37.8593 64.9339C37.4555 64.1119 36.9318 63.6988 36.1021 63.3364C35.5435 63.2413 35.5435 63.2413 34.9549 63.2535C34.845 63.2523 34.7351 63.2511 34.6219 63.2499C34.2566 63.2467 33.8915 63.2479 33.5263 63.2492C33.2633 63.2478 33.0003 63.2461 32.7373 63.2442C32.0255 63.2398 31.3137 63.2392 30.6018 63.2394C29.8571 63.2389 29.1124 63.2348 28.3677 63.2311C26.9585 63.2246 25.5492 63.2213 24.14 63.2193C22.235 63.2162 20.33 63.2082 18.425 63.2005C15.4249 63.1885 12.4249 63.1831 9.4248 63.1767C9.4248 59.1703 9.4248 55.1639 9.4248 51.0361C12.166 51.0361 14.9072 51.0361 17.7315 51.0361C17.7315 50.0872 17.7315 49.1383 17.7315 48.1607C19.4184 48.1607 21.1053 48.1607 22.8433 48.1607C22.8352 47.3818 22.8251 46.6034 22.8102 45.8246C22.8057 45.56 22.8023 45.2953 22.8 45.0307C22.7966 44.6491 22.7891 44.2678 22.7809 43.8863C22.7807 43.7689 22.7805 43.6516 22.7803 43.5307C22.7573 42.7115 22.6452 42.1828 22.0446 41.6112C21.4527 41.4741 20.8738 41.4889 20.2687 41.4995C20.0075 41.4979 20.0075 41.4979 19.7411 41.4963C19.1843 41.4935 18.6278 41.497 18.071 41.5014C17.5154 41.5032 16.9599 41.5036 16.4043 41.5013C16.0586 41.5001 15.713 41.5014 15.3674 41.5055C14.4912 41.5051 13.8506 41.4782 13.0989 40.9722C12.5658 40.3385 12.5369 39.7042 12.5398 38.9055C12.5353 38.7952 12.5308 38.685 12.5261 38.5714C12.5237 37.9441 12.615 37.5471 13.0041 37.0678C13.5571 36.5223 13.7837 36.4794 14.5367 36.4812C14.7861 36.4812 14.7861 36.4812 15.0406 36.4813C15.2206 36.4821 15.4007 36.4829 15.5862 36.4838C15.7701 36.484 15.954 36.4842 16.1435 36.4844C16.7328 36.4853 17.322 36.4873 17.9112 36.4894C18.31 36.4902 18.7087 36.4909 19.1074 36.4916C20.0865 36.4933 21.0656 36.496 22.0446 36.4994C22.0931 36.3739 22.1415 36.2484 22.1914 36.1191C22.5138 35.3379 23.0637 34.7781 23.7319 34.2729C24.7025 33.9729 25.8036 33.8456 26.7483 34.2848Z" fill="black"/>
<path d="M0 41.771C5.60188 41.771 5.60188 41.771 7.06498 43.1847C8.17674 44.5329 8.44747 45.8986 8.42566 47.6024C8.42683 47.8089 8.42799 48.0154 8.42919 48.2281C8.43217 48.7886 8.42922 49.3489 8.42493 49.9093C8.42129 50.4991 8.42263 51.0889 8.42326 51.6787C8.42354 52.6684 8.42002 53.6579 8.41412 54.6475C8.40735 55.788 8.40623 56.9283 8.40822 58.0688C8.41005 59.1712 8.40823 60.2735 8.40466 61.3758C8.40318 61.8426 8.40289 62.3095 8.40356 62.7763C8.40428 63.4292 8.39964 64.082 8.39446 64.735C8.39525 64.9264 8.39604 65.1178 8.39686 65.315C8.37835 66.7826 8.09546 68.0967 7.08866 69.2171C6.99435 69.3268 6.90004 69.4366 6.80287 69.5497C4.57608 71.3627 3.17446 70.6847 0 70.6847C0 61.1432 0 51.6017 0 41.771Z" fill="black"/>
<path d="M36.7412 67.9692C41.3275 67.9692 45.9137 67.9692 50.639 67.9692C50.639 69.4453 50.639 70.9213 50.639 72.4421C46.0527 72.4421 41.4665 72.4421 36.7412 72.4421C36.7412 70.966 36.7412 69.49 36.7412 67.9692Z" fill="black"/>
<path d="M0 41.771C1.42332 41.771 2.84665 41.771 4.3131 41.771C4.3131 41.8764 4.3131 41.9819 4.3131 42.0905C4.47125 42.1432 4.62939 42.1959 4.79233 42.2502C2.57827 42.1712 2.57827 42.1712 0.319489 42.0905C0.319489 51.4212 0.319489 60.7518 0.319489 70.3652C1.84824 70.3125 3.377 70.2598 4.95208 70.2055C5.03115 70.3636 5.03115 70.3636 5.11182 70.525C3.58703 71.2874 1.70477 70.6847 0 70.6847C0 61.1432 0 51.6017 0 41.771Z" fill="black"/>
<path d="M37.5398 39.854C37.5925 39.854 37.6453 39.854 37.6996 39.854C37.7595 40.2034 37.7595 40.2034 37.6996 40.6527C37.2684 41.1538 36.9911 41.4088 36.3332 41.5211C35.8304 41.5439 35.3336 41.5412 34.8304 41.5294C34.5559 41.5278 34.5559 41.5278 34.2758 41.526C33.693 41.5216 33.1105 41.5115 32.5278 41.5014C32.132 41.4974 31.7362 41.4937 31.3404 41.4904C30.3716 41.4817 29.403 41.4683 28.4344 41.4514C28.329 41.7677 28.2235 42.084 28.1149 42.4099C28.0095 42.3045 27.904 42.1991 27.7954 42.0904C28.4144 41.1519 28.4144 41.1519 28.5941 40.9722C28.8514 40.9551 29.1094 40.9489 29.3672 40.947C29.5319 40.9454 29.6967 40.9437 29.8664 40.9421C30.1355 40.9403 30.1355 40.9403 30.41 40.9385C30.7858 40.934 31.1617 40.9295 31.5375 40.9248C32.1332 40.9182 32.7288 40.9123 33.3245 40.9081C33.8972 40.9037 34.4699 40.8964 35.0426 40.8886C35.2213 40.8881 35.4 40.8876 35.5842 40.887C35.8328 40.8831 35.8328 40.8831 36.0864 40.879C36.3055 40.8771 36.3055 40.8771 36.5289 40.8751C36.9748 40.8 37.1119 40.6914 37.3801 40.3332C37.4328 40.1751 37.4855 40.0169 37.5398 39.854Z" fill="black"/>
<path d="M49.0414 64.4546C49.0941 64.4546 49.1468 64.4546 49.2012 64.4546C49.2802 65.7198 49.2802 65.7198 49.3609 67.0105C45.7235 67.0105 42.0861 67.0105 38.3385 67.0105C38.019 65.4131 38.019 65.4131 38.019 64.6143C38.3385 64.7741 38.3385 64.7741 38.5182 65.2932C38.658 65.8923 38.658 65.8923 38.658 66.691C42.0845 66.691 45.5111 66.691 49.0414 66.691C49.0414 65.953 49.0414 65.215 49.0414 64.4546Z" fill="black"/>
<path d="M39.2974 51.835C41.3013 52.1173 43.2173 53.445 44.7287 54.7104C44.858 54.8137 44.9873 54.9171 45.1205 55.0236C46.0672 55.8125 46.7573 56.7271 47.4443 57.7455C47.3389 57.8509 47.2335 57.9564 47.1248 58.065C47.0396 57.9433 46.9543 57.8216 46.8665 57.6962C45.1946 55.3793 43.1535 53.9588 40.6015 52.726C40.1507 52.5012 39.7193 52.2697 39.2974 51.9947C39.2974 51.942 39.2974 51.8893 39.2974 51.835Z" fill="black"/>
<path d="M17.7314 48.1606C19.4183 48.1606 21.1052 48.1606 22.8433 48.1606C22.8433 48.3188 22.8433 48.4769 22.8433 48.6399C21.2618 48.6399 19.6803 48.6399 18.0509 48.6399C18.0509 49.3779 18.0509 50.1159 18.0509 50.8763C17.9455 50.8763 17.8401 50.8763 17.7314 50.8763C17.7314 49.9801 17.7314 49.084 17.7314 48.1606Z" fill="black"/>
<path d="M5.27164 42.0903C6.70971 42.7102 7.44294 43.5846 8.14704 44.9657C8.14704 45.0712 8.14704 45.1766 8.14704 45.2852C7.98889 45.2852 7.83074 45.2852 7.6678 45.2852C7.60078 45.1289 7.60078 45.1289 7.5324 44.9695C7.00361 43.8167 6.44449 43.054 5.28162 42.5097C5.1729 42.4767 5.06417 42.4438 4.95215 42.4098C5.05758 42.3044 5.16301 42.199 5.27164 42.0903Z" fill="black"/>
<path d="M44.249 54.7104C45.624 54.9599 46.4626 56.3336 47.2093 57.4005C47.2867 57.5144 47.3641 57.6283 47.4439 57.7456C47.3385 57.851 47.233 57.9565 47.1244 58.0651C47.0373 57.9415 46.9502 57.818 46.8605 57.6907C46.1501 56.7095 45.454 55.8749 44.513 55.098C44.4259 55.0228 44.3388 54.9476 44.249 54.8702C44.249 54.8175 44.249 54.7648 44.249 54.7104Z" fill="black"/>
<path d="M32.9072 51.1959C33.5949 51.188 34.2826 51.1822 34.9703 51.1784C35.204 51.1768 35.4376 51.1746 35.6712 51.1718C36.0083 51.1679 36.3453 51.1661 36.6824 51.1647C36.8849 51.1631 37.0873 51.1614 37.2959 51.1597C37.8577 51.1958 38.2953 51.3122 38.8178 51.5154C38.7651 51.6209 38.7123 51.7263 38.658 51.8349C38.568 51.813 38.4779 51.7911 38.3851 51.7685C37.2179 51.5076 36.0771 51.4475 34.8841 51.4156C34.5977 51.4063 34.5977 51.4063 34.3056 51.3969C33.8395 51.382 33.3734 51.3682 32.9072 51.3557C32.9072 51.303 32.9072 51.2503 32.9072 51.1959Z" fill="black"/>
<path d="M48.4023 60.7808C48.4551 60.8862 48.5078 60.9916 48.5621 61.1003C48.6675 61.1003 48.773 61.1003 48.8816 61.1003C48.9401 61.3494 48.9962 61.5991 49.0513 61.8491C49.0828 61.988 49.1143 62.127 49.1468 62.2703C49.2043 62.7233 49.1546 63.0568 49.0413 63.4964C48.9886 63.4964 48.9359 63.4964 48.8816 63.4964C48.8011 63.1338 48.7214 62.771 48.642 62.4082C48.5752 62.1051 48.5752 62.1051 48.5072 61.796C48.4023 61.26 48.4023 61.26 48.4023 60.7808Z" fill="black"/>
<path d="M6.869 68.7676C6.92172 68.9257 6.97444 69.0839 7.02875 69.2468C6.39039 69.8396 6.01105 70.141 5.11182 70.2053C5.19418 70.146 5.27655 70.0867 5.36142 70.0256C5.88108 69.6258 6.37399 69.1972 6.869 68.7676Z" fill="black"/>
<path d="M44.249 54.7104C44.8338 54.804 45.1349 55.0432 45.5669 55.4393C45.6798 55.5416 45.7926 55.644 45.9089 55.7494C45.9937 55.8283 46.0785 55.9071 46.166 55.9884C46.0605 56.0938 45.9551 56.1993 45.8465 56.3079C45.314 55.7754 44.7815 55.2429 44.249 54.7104Z" fill="black"/>
<path d="M35.623 62.8574C36.6454 62.9361 36.6454 62.9361 37.1306 63.3466C37.2542 63.4998 37.2542 63.4998 37.3802 63.6561C36.7209 63.5592 36.209 63.3306 35.623 63.0172C35.623 62.9645 35.623 62.9117 35.623 62.8574Z" fill="black"/>
<path d="M7.18848 43.688C7.74492 44.1702 7.9539 44.5776 8.14694 45.2854C7.9888 45.2854 7.83065 45.2854 7.66771 45.2854C7.18848 44.2271 7.18848 44.2271 7.18848 43.688Z" fill="black"/>
<path d="M12.7796 37.937C12.8323 37.937 12.8851 37.937 12.9394 37.937C12.949 38.0795 12.9587 38.222 12.9687 38.3688C12.9821 38.5558 12.9955 38.7428 13.0093 38.9354C13.0287 39.2134 13.0287 39.2134 13.0486 39.497C13.0883 39.9034 13.144 40.2628 13.2589 40.6527C13.1534 40.7054 13.048 40.7581 12.9394 40.8124C12.6096 40.144 12.6055 39.6612 12.6798 38.9254C12.6975 38.7399 12.7152 38.5544 12.7334 38.3632C12.7487 38.2226 12.7639 38.0819 12.7796 37.937Z" fill="black"/>
<path d="M5.11183 70.3653C5.0064 70.4707 4.90097 70.5761 4.79234 70.6848C4.37676 70.681 4.37676 70.681 3.89378 70.6249C3.73358 70.6071 3.57337 70.5894 3.40831 70.5712C3.2236 70.5483 3.2236 70.5483 3.03516 70.525C3.03516 70.4723 3.03516 70.4196 3.03516 70.3653C3.26126 70.3339 3.48762 70.3043 3.71407 70.2754C3.84009 70.2587 3.96612 70.2421 4.09596 70.2249C4.47371 70.2055 4.75258 70.254 5.11183 70.3653Z" fill="black"/>
<path d="M37.5401 39.854C37.5928 39.854 37.6455 39.854 37.6998 39.854C37.7498 40.2134 37.7498 40.2134 37.6998 40.6527C37.3005 41.0221 37.3005 41.0221 36.9011 41.2917C36.743 41.1863 36.5848 41.0808 36.4219 40.9722C36.6097 40.9179 36.6097 40.9179 36.8013 40.8624C37.2555 40.6877 37.2555 40.6877 37.4303 40.2334C37.4665 40.1082 37.5027 39.983 37.5401 39.854Z" fill="black"/>
<path d="M47.9234 58.8638C48.2073 59.2896 48.3828 59.667 48.5624 60.1417C48.4042 60.1417 48.2461 60.1417 48.0832 60.1417C47.9777 59.7727 47.8723 59.4037 47.7637 59.0235C47.8164 58.9708 47.8691 58.9181 47.9234 58.8638Z" fill="black"/>
<path fill-rule="evenodd" clip-rule="evenodd" d="M59.2928 70.3053C59.4803 70.1178 59.7346 70.0125 59.9998 70.0125C60.265 70.0125 60.5193 70.1178 60.7068 70.3053L64.9998 74.5983L69.2928 70.3053C69.385 70.2098 69.4954 70.1336 69.6174 70.0812C69.7394 70.0288 69.8706 70.0012 70.0034 70C70.1362 69.9989 70.2678 70.0242 70.3907 70.0745C70.5136 70.1247 70.6253 70.199 70.7192 70.2929C70.8131 70.3868 70.8873 70.4984 70.9376 70.6213C70.9879 70.7442 71.0132 70.8759 71.012 71.0087C71.0109 71.1415 70.9833 71.2727 70.9309 71.3947C70.8785 71.5167 70.8023 71.627 70.7068 71.7193L65.7068 76.7193C65.5193 76.9068 65.265 77.0121 64.9998 77.0121C64.7346 77.0121 64.4803 76.9068 64.2928 76.7193L59.2928 71.7193C59.1053 71.5318 59 71.2775 59 71.0123C59 70.7471 59.1053 70.4928 59.2928 70.3053ZM59.2928 76.3053C59.4803 76.1178 59.7346 76.0125 59.9998 76.0125C60.265 76.0125 60.5193 76.1178 60.7068 76.3053L64.9998 80.5983L69.2928 76.3053C69.4814 76.1231 69.734 76.0223 69.9962 76.0246C70.2584 76.0269 70.5092 76.1321 70.6946 76.3175C70.88 76.5029 70.9852 76.7537 70.9875 77.0159C70.9897 77.2781 70.8889 77.5307 70.7068 77.7193L65.7068 82.7193C65.5193 82.9068 65.265 83.0121 64.9998 83.0121C64.7346 83.0121 64.4803 82.9068 64.2928 82.7193L59.2928 77.7193C59.1053 77.5318 59 77.2775 59 77.0123C59 76.7471 59.1053 76.4928 59.2928 76.3053Z" fill="black"/>
<rect x="64" y="60" width="2" height="15" fill="black"/>
</svg>
