<svg width="100" height="100" viewBox="0 0 100 100" fill="none" xmlns="http://www.w3.org/2000/svg">
<path d="M60.875 9.9375V11.75H62.85C64.65 11.75 64.875 11.775 65.375 12.025C66.5625 12.6375 66.7125 14.0375 65.6875 15C65.3625 15.3 65.2875 15.3125 63.15 15.375L60.9375 15.4375V17.25V19.0625L63.15 19.125C65.2875 19.1875 65.3625 19.2 65.6875 19.5C66.675 20.425 66.5625 21.775 65.4375 22.4625C65.125 22.65 64.725 22.7 62.975 22.725L60.875 22.775V24.575V26.375H62.9875C64.9625 26.375 65.1125 26.3875 65.5125 26.6625C66.6625 27.425 66.625 29.025 65.425 29.7125C64.975 29.975 64.775 30 62.9125 30H60.875V31.8125V33.625H69.0625H77.25V20.875V8.125H69.0625H60.875V9.9375Z" fill="black"/>
<path d="M31.3123 20.9625C30.7623 21.1125 30.3998 21.5375 28.4748 24.3C26.6123 26.9625 26.4498 27.2375 26.4123 27.8125C26.2748 29.6625 28.5123 30.45 29.6748 28.975L29.9998 28.5625V35.0125V41.4625L30.2873 41.875C30.5998 42.35 31.2873 42.75 31.7498 42.75C32.2873 42.75 33.1498 42.225 33.3998 41.75C33.6123 41.35 33.6248 40.8625 33.6248 34.9375V28.5625L33.9498 28.975C34.7998 30.05 36.2998 29.9875 36.9998 28.85C37.4623 28.0875 37.3498 27.525 36.4623 26.225C33.5498 21.9625 33.1123 21.375 32.7498 21.1875C32.3623 20.9875 31.6498 20.875 31.3123 20.9625Z" fill="black"/>
<path d="M18.2999 30.175C17.8624 30.375 17.5999 30.7 15.9999 33C15.3499 33.925 14.5749 35.05 14.2749 35.475C13.4749 36.625 13.4124 37.4625 14.0749 38.2375C14.7624 39.0625 15.9499 39.0625 16.7624 38.225L17.2499 37.725V44.05C17.2499 50.15 17.2624 50.4 17.4999 50.875C17.6374 51.15 17.9124 51.45 18.1249 51.5625C18.6499 51.8375 19.5749 51.8 20.0624 51.5C20.8874 50.9875 20.8749 51.0875 20.8749 44.0625V37.725L21.3624 38.225C22.8874 39.7875 25.2749 38.075 24.2499 36.15C23.7999 35.3 20.4374 30.5875 20.1124 30.3375C19.6874 30.025 18.7999 29.95 18.2999 30.175Z" fill="black"/>
<path d="M43.8126 30.175C43.2876 30.4125 43.1251 30.6125 41.0001 33.6875L39.1001 36.4375L39.1501 37.1625C39.1876 37.7375 39.2751 37.95 39.5626 38.25C40.3376 39.0625 41.4626 39.05 42.2626 38.225L42.7501 37.725V44.1375C42.7501 50.2875 42.7626 50.575 43.0001 50.9625C43.3126 51.4875 43.8501 51.75 44.6126 51.75C45.1001 51.75 45.3126 51.675 45.6376 51.4125C46.3876 50.775 46.3751 50.85 46.3751 44V37.75L46.8626 38.2375C47.6001 38.975 48.4626 39.0625 49.2626 38.5C49.8876 38.05 50.1876 36.975 49.8626 36.3375C49.5001 35.6375 45.8126 30.4625 45.5751 30.3125C45.1626 30.0375 44.2501 29.9625 43.8126 30.175Z" fill="black"/>
<path d="M60.8748 39.0625V40.875H62.9123C64.7748 40.875 64.9748 40.9 65.4248 41.1625C66.6248 41.85 66.6623 43.45 65.5123 44.2125C65.1123 44.4875 64.9623 44.5 62.9873 44.5H60.8748V46.3V48.1L62.9748 48.1375C64.9748 48.1875 65.0998 48.2 65.5248 48.5C66.3373 49.05 66.5873 50.0375 66.1373 50.875C65.7123 51.6875 65.3748 51.7875 63.0248 51.8L60.9373 51.8125L60.8998 55.45L60.8623 59.0875L62.5248 59.1625C65.0373 59.275 66.6623 59.775 68.9998 61.175C71.1748 62.4625 72.9123 62.9 74.9998 62.65C75.6498 62.575 76.4123 62.425 76.6873 62.3375L77.1873 62.1625L77.2248 49.7L77.2498 37.25H69.0623H60.8748V39.0625Z" fill="black"/>
<path d="M41.5375 56.2649C40.025 56.5211 38.25 57.3181 36.5125 58.5136C34.2625 60.0935 32.2 60.5489 29.7875 60.0365C29.025 59.88 28.325 59.5526 26.5625 58.5563C24.1125 57.1473 23.1375 56.7915 21.2375 56.5495C18.5625 56.2079 15.55 57.0192 13.3 58.6987C12.3 59.453 12 59.9227 12 60.8193C12 62.0007 12.725 62.8546 13.7375 62.8689C14.2125 62.8831 14.475 62.7692 15.2875 62.1857C15.8125 61.8156 16.6875 61.3317 17.225 61.1325C18.1 60.7909 18.3625 60.7624 20.0625 60.7624C21.7625 60.7624 22.025 60.8051 22.85 61.1325C23.35 61.3459 24.3125 61.8583 24.9875 62.2995C27.35 63.8367 29.6375 64.4914 32.175 64.3348C34.5 64.1925 36.2125 63.5378 39.0625 61.6733C40.975 60.4208 43.2125 59.9796 45.25 60.4493C46.5875 60.7624 47.4 61.1467 48.85 62.143C51.2 63.7513 52.9625 64.3064 55.6875 64.2921C58.4 64.2921 59.8875 63.8082 62.4375 62.1145C63.1375 61.6448 63.9875 61.1325 64.325 60.9759C64.8875 60.7197 64.9 60.6912 64.5625 60.6912C63.5875 60.6628 62.8875 59.5669 62.875 58.0724C62.875 57.617 62.825 57.2612 62.75 57.2612C62.55 57.2612 61.6875 57.7735 60.675 58.4852C57.375 60.8193 53.875 60.8193 50.575 58.4852C48.875 57.2896 47.625 56.7203 45.8375 56.336C44.8125 56.1083 42.6625 56.0798 41.5375 56.2649Z" fill="black"/>
<path d="M65.05 57.1033C64.05 57.2283 62.7 57.5408 62.1125 57.7783L61.675 57.9658V59.7783C61.675 61.5533 61.675 61.5908 61.3375 61.9908L61 62.3908L61.925 61.8783C63.5875 60.9783 64.35 60.7908 66.425 60.7908C68.0875 60.7908 68.325 60.8283 69.2375 61.1408C69.7875 61.3408 70.6625 61.7533 71.175 62.0783C71.95 62.5658 72.2125 62.6658 72.6875 62.6533C73.7 62.6408 74.425 61.8908 74.425 60.8533C74.425 60.0658 74.125 59.6533 73.125 58.9908C71.525 57.9533 69.6375 57.3158 67.55 57.1033C66.225 56.9658 66.2 56.9658 65.05 57.1033Z" fill="black"/>
<path d="M29.6044 69.0003C28.3669 69.2253 26.6169 69.8753 25.5669 70.5003C23.2294 71.8878 22.0669 72.3128 20.3044 72.4628C18.5419 72.6003 16.9419 72.1878 15.0044 71.1128C13.4294 70.2378 12.7419 69.9378 11.5044 69.6128C10.3669 69.3003 8.41691 69.1003 7.65441 69.2003C6.05441 69.4128 5.42941 71.3003 6.61691 72.3378C7.00441 72.6878 7.12941 72.7128 8.32941 72.7878C10.3669 72.9128 11.1294 73.1753 13.9419 74.6878C15.8169 75.6878 18.2794 76.2128 20.5044 76.0878C22.6919 75.9503 24.4294 75.3753 26.7294 74.0128C27.4294 73.6003 28.4544 73.1128 29.0044 72.9128C29.9169 72.6003 30.1544 72.5628 31.7544 72.5753C33.3169 72.5753 33.6169 72.6128 34.5169 72.9128C35.0669 73.1003 36.0544 73.5628 36.7044 73.9628C39.2794 75.5128 41.0544 76.0378 43.7544 76.0503C46.3794 76.0628 48.3044 75.5378 50.4544 74.2378C52.8169 72.8003 54.0419 72.4378 56.2544 72.5253C57.9419 72.6003 59.1294 72.9628 60.7544 73.9253C62.9169 75.2128 63.9294 75.6003 65.9419 75.9503C68.6294 76.4128 71.9294 75.8003 74.2044 74.4253C76.2419 73.2003 77.7794 72.7753 80.2794 72.7503C80.7169 72.7503 81.4169 72.0503 81.5794 71.4628C81.7669 70.7753 81.5669 70.1378 81.0044 69.6503C80.4544 69.1628 79.8544 69.0753 78.2544 69.2378C76.1044 69.4628 74.9294 69.8503 72.8169 71.0128C70.5419 72.2753 68.8544 72.6628 66.8544 72.4003C65.3669 72.2003 64.4169 71.8628 63.0294 71.0253C60.4919 69.5003 58.9169 69.0003 56.3169 68.9128C53.4044 68.8128 51.6419 69.3003 48.7919 70.9753C46.8044 72.1503 45.0544 72.6128 43.2169 72.4503C41.5669 72.3128 40.3544 71.9003 38.8169 70.9628C37.6044 70.2128 36.0794 69.5253 34.9794 69.2378C33.8669 68.9503 30.7044 68.8128 29.6044 69.0003Z" fill="black"/>
<path d="M29.3344 80.8126C27.6469 81.1626 26.4844 81.6501 24.6469 82.7751C21.5969 84.6251 18.3594 84.7001 15.2594 83.0001C14.5969 82.6376 14.1969 82.5001 13.8094 82.5001C12.1844 82.5001 11.3843 84.4251 12.5594 85.5376C12.9969 85.9501 14.5844 86.8001 15.5344 87.1251C17.0594 87.6501 17.9594 87.8001 19.7719 87.8001C22.4594 87.7876 24.0969 87.3251 26.6344 85.8251C28.4719 84.7376 29.6344 84.3626 31.3969 84.2876C32.5094 84.2376 32.9719 84.2751 33.8719 84.4876C35.0594 84.7626 35.4969 84.9626 37.0469 85.9001C38.3094 86.6501 39.4844 87.1501 40.9219 87.5126C41.8219 87.7501 42.3594 87.8001 43.8344 87.8001C46.4719 87.8001 48.1594 87.3251 50.5719 85.9126C52.9594 84.5126 54.1469 84.1751 56.3344 84.2876C58.0594 84.3751 59.2469 84.7626 61.0219 85.8126C63.5344 87.3001 65.3094 87.8126 67.9594 87.8001C69.6594 87.8001 70.3344 87.7001 71.8344 87.2251C72.9094 86.8751 74.4594 86.1001 75.0094 85.6251C75.9719 84.7751 75.8719 83.4001 74.7969 82.7501C74.1469 82.3501 73.4594 82.4251 72.4094 83.0001C69.9594 84.3501 67.4719 84.5751 64.9594 83.7001C64.4719 83.5376 63.4844 83.0501 62.7719 82.6251C60.1344 81.0626 58.7719 80.6876 55.7719 80.6876C53.9469 80.6876 53.5094 80.7376 52.6719 80.9751C51.4719 81.3126 50.3844 81.8001 48.7969 82.7126C46.4594 84.0501 44.5969 84.4501 42.5219 84.1001C41.0719 83.8501 40.3219 83.5626 38.6094 82.5751C36.0469 81.1001 34.3094 80.6126 31.6594 80.6376C30.8344 80.6376 29.7844 80.7251 29.3344 80.8126Z" fill="black"/>
</svg>
