<svg xmlns="http://www.w3.org/2000/svg" xmlns:xlink="http://www.w3.org/1999/xlink" viewBox="0 0 115.04 87.7"><defs><style>.cls-1{fill:#eaeaea;}.cls-2{fill:#fefefd;stroke-miterlimit:10;stroke-width:8px;stroke:url(#New_Gradient_Swatch_copy);}</style><linearGradient id="New_Gradient_Swatch_copy" x1="25.12" y1="40.93" x2="97.57" y2="40.93" gradientTransform="translate(1.82 -2.49) rotate(2.4)" gradientUnits="userSpaceOnUse"><stop offset="0.09" stop-color="#db3729"/><stop offset="1" stop-color="#c50100"/></linearGradient></defs><title>Wifi 1</title><g id="Layer_2" data-name="Layer 2"><g id="OBJECTS"><path class="cls-1" d="M115,28.28c-1.1,3.66-3.23,4.87-4.81,6.5-1.28,1.33-2.53.72-4-.09-5.66-3.1-10.84-6.95-16.61-9.95-22-11.47-43.86-11.86-65.85,0-5.71,3.07-11.35,6.18-16.11,10.67-2.95,2.79-3.93-.75-5.49-2-2-1.54-3.25-3.33-.81-5.76a70.93,70.93,0,0,1,17.3-12.36C45.12,1.41,71.26,2,97.5,16.29c4.89,2.66,9,6.07,13.49,9.15C112.5,26.48,114,27.54,115,28.28Z"/><path class="cls-1" d="M57,37.7C44.91,37.49,34.46,41.91,24.9,49c-4,3-7,2.08-9.4-2.3-.94-1.69-.35-2.71,1-3.83,11.63-9.84,25.06-16,40.25-15.86a63,63,0,0,1,39.71,14.8c1.89,1.54,3.67,3.34,1,5.72-1.93,1.77-3,5.49-7,2.38A60.07,60.07,0,0,0,64,38.18,68,68,0,0,0,57,37.7Z"/><path class="cls-1" d="M57.32,48.68c9.08.3,16.83,4.2,24.1,9.23,1.33.92,3.53,2.45,1.28,4.32-2,1.69-3.08,5.92-7.06,3.65A85.68,85.68,0,0,0,64.5,60.43c-9-3.57-16.82-.51-24.15,4.42-3.76,2.52-6.09,2.27-9.23-2.45-2.39-3.59,1.19-4.54,3.12-5.78C41.26,52.15,48.53,48.2,57.32,48.68Z"/><path class="cls-1" d="M64.88,79.73a7.75,7.75,0,0,1-7.59,8c-4.17,0-8.49-4.49-8.42-8.67.06-3.94,4.31-8.17,8.31-8.28C61.74,70.63,64.9,74.32,64.88,79.73Z"/><line class="cls-2" x1="96.19" y1="2.69" x2="26.6" y2="79.26"/></g></g></svg>