<svg xmlns="http://www.w3.org/2000/svg" viewBox="0 0 114.66 82.28"><defs><style>.cls-1{fill:#eaeaea;}.cls-2{fill:#cb4942;}.cls-3{fill:#cc4c44;}</style></defs><title>Wifi 2</title><g id="Layer_2" data-name="Layer 2"><g id="OBJECTS"><path class="cls-1" d="M52,.06c26.51.28,44.84,7,60.3,21.26,1.95,1.79,3.78,3.61.91,6.13-2.16,1.9-3.27,5-7.47,1.7C92.63,18.82,77.68,12,61,10.62c-11.3-.93-22.27,1.92-32.77,6.63-6.86,3.08-13.35,6.58-19,11.48-4.21,3.65-5.81-.49-8-2.5-3-2.77.26-4.23,1.75-5.43C18.9,8,36.36-.85,52,.06Z"/><path class="cls-1" d="M54.17,22.22c17.62,0,31.32,4.43,42.82,14.86,1.67,1.52,4,3.08,1,5.54-2.08,1.7-3,4.62-7.12,1.71C76.49,34.24,60.72,29,43,34.35a49.06,49.06,0,0,0-18.28,9.87c-3.9,3.43-5,.19-7.11-1.54-2.78-2.3-1.81-4.4.52-6.11C29.52,28.18,41.45,21.14,54.17,22.22Z"/><path class="cls-2" d="M58.48,43.39A39.51,39.51,0,0,1,82,52.6c2,1.64,2.84,3.39.68,5.36-1.85,1.69-2.93,5.46-6.7,2.79-1.49-1-3.19-1.78-4.75-2.72-10.46-6.25-20.55-5.14-30.41,1.43a6.54,6.54,0,0,1-9.93-2.76c-1-2.11.46-3.1,1.73-4.1C39.75,47,47.54,43.27,58.48,43.39Z"/><path class="cls-3" d="M66.07,74a8.59,8.59,0,0,1-8.83,8.26,8.4,8.4,0,0,1,.28-16.8A8.59,8.59,0,0,1,66.07,74Z"/></g></g></svg>