<svg xmlns="http://www.w3.org/2000/svg" viewBox="0 0 114.57 82.83"><defs><style>.cls-1{fill:#eaeaea;}.cls-2{fill:#ebd55e;}.cls-3{fill:#ead55f;}.cls-4{fill:#ebd55f;}</style></defs><title>wifi 3</title><g id="Layer_2" data-name="Layer 2"><g id="OBJECTS"><path class="cls-1" d="M57,0c13.82,1.14,26.5,3.78,38.32,10a95.27,95.27,0,0,1,16.65,11.55c1.63,1.37,4.28,2.91,1.23,5.49-2.37,2-4.09,5.86-8.19,2.47C94.19,20.62,81.71,15.13,68.13,12.21,52.55,8.86,38,12.67,24,19.41A64.79,64.79,0,0,0,8.45,30c-3.7,3.36-4.77-.2-6.7-1.73C-.6,26.42-.54,24.55,1.69,22.5,12.83,12.26,25.9,5.8,40.42,1.88,46.13.33,52.07,1.86,57,0Z"/><path class="cls-2" d="M56.39,22A63.52,63.52,0,0,1,96,36.26c2.08,1.68,5.16,3,2.23,6.7-2.45,3.06-4.38,4.93-8.52,2C79.7,38,68.8,33.44,56.28,33.4c-11.89,0-22,4.37-31.26,11.38-2.5,1.91-4.71,2.79-7.39,0-3.58-3.69-3.79-5.05.35-8.29C29.25,27.7,41.6,21.61,56.39,22Z"/><path class="cls-3" d="M83.67,55.82c.07,3.52-5.43,7-8.46,5.49a14.73,14.73,0,0,1-1.75-.94C61.92,52.47,50.52,53,39.33,61c-2.06,1.48-3.55,1.76-5.63-.08-5-4.41-4.9-5.72.57-9.66,15.86-11.41,31.83-9.58,46.52.85C82.15,53.12,83.48,54.13,83.67,55.82Z"/><path class="cls-4" d="M56.5,82.82A8.22,8.22,0,0,1,48.37,74c.31-4.83,4.46-8.29,9.58-8,4.66.29,7.78,3.82,7.66,8.66C65.48,80,62,83.06,56.5,82.82Z"/></g></g></svg>