<svg xmlns="http://www.w3.org/2000/svg" viewBox="0 0 115.36 82.9"><defs><style>.cls-1{fill:#a1e88e;}.cls-2{fill:#a2e88f;}</style></defs><title>wifi 4</title><g id="Layer_2" data-name="Layer 2"><g id="OBJECTS"><path class="cls-1" d="M58.58,0c19.53.61,38.24,7.15,54.09,21.26,2.3,2,4.08,3.95,1.2,7-2.42,2.53-4.33,4.74-8.24,1.74a91.16,91.16,0,0,0-33.3-16.38C54.17,9,37.47,13,21.47,21.67A73.37,73.37,0,0,0,9.24,30.24c-4.31,3.63-5.79-.77-7.91-2.75C-1.32,25,.45,23.41,2.65,21.54,18.37,8.16,36.19.25,58.58,0Z"/><path class="cls-1" d="M56.91,22a65.17,65.17,0,0,1,40,14.67c2.26,1.82,4.41,3.72,1.52,7C96,46.35,94,47.56,90.52,45A64.26,64.26,0,0,0,69,34.78c-16.14-4.41-30.14.34-43.16,9.66-3.95,2.83-8.14,1.68-10.25-2.76-1-2.09.38-3.2,1.66-4.18C28.84,28.67,41.32,22.05,56.91,22Z"/><path class="cls-2" d="M55.76,43.92c10.47-.05,18.73,3,26.05,8.67,2.12,1.65,3.83,3.53,1.34,6.15-1.94,2-3.48,5.31-7.26,2.58a46.45,46.45,0,0,0-5.62-3.22C59.91,52.6,50.09,54,40.72,60.54c-1.94,1.35-3.52,2.76-6,.52-4.94-4.39-5-5.9.46-9.71C41.67,46.78,48.66,43.55,55.76,43.92Z"/><path class="cls-2" d="M57.61,82.9c-5.32-.07-8.65-3.58-8.49-9,.13-4.71,4-8.07,9-7.94,4.48.11,8.61,4.37,8.45,8.73S62.26,83,57.61,82.9Z"/></g></g></svg>