<svg xmlns="http://www.w3.org/2000/svg" enable-background="new 0 0 512 512" viewBox="0 0 512 512"><path d="M220.242 338.358c-36.954 0-67.018-30.067-67.018-67.025 0-36.957 30.064-67.023 67.018-67.023 36.957 0 67.024 30.066 67.024 67.023 0 30.197-20.36 56.812-49.514 64.721C231.968 337.585 226.084 338.358 220.242 338.358zM220.242 212.31c-32.542 0-59.018 26.478-59.018 59.023 0 32.547 26.475 59.025 59.018 59.025 5.151 0 10.346-.684 15.44-2.032 25.652-6.959 43.584-30.398 43.584-56.993C279.267 238.787 252.789 212.31 220.242 212.31zM458.938 463.743c-22.512 0-40.827-18.318-40.827-40.834 0-22.512 18.315-40.827 40.827-40.827s40.827 18.315 40.827 40.827C499.766 445.425 481.45 463.743 458.938 463.743zM458.938 390.082c-18.101 0-32.827 14.727-32.827 32.827 0 18.104 14.727 32.834 32.827 32.834s32.827-14.729 32.827-32.834C491.766 404.809 477.039 390.082 458.938 390.082zM79.298 446.799c-23.308 0-42.271-18.963-42.271-42.271s18.962-42.271 42.271-42.271c11.771 0 22.666 4.718 30.679 13.285 7.427 7.77 11.534 18.075 11.534 28.986C121.51 427.836 102.574 446.799 79.298 446.799zM79.298 370.256c-18.897 0-34.271 15.374-34.271 34.271s15.374 34.271 34.271 34.271c18.865 0 34.212-15.374 34.212-34.271 0-8.843-3.319-17.185-9.347-23.49C97.65 374.073 88.83 370.256 79.298 370.256zM53.765 229.976c-22.512 0-40.828-18.315-40.828-40.828 0-22.516 18.315-40.833 40.828-40.833s40.827 18.317 40.827 40.833C94.592 211.66 76.277 229.976 53.765 229.976zM53.765 156.314c-18.101 0-32.828 14.729-32.828 32.833 0 18.102 14.727 32.828 32.828 32.828s32.827-14.727 32.827-32.828C86.592 171.043 71.866 156.314 53.765 156.314zM270.529 487.833c-17.045 0-30.912-13.87-30.912-30.918 0-17.045 13.867-30.912 30.912-30.912 17.049 0 30.918 13.867 30.918 30.912C301.447 473.963 287.578 487.833 270.529 487.833zM270.529 434.003c-12.634 0-22.912 10.278-22.912 22.912 0 12.637 10.278 22.918 22.912 22.918 12.637 0 22.918-10.281 22.918-22.918C293.447 444.281 283.166 434.003 270.529 434.003zM364.016 136.554c-12.34 0-24.059-3.914-33.89-11.318-14.092-10.622-22.504-27.493-22.504-45.131 0-31.129 25.298-56.453 56.394-56.453 31.124 0 56.445 25.324 56.445 56.453C420.461 111.23 395.14 136.554 364.016 136.554zM364.016 31.651c-26.685 0-48.394 21.735-48.394 48.453 0 15.141 7.222 29.623 19.318 38.741 8.432 6.351 18.486 9.708 29.075 9.708 26.713 0 48.445-21.734 48.445-48.449C412.461 53.387 390.729 31.651 364.016 31.651z" fill="#595bd4" class="color000000 svgShape"></path><path d="M220.242 338.358c-36.954 0-67.018-30.067-67.018-67.025 0-36.957 30.064-67.023 67.018-67.023 36.957 0 67.024 30.066 67.024 67.023 0 30.197-20.36 56.812-49.514 64.721C231.968 337.585 226.084 338.358 220.242 338.358zM220.242 212.31c-32.542 0-59.018 26.478-59.018 59.023 0 32.547 26.475 59.025 59.018 59.025 5.151 0 10.346-.684 15.44-2.032 25.652-6.959 43.584-30.398 43.584-56.993C279.267 238.787 252.789 212.31 220.242 212.31zM364.016 136.554c-12.34 0-24.059-3.914-33.89-11.318-14.092-10.622-22.504-27.493-22.504-45.131 0-31.129 25.298-56.453 56.394-56.453 31.124 0 56.445 25.324 56.445 56.453C420.461 111.23 395.14 136.554 364.016 136.554zM364.016 31.651c-26.685 0-48.394 21.735-48.394 48.453 0 15.141 7.222 29.624 19.318 38.741 8.432 6.351 18.486 9.708 29.075 9.708 26.713 0 48.445-21.734 48.445-48.449C412.461 53.387 390.729 31.651 364.016 31.651zM458.938 463.743c-22.512 0-40.827-18.318-40.827-40.834 0-22.512 18.315-40.827 40.827-40.827s40.827 18.315 40.827 40.827C499.766 445.425 481.45 463.743 458.938 463.743zM458.938 390.082c-18.101 0-32.827 14.727-32.827 32.827 0 18.104 14.727 32.834 32.827 32.834s32.827-14.729 32.827-32.834C491.766 404.809 477.039 390.082 458.938 390.082zM270.529 487.833c-17.045 0-30.912-13.87-30.912-30.918 0-17.045 13.867-30.912 30.912-30.912 17.049 0 30.918 13.867 30.918 30.912C301.447 473.963 287.578 487.833 270.529 487.833zM270.529 434.003c-12.634 0-22.912 10.278-22.912 22.912 0 12.637 10.278 22.918 22.912 22.918 12.637 0 22.918-10.281 22.918-22.918C293.447 444.281 283.166 434.003 270.529 434.003zM79.298 446.799c-23.308 0-42.271-18.963-42.271-42.271s18.962-42.271 42.271-42.271c11.771 0 22.666 4.718 30.679 13.285 7.427 7.77 11.534 18.075 11.534 28.986C121.51 427.836 102.574 446.799 79.298 446.799zM79.298 370.256c-18.897 0-34.271 15.374-34.271 34.271s15.374 34.271 34.271 34.271c18.865 0 34.212-15.374 34.212-34.271 0-8.843-3.319-17.185-9.347-23.49C97.65 374.073 88.83 370.256 79.298 370.256zM53.765 229.976c-22.512 0-40.828-18.315-40.828-40.828 0-22.516 18.315-40.833 40.828-40.833s40.827 18.317 40.827 40.833C94.592 211.66 76.277 229.976 53.765 229.976zM53.765 156.314c-18.101 0-32.828 14.729-32.828 32.833 0 18.102 14.727 32.828 32.828 32.828s32.827-14.727 32.827-32.828C86.592 171.043 71.866 156.314 53.765 156.314z" fill="#595bd4" class="color000000 svgShape"></path><path d="M104.897 384.314c-1.061 0-2.12-.42-2.907-1.252-1.518-1.605-1.447-4.137.159-5.654l2.159-2.041 66.257-63.132c1.599-1.525 4.131-1.463 5.655.136 1.524 1.6 1.463 4.132-.137 5.655l-66.268 63.143-2.17 2.052C106.872 383.952 105.883 384.314 104.897 384.314zM161.728 246.434c-.594 0-1.197-.133-1.766-.413l-74.922-36.945c-1.981-.978-2.795-3.376-1.818-5.357.977-1.98 3.376-2.794 5.356-1.818l74.922 36.945c1.981.978 2.795 3.376 1.818 5.357C164.622 245.614 163.203 246.434 161.728 246.434zM427.874 407.145c-.732 0-1.475-.202-2.139-.623l-153.142-97.147c-1.866-1.184-2.419-3.655-1.236-5.521 1.186-1.866 3.657-2.416 5.521-1.235l153.142 97.147c1.865 1.184 2.419 3.655 1.235 5.521C430.494 406.487 429.198 407.145 427.874 407.145zM262.718 432.079c-1.761 0-3.374-1.172-3.858-2.953l-26.014-95.885-.554-2.154c-.55-2.14.739-4.319 2.878-4.869 2.142-.551 4.32.738 4.87 2.879l.54 2.102 26 95.832c.579 2.133-.681 4.33-2.813 4.908C263.417 432.033 263.064 432.079 262.718 432.079zM260.013 222.465c-.837 0-1.681-.262-2.401-.803-1.766-1.328-2.12-3.836-.792-5.602l72.516-96.425c1.328-1.765 3.836-2.118 5.602-.793 1.766 1.328 2.12 3.836.793 5.602l-72.517 96.425C262.426 221.914 261.227 222.465 260.013 222.465z" fill="#595bd4" class="color000000 svgShape"></path></svg>