<svg xmlns="http://www.w3.org/2000/svg" enable-background="new 0 0 64 64" viewBox="0 0 64 64"><path d="M34.6,42.21V7.58C34.6,3.4,31.19,0,26.94,0c-4.19,0-7.6,3.4-7.6,7.58v34.63c-2.89,2.31-4.6,5.84-4.6,9.55
		c0,6.75,5.48,12.24,12.23,12.24c4.33,0,8.16-2.27,10.33-5.68c0.49-0.78,0.9-1.62,1.21-2.51c0.45-1.27,0.69-2.63,0.69-4.04
		C39.19,48.05,37.49,44.52,34.6,42.21z M26.97,62.06c-0.26,0-0.51-0.01-0.77-0.03h-0.07c-0.26-0.03-0.51-0.06-0.76-0.1
		c-4.93-0.77-8.7-5.04-8.7-10.17c0-3.26,1.57-6.36,4.2-8.29c0.25-0.18,0.4-0.48,0.4-0.79V7.58c0-2.57,1.73-4.74,4.13-5.42
		c0.33-0.1,0.68-0.16,1.04-0.19c0.18-0.02,0.38-0.03,0.56-0.03c3.12,0,5.65,2.53,5.65,5.64v35.1c0,0.31,0.15,0.6,0.4,0.79
		c2.63,1.93,4.2,5.03,4.2,8.29C37.25,57.44,32.64,62.06,26.97,62.06z"/><path fill="#60bbe9" d="M33.05,43.47c-0.25-0.18-0.4-0.48-0.4-0.79V7.58c0-3.11-2.53-5.64-5.65-5.64c-0.18,0-0.38,0.01-0.56,0.03
		C26.08,2,25.73,2.07,25.4,2.16c-2.4,0.68-4.13,2.85-4.13,5.42v35.1c0,0.31-0.15,0.6-0.4,0.79c-2.63,1.93-4.2,5.03-4.2,8.29
		c0,5.13,3.77,9.41,8.7,10.17c0.25,0.04,0.5,0.08,0.76,0.1h0.07c0.25,0.02,0.5,0.03,0.77,0.03c5.67,0,10.29-4.63,10.29-10.3
		C37.25,48.5,35.68,45.4,33.05,43.47z M22.61,52.27c0-2.07,1.45-3.79,3.38-4.24V20.35c0-0.54,0.44-0.97,0.97-0.97
		s0.97,0.43,0.97,0.97v27.68c1.93,0.45,3.38,2.17,3.38,4.24c0,2.4-1.96,4.35-4.35,4.35S22.61,54.66,22.61,52.27z"/><path fill="#51b8e0" d="M37.25,51.76c0,5.67-4.62,10.3-10.29,10.3c-0.54,0-1.08-0.04-1.59-0.13c4.93-0.77,8.7-5.04,8.7-10.17
		c0-3.26-1.57-6.36-4.2-8.29c-0.25-0.18-0.4-0.48-0.4-0.79V7.58c0-2.56-1.72-4.73-4.07-5.42c0.5-0.15,1.05-0.22,1.6-0.22
		c3.12,0,5.65,2.53,5.65,5.64v35.1c0,0.31,0.15,0.6,0.4,0.79C35.68,45.4,37.25,48.5,37.25,51.76z"/><path d="M27.93,48.03V20.35c0-0.54-0.44-0.97-0.97-0.97S26,19.81,26,20.35v27.68c-1.93,0.45-3.38,2.17-3.38,4.24
		c0,2.4,1.96,4.35,4.35,4.35s4.35-1.96,4.35-4.35C31.32,50.2,29.86,48.48,27.93,48.03z M26.97,54.68c-1.33,0-2.41-1.09-2.41-2.41
		s1.09-2.41,2.41-2.41s2.41,1.09,2.41,2.41S28.29,54.68,26.97,54.68z"/><circle cx="26.97" cy="52.27" r="2.41" fill="#ffcb4c"/><path fill="#f7be3d" d="M26.97,49.85c-1.33,0-2.41,1.09-2.41,2.41s1.09,2.41,2.41,2.41s2.41-1.09,2.41-2.41S28.29,49.85,26.97,49.85z
		 M26.97,53.52c-0.69,0-1.25-0.56-1.25-1.25c0-0.69,0.56-1.25,1.25-1.25c0.69,0,1.25,0.56,1.25,1.25
		C28.22,52.96,27.65,53.52,26.97,53.52z"/><path d="M39.35 8.1h4.77c.54 0 .97-.43.97-.97s-.43-.97-.97-.97h-4.77c-.54 0-.97.43-.97.97S38.81 8.1 39.35 8.1zM44.12 31.81h-4.77c-.54 0-.97.43-.97.97s.43.97.97.97h4.77c.54 0 .97-.43.97-.97S44.65 31.81 44.12 31.81zM48.29 18.98h-9.45c-.54 0-.97.43-.97.97s.43.97.97.97h9.45c.54 0 .97-.43.97-.97S48.83 18.98 48.29 18.98z"/></svg>