<svg xmlns="http://www.w3.org/2000/svg" enable-background="new 0 0 64 64" viewBox="0 0 64 64"><path d="M44.2,37.6v-4.8h5.1c0.5,0,1-0.4,1-1s-0.4-1-1-1h-5.1v-4.2h3.5c0.5,0,1-0.4,1-1c0-0.5-0.4-1-1-1h-3.5V21h2h3.2c0.5,0,1-0.4,1-1s-0.4-1-1-1h-3.2h-2v-4h3.1c0.5,0,1-0.4,1-1c0-0.5-0.4-1-1-1h-3.1v-4h5.1c0.5,0,1-0.4,1-1c0-0.5-0.4-1-1-1h-5.1v-1c0-1.6-0.6-3.2-1.7-4.3C41.4,0.6,39.9,0,38.3,0c-3.3,0-5.9,2.8-5.9,6.1v4.2c-0.9-0.3-1.9-0.4-2.9-0.4c-5.6,0-10.1,4.5-10.1,10.1s4.5,10.1,10.1,10.1c1,0,2-0.2,2.9-0.4v7.9c-4.9,2.3-8,7.1-8,12.5c0,7.6,6.2,13.9,13.9,13.9c7.6,0,13.9-6.2,13.9-13.9C52.2,44.7,49.1,39.9,44.2,37.6z M29.5,28.2c-4.5,0-8.2-3.7-8.2-8.2c0-4.5,3.7-8.2,8.2-8.2c1,0,2,0.2,2.9,0.6v15.2C31.5,28,30.5,28.2,29.5,28.2z M38.3,62.1c-6.6,0-11.9-5.3-11.9-11.9c0-4.8,2.9-9.2,7.4-11c0,0,0,0,0,0c0.1,0,0.2-0.1,0.3-0.2c0,0,0.1-0.1,0.1-0.1c0-0.1,0.1-0.1,0.1-0.2c0-0.1,0.1-0.2,0.1-0.4c0,0,0,0,0,0V6.1c0-2.3,1.8-4.2,4-4.2c1.1,0,2,0.4,2.8,1.2c0.8,0.8,1.2,1.9,1.2,3V20c0,0,0,0,0,0c0,0,0,0,0,0v5.8c0,0,0,0,0,0c0,0,0,0,0,0v12.4c0,0,0,0,0,0c0,0.1,0,0.3,0.1,0.4c0,0.1,0.1,0.1,0.1,0.2c0,0.1,0.1,0.1,0.1,0.2c0.1,0.1,0.2,0.2,0.3,0.2c0,0,0,0,0,0c4.5,1.8,7.4,6.2,7.4,11C50.2,56.7,44.9,62.1,38.3,62.1z" fill="#595bd4" class="color000000 svgShape"></path><path d="M39.3 42V12.3c0-.5-.4-1-1-1-.5 0-1 .4-1 1V42c-4.1.5-7.3 4-7.3 8.2 0 4.5 3.7 8.2 8.2 8.2 4.5 0 8.2-3.7 8.2-8.2C46.6 45.9 43.4 42.4 39.3 42zM38.3 56.4c-3.5 0-6.3-2.8-6.3-6.3 0-3.5 2.8-6.3 6.3-6.3 3.5 0 6.3 2.8 6.3 6.3C44.6 53.6 41.8 56.4 38.3 56.4zM29.5 9.4c.5 0 1-.4 1-1V3.3c0-.5-.4-1-1-1-.5 0-1 .4-1 1v5.1C28.5 9 28.9 9.4 29.5 9.4zM24.2 9.7c.2.4.5.6.9.6.1 0 .3 0 .4-.1C25.9 10 26.2 9.5 26 9l-1-2.4c-.2-.5-.8-.7-1.3-.5-.5.2-.7.8-.5 1.3L24.2 9.7zM20.6 12.5c.2.2.4.3.7.3.2 0 .5-.1.7-.3.4-.4.4-1 0-1.4l-3.6-3.6c-.4-.4-1-.4-1.4 0-.4.4-.4 1 0 1.4L20.6 12.5zM16.1 15.5l2.4 1c.1.1.2.1.4.1.4 0 .7-.2.9-.6.2-.5 0-1.1-.5-1.3l-2.4-1c-.5-.2-1.1 0-1.3.5C15.3 14.7 15.6 15.3 16.1 15.5zM18.9 20c0-.5-.4-1-1-1h-5.1c-.5 0-1 .4-1 1s.4 1 1 1h5.1C18.5 21 18.9 20.5 18.9 20zM19.2 25.3c.5-.2.7-.8.5-1.3-.2-.5-.8-.7-1.3-.5l-2.4 1c-.5.2-.7.8-.5 1.3.2.4.5.6.9.6.1 0 .3 0 .4-.1L19.2 25.3zM20.6 27.5L17 31.1c-.4.4-.4 1 0 1.4.2.2.4.3.7.3.2 0 .5-.1.7-.3l3.6-3.6c.4-.4.4-1 0-1.4C21.6 27.1 21 27.1 20.6 27.5zM25 33.4l1-2.4c.2-.5 0-1.1-.5-1.3-.5-.2-1.1 0-1.3.5l-1 2.4c-.2.5 0 1.1.5 1.3C23.8 34 24 34 24.1 34 24.5 34 24.8 33.8 25 33.4zM30.5 36.7v-5.1c0-.5-.4-1-1-1-.5 0-1 .4-1 1v5.1c0 .5.4 1 1 1C30 37.7 30.5 37.2 30.5 36.7z" fill="#595bd4" class="color000000 svgShape"></path></svg>