<svg xmlns="http://www.w3.org/2000/svg" viewBox="0 0 16.933 16.933"><g transform="translate(-588.754)" fill="#34a853" class="color000000 svgShape"><path fill="none" stroke="#4285f4" stroke-linecap="round" stroke-linejoin="round" stroke-width="1.058" d="m 589.28307,10.581016 v 5.823391 l 15.875,2.6e-5 v -5.823417 c 0,1.47923 -1.18517,2.678385 -2.64737,2.678389 -1.46021,-0.0014 -2.6439,-1.19861 -2.64533,-2.675805 0,1.47719 -1.18462,2.674362 -2.6448,2.675805 -1.46018,-0.0014 -2.64337,-1.198628 -2.6448,-2.675805 0,1.477195 -1.18512,2.674369 -2.6453,2.675805 -1.46222,1e-6 -2.6474,-1.199155 -2.6474,-2.678389 z" paint-order="stroke fill markers" class="colorStroke000000 svgStroke"></path><path fill="none" stroke="#4285f4" stroke-linecap="round" stroke-linejoin="round" stroke-width="1.058" d="M 605.15807,12.06967 V 6.2462527 c 0,1.47923 -1.18517,2.678385 -2.64737,2.678389 -1.46021,-0.0014 -2.6439,-1.19861 -2.64533,-2.675805 0,1.47719 -1.18462,2.674362 -2.6448,2.675805 -1.46018,-0.0014 -2.64337,-1.198628 -2.6448,-2.675805 0,1.477195 -1.18512,2.674369 -2.6453,2.675805 -1.46222,10e-7 -2.6474,-1.199155 -2.6474,-2.678389 v 5.8233913" paint-order="stroke fill markers" class="colorStroke000000 svgStroke"></path><path fill="none" stroke="#4285f4" stroke-linecap="round" stroke-linejoin="round" stroke-width="1.058" d="M591.74175 5.9973542V2.4696202M590.40627 3.5495545l1.33545-2.1382236 1.3355 2.1382236" paint-order="stroke fill markers" transform="translate(-.076 -.882)" class="colorStroke000000 svgStroke"></path><path fill="none" stroke="#4285f4" stroke-linecap="round" stroke-linejoin="round" stroke-width="1.058" d="M597.22057 5.1154052V1.5876712M595.88509 2.6676055l1.33545-2.13822364 1.3355 2.13822364M602.77503 5.1154052V1.5876712M601.43955 2.6676055L602.775.52938186 604.1105 2.6676055" paint-order="stroke fill markers" class="colorStroke000000 svgStroke"></path></g></svg>