<svg xmlns="http://www.w3.org/2000/svg" viewBox="0 0 64 64"><path d="M57.39,45.92a8,8,0,0,0-7.72-2.06L37.61,31.8,46,23.44l.84.84a1,1,0,0,0,1.42,0l1.4-1.4,3.64,3.81A1,1,0,0,0,54,27a.92.92,0,0,0,.33-.06,1,1,0,0,0,.67-.86l0-.53a17.27,17.27,0,0,0-5-13.62l-1.79-1.79a1,1,0,0,0-1.42,0l-1.38,1.38a4.48,4.48,0,0,1-1-3.13A4,4,0,0,0,43.13,5a4.09,4.09,0,0,0-5.62.27l-2.3,2.31c-1.79,1.79-2,4.27-.55,5.9a4,4,0,0,0,3.4,1.3,4.36,4.36,0,0,1,3.08,1l-.68.68a1,1,0,0,0,0,1.42l.1.1L32.2,26.39,20,14.17a8,8,0,0,0-10.4-9.6,1,1,0,0,0-.64.73,1,1,0,0,0,.27.92l2.35,2.35A2,2,0,0,1,8.73,11.4L6.38,9.05a1,1,0,0,0-1.65.37A8,8,0,0,0,6.82,18a8.14,8.14,0,0,0,7.49,1.85L26.54,32l-7.78,7.79.07.07A6,6,0,0,0,14,41.6L5.47,50.08A6,6,0,0,0,14,58.57l8.49-8.49a6,6,0,0,0,1.7-4.81L32,37.46,44,49.53A8.11,8.11,0,0,0,45.88,57a8,8,0,0,0,5.85,2.55,8.09,8.09,0,0,0,2.69-.46,1,1,0,0,0,.37-1.65l-2.35-2.35a2,2,0,0,1,0-2.82,2,2,0,0,1,2.83,0l2.35,2.34a1,1,0,0,0,.93.27,1,1,0,0,0,.72-.64A8,8,0,0,0,57.39,45.92ZM37.85,12.84a2,2,0,0,1-1.71-.66c-.74-.83-.55-2.12.48-3.15l2.31-2.31a2.11,2.11,0,0,1,2.86-.19,2,2,0,0,1,.66,1.68,6.71,6.71,0,0,0,2.09,5.3l.16.17a1,1,0,0,0,1.42,0l1.41-1.42,1.08,1.08A15.29,15.29,0,0,1,53.08,23.6l-2.7-2.84a1.08,1.08,0,0,0-.72-.31h0a1,1,0,0,0-.7.3l-1.42,1.41-.84-.85-4-4-.11-.1.71-.71a1,1,0,0,0,0-1.41L43,14.83A6.42,6.42,0,0,0,37.85,12.84ZM42,19.44,44.56,22,36.2,30.39,33.61,27.8ZM21,48.67l-8.49,8.48A4,4,0,1,1,6.88,51.5L15.37,43A4,4,0,0,1,21,43,4,4,0,0,1,21,48.67Zm2.47-5.58a5.71,5.71,0,0,0-1.06-1.49,6,6,0,0,0-1.54-1.09l7.06-7L30.54,36ZM57.72,51.9l-1-1a4.1,4.1,0,0,0-5.66,0,4,4,0,0,0,0,5.66l1,1a5.94,5.94,0,0,1-4.72-1.9,6.11,6.11,0,0,1-1.23-6.09,1,1,0,0,0-.24-1L15.3,18a1,1,0,0,0-.71-.29.86.86,0,0,0-.32.05A6.11,6.11,0,0,1,8.18,16.5a6,6,0,0,1-1.9-4.72l1,1A4,4,0,0,0,13,7.15l-1-1a6,6,0,0,1,6,8,1,1,0,0,0,.23,1.05L48.68,45.7a1,1,0,0,0,1,.23,6,6,0,0,1,8,6Z" data-name="02 Wrench Hammer, Fix, Hammer, Repair" fill="#595bd4" class="color000000 svgShape"></path></svg>